<?xml version="1.0" standalone="no"?>
<!DOCTYPE svg PUBLIC "-//W3C//DTD SVG 1.1//EN" "http://www.w3.org/Graphics/SVG/1.1/DTD/svg11.dtd" >
<svg>
<metadata>
Created by FontForge 20090914 at Mon Jun 30 19:21:55 2014
 By www-data
Copyright (c) Gophmann Alexandra Leopoldovna, 2005. All rights reserved.
</metadata>
<defs>
<font id="Annabelle" horiz-adv-x="483" >
  <font-face 
    font-family="Annabelle"
    font-weight="400"
    font-stretch="normal"
    units-per-em="1000"
    panose-1="3 0 4 0 0 0 0 0 0 0"
    ascent="800"
    descent="-200"
    x-height="394.997"
    cap-height="810.001"
    bbox="-689.083 -397.001 2053 995.994"
    underline-thickness="20"
    underline-position="-123"
    unicode-range="U+0020-U+F002"
  />
<missing-glyph horiz-adv-x="500" 
d="M63 0v865h375v-865h-375zM125 63h250v740h-250v-740z" />
    <glyph glyph-name=".notdef" horiz-adv-x="500" 
d="M63 0v865h375v-865h-375zM125 63h250v740h-250v-740z" />
    <glyph glyph-name="space" unicode=" " horiz-adv-x="366" 
 />
    <glyph glyph-name="exclam" unicode="!" horiz-adv-x="516" 
d="M580 729l-407 -615h-32l367 615h72zM115 3c-18.667 0 -28 9.66699 -28 29c0 12.667 5 24.334 15 35.001s21.333 16 34 16c18.667 0 28 -9.66699 28 -29c0 -12.667 -5 -24.334 -15 -35.001s-21.333 -16 -34 -16z" />
    <glyph glyph-name="quotedbl" unicode="&#x22;" horiz-adv-x="393" 
d="M391 758c-2.66699 -31.333 -20 -59.666 -52 -84.999s-64 -38 -96 -38c-4.66699 0 -7 2.33301 -7 7c0.666992 4 3.33398 5.66699 8.00098 5c16 -2.66699 37.833 4.16602 65.5 20.499s41.834 31.166 42.501 44.499c0.666992 3.33301 -4 6 -14 8c-24 4.66699 -35 18 -33 40
c0.666992 11.333 5.66699 21.333 15 30s19.333 13.334 30 14.001c13.333 0 23.666 -4.16699 30.999 -12.5s10.666 -19.5 9.99902 -33.5zM273 758c-2.66699 -31.333 -20 -59.666 -52 -84.999s-64 -38 -96 -38c-4.66699 0 -7 2.33301 -7 7
c0.666992 4 3.33398 5.66699 8.00098 5c16 -2.66699 37.833 4.16602 65.5 20.499s41.834 31.166 42.501 44.499c0.666992 3.33301 -4 6 -14 8c-24 4.66699 -35 18 -33 40c0.666992 11.333 5.66699 21.333 15 30s19.333 13.334 30 14.001
c13.333 0 23.666 -4.16699 30.999 -12.5s10.666 -19.5 9.99902 -33.5z" />
    <glyph glyph-name="numbersign" unicode="#" horiz-adv-x="601" 
d="M589 695l-107 -183h89l-21 -35h-89l-85 -145h89l-20 -35h-89l-122 -207h-35l121 207h-108l-122 -207h-35l121 207h-93l21 35h93l84 145h-92l21 35h92l107 183h36l-107 -183h108l107 183h36zM425 477h-108l-85 -145h109z" />
    <glyph glyph-name="dollar" unicode="$" horiz-adv-x="694" 
d="M775 734l-62.998 -85.9971c20 -6 31.667 -15 35 -27c2.66699 -10 -0.833008 -19.5 -10.5 -28.5s-19.5 -14.5 -29.5 -16.5c-14.667 -4 -22 -0.666992 -22 10c0 4.66699 3.66699 7.66699 11 9c19.333 3.33301 26.666 11.333 21.999 24
c-1.33301 4 -7.66602 7.33301 -18.999 10l-150 -209l4 -5c37.333 -48 54.333 -85.333 51 -112c-6.66699 -62.667 -43 -115.334 -109 -158.001c-57.333 -37.333 -120.666 -59 -189.999 -65l-37 -52c-8.66699 -11.333 -15.667 -17 -21 -17c-8.66699 0 -13 3.66699 -13 11
c0 2 1 4 3 6l36 51c-12 0 -23.333 0.666992 -34 2l-37 -53c-8.66699 -11.333 -15.667 -17 -21 -17c-8.66699 0 -13 3.66699 -13 11c0 2 1 4 3 6l40 56c-78 12.667 -126.667 42.667 -146 90c-5.33301 12.667 -8 25 -8 37c0 53.333 40.667 95 122 125
c61.333 22.667 138.666 31.667 231.999 27l69 97c-11.333 28.667 -12.333 56 -3 82c18.667 56 64.667 91 138 105l63 87c9.33301 14 16.666 21 21.999 21c4.66699 0 8 -2.33301 10 -7s1.66699 -9.33398 -1 -14.001l-59 -82c3.33301 0.666992 7 1 11 1
c8 0.666992 16 0.666992 24 0l59 81c9.33301 14 16.666 21 21.999 21c4.66699 0 8 -2.33301 10 -7s1.66699 -9.33398 -1 -14.001zM670.002 632.003c-12 0 -24.333 -1 -37 -3l-116 -161c4 -8 9.33301 -16.667 16 -26zM595.002 619.003
c-55.333 -19.333 -85.668 -50 -91.001 -92c-1.33301 -10 -0.666016 -20.667 2.00098 -32zM509 408.003c-6 9.33301 -11.333 17.999 -16 25.999l-53 -73c12.667 -1.33301 23.667 -2.66602 33 -3.99902zM569 299.002c0 16.667 -14.999 45.666 -44.999 86.999l-27 -38
c8 -7.33301 4.66699 -12 -10 -14l-164 -228c18 2 35 5.66699 51 11c61.333 17.333 109.666 43.333 144.999 78c33.333 32.667 50 67.334 50 104.001zM458.001 336.001c-10.667 0.666992 -22.333 1 -35 1l-168 -234c12 -0.666992 23.667 -0.666992 35 0zM391.002 335.001
c-62 -4.66699 -120.667 -18.333 -176 -41c-71.333 -29.333 -107 -64 -107 -104c0 -44.667 39.667 -72.667 119 -84z" />
    <glyph glyph-name="percent" unicode="%" horiz-adv-x="798" 
d="M426 515c-30.667 -58 -71.6689 -107.833 -123.002 -149.5s-98.666 -62.5 -141.999 -62.5c-56.667 0 -85 31.333 -85 94c0 38.667 12 81 36 127c30.667 58.667 71.834 108.667 123.501 150s99.167 62 142.5 62c56.667 0 85 -31 85 -93c0 -39.333 -12.333 -82 -37 -128z
M755.998 741l-650 -731h-47l650 731h47zM697.998 208c-30.667 -58.667 -71.834 -108.667 -123.501 -150s-99.167 -62 -142.5 -62c-56.667 0 -85 31 -85 93c0 39.333 12 82 36 128c30.667 58 71.834 107.833 123.501 149.5s99.167 62.5 142.5 62.5
c56.667 0 85 -31.333 85 -94c0 -38.667 -12 -81 -36 -127zM397.998 520c24 44 35.9971 82 35.9971 114c0 38.667 -15.667 58 -47 58c-30.667 0 -66.667 -17.5 -108 -52.5s-75.666 -77.833 -102.999 -128.5c-23.333 -44 -35 -82 -35 -114c0 -39.333 15.333 -59 46 -59
s66.834 17.667 108.501 53s75.834 78.333 102.501 129zM668.995 213c24 43.333 35.998 81 35.998 113c0 39.333 -15.667 59 -47 59c-30 0 -65.833 -17.667 -107.5 -53s-76.167 -78.333 -103.5 -129c-23.333 -44 -35 -81.667 -35 -113c0 -39.333 15.333 -59 46 -59
s66.834 17.667 108.501 53s75.834 78.333 102.501 129z" />
    <glyph glyph-name="ampersand" unicode="&#x26;" horiz-adv-x="963" 
d="M935 316c-4 -33.333 -18.835 -60.166 -44.502 -80.499s-55.5 -30.5 -89.5 -30.5c-22 0 -48.667 3.66699 -80 11c-36.667 8.66699 -56 13 -58 13c8.66699 -17.333 13 -33.666 13 -48.999c0 -13.333 -3 -27 -9 -41c-31.333 -69.333 -92.333 -116.333 -183 -141
c-65.333 -18 -127.666 -27 -186.999 -27c-118.667 0 -194 36 -226 108c-8.66699 20 -13 40 -13 60c0 58.667 36 117 108 175c54.667 44 125.334 84.667 212.001 122c-38.667 30.667 -55.667 65.667 -51 105c7.33301 70 72.666 135.333 195.999 196c76.667 38 158 57 244 57
c56 0 94 -10 114 -30c13.333 -14 20 -31.333 20 -52c0 -35.333 -15.667 -68.666 -47 -99.999c-23.333 -24 -48.666 -36 -75.999 -36c-10.667 0 -20 2 -28 6c-17.333 8.66699 -26 24.667 -26 48c0 8.66699 1.66699 19.334 5 32.001c2 9.33301 6 14.666 12 15.999
c2.66699 0.666992 4.66699 -0.333008 6 -3s1.66602 -6.33398 0.999023 -11.001c-8.66699 -32 -3.66699 -52.667 15 -62c5.33301 -2.66699 11.333 -4 18 -4c20 0 41.333 12.167 64 36.5s34 49.5 34 75.5c0 14.667 -4.33301 27 -13 37c-17.333 18.667 -48 28 -92 28
c-74.667 0 -150.334 -22 -227.001 -66c-41.333 -23.333 -73.5 -51.833 -96.5 -85.5s-34.5 -66.834 -34.5 -99.501c0 -26 6.66699 -47.667 20 -65c53.333 16.667 101.333 25.667 144 27c55.333 2.66699 84.333 -10.333 87 -39c3.33301 -31.333 -21.334 -51.333 -74.001 -60
c-13.333 -2 -27.666 -3 -42.999 -3c-59.333 0 -109.333 12.333 -150 37c-60 -25.333 -115 -66 -165 -122c-52.667 -58.667 -79 -112.334 -79 -161.001c0 -16.667 3.33301 -31.667 10 -45c30.667 -62 93.334 -93 188.001 -93c40 0 81.333 5.66699 124 17
c38.667 10 75.667 29.333 111 58c40.667 33.333 61 66.333 61 99c0 6.66699 -0.666992 13.334 -2 20.001c-10 35.333 -44.333 53 -103 53c-24.667 0 -47 -4.33301 -67 -13c-46 -18.667 -75.333 -49 -88 -91c-2.66699 -8.66699 -2.66699 -13.334 0 -14.001s7 2.33301 13 9
c4 4 10 6.66699 18 8c9.33301 0.666992 16.5 -1.5 21.5 -6.5s7.5 -11.5 7.5 -19.5c0 -22.667 -13.333 -34 -40 -34c-16 0 -27.667 6.33301 -35 19c-4.66699 7.33301 -7 16.333 -7 27c0 35.333 19.667 70 59 104c49.333 42.667 110.333 62.334 183 59.001
c33.333 -1.33301 72 -9 116 -23c48.667 -14.667 79.334 -23 92.001 -25c26.667 -2.66699 49.334 4.33301 68.001 21c14.667 12.667 23.667 27 27 43c2 11.333 -0.666992 17.666 -8 18.999c-2.66699 0 -6.33398 -1.5 -11.001 -4.5s-8.33398 -4.5 -11.001 -4.5
c-6.66699 0 -12.667 2.66699 -18 8s-7.66602 12 -6.99902 20c0.666992 10 5.5 18 14.5 24s18.833 7.66699 29.5 5c25.333 -5.33301 36.333 -26 33 -62zM639.998 447c-2.66699 13.333 -20.333 19.998 -53 19.998c-11.333 0 -23.666 -0.666992 -36.999 -2
c-28 -4 -59.667 -12.333 -95 -25c30 -22.667 70.667 -33.667 122 -33c21.333 0.666992 37.666 4.83398 48.999 12.501s16 16.834 14 27.501z" />
    <glyph glyph-name="quotesingle" unicode="'" horiz-adv-x="338" 
d="M380 751c-2 -30.667 -18.998 -58.833 -50.998 -84.5s-64.333 -38.5 -97 -38.5c-4.66699 0 -6.66699 2.33301 -6 7c0 4 2.33301 5.66699 7 5c16 -2 37.833 5.16699 65.5 21.5s42.167 31.166 43.5 44.499c0 2.66699 -5 5 -15 7c-23.333 4.66699 -34.333 18 -33 40
c0.666992 12 5.66699 22.333 15 31s19.333 13 30 13c13.333 0.666992 23.666 -3.16602 30.999 -11.499s10.666 -19.833 9.99902 -34.5z" />
    <glyph glyph-name="parenleft" unicode="(" horiz-adv-x="470" 
d="M747 755c-86.667 -41.333 -162.665 -89.832 -227.998 -145.499s-132.333 -129.834 -201 -222.501c-54.667 -74 -97.334 -144.167 -128.001 -210.5s-56.334 -143.5 -77.001 -231.5h-22c33.333 198.667 92.666 357 177.999 475c46.667 64.667 111.334 128.5 194.001 191.5
s173.667 116.833 273 161.5z" />
    <glyph glyph-name="parenright" unicode=")" horiz-adv-x="565" 
d="M708 763c-42 -213.333 -112.002 -380.001 -210.002 -500.001c-95.333 -116 -243.666 -221 -444.999 -315l-15 18c89.333 42 165 88.167 227 138.5s127.667 119.833 197 208.5c62 78.667 109.667 151.334 143 218.001c30.667 63.333 58.334 142 83.001 236z" />
    <glyph glyph-name="asterisk" unicode="*" horiz-adv-x="519" 
d="M472 646c2 -4.66699 0 -12.332 -6 -22.999s-12 -15.334 -18 -14.001c-4 0.666992 -8.83301 5 -14.5 13s-9.16699 12.333 -10.5 13l-15 9v-19c0 -2.66699 1.5 -7.66699 4.5 -15s4.5 -12.333 4.5 -15c0 -8.66699 -7.66699 -13 -23 -13c-13.333 0 -21 3 -23 9
c-1.33301 4 0 10.333 4 19s6 13.667 6 15v19l-15 -9c-6 -8 -15.667 -16.333 -29 -25c-5.33301 0 -11 5 -17 15s-7.33301 17.333 -4 22c2 4 8 6.66699 18 8s16 2.66602 18 3.99902l15 8l-15 9c-10 0.666992 -21.667 4.66699 -35 12c-3.33301 4.66699 -2.16602 12 3.50098 22
s11.5 15 17.5 15c4 0 9.16699 -4 15.5 -12s10.5 -12.667 12.5 -14l15 -8v16c0 2.66699 -1.5 7.66699 -4.5 15s-4.5 12.666 -4.5 15.999c0 8.66699 7.33301 13 22 13c16 0 24 -4.33301 24 -13c0 -3.33301 -1.66699 -8.66602 -5 -15.999s-5 -12.333 -5 -15v-16l15 8
c2 1.33301 6.33301 6.33301 13 15c6 6.66699 11 10 15 10c5.33301 -0.666992 11 -5.66699 17 -15c6.66699 -12 7.66699 -20.333 3 -25c-2.66699 -2.66699 -8.83398 -4.5 -18.501 -5.5s-15.167 -1.83301 -16.5 -2.5l-15 -9l15 -8c10.667 -1.33301 22.667 -5.66602 36 -12.999
z" />
    <glyph glyph-name="plus" unicode="+" horiz-adv-x="552" 
d="M468 352l-19 -33h-193l-109 -194h-38l110 194h-193l19 33h192l109 194h38l-109 -194h193z" />
    <glyph glyph-name="comma" unicode="," horiz-adv-x="245" 
d="M182 35c-2 -31.333 -19.165 -59.667 -51.498 -85s-64.5 -38 -96.5 -38c-4.66699 0 -6.66699 2.33301 -6 7c0 4 2.33301 5.66699 7 5c16 -2 37.833 5.16699 65.5 21.5s42.167 30.833 43.5 43.5c0 3.33301 -5 6 -15 8c-23.333 4.66699 -34.333 18 -33 40
c0.666992 12 5.66699 22.333 15 31s19.333 13 30 13c13.333 0 23.666 -4 30.999 -12s10.666 -19.333 9.99902 -34z" />
    <glyph glyph-name="hyphen" unicode="-" horiz-adv-x="443" 
d="M421 285l-21 -33h-289l20 33h290z" />
    <glyph glyph-name="hyphen" unicode="&#x2010;" horiz-adv-x="443" 
d="M421 285l-21 -33h-289l20 33h290z" />
    <glyph glyph-name="period" unicode="." horiz-adv-x="229" 
d="M151 40c-2 -12 -6.99902 -22.167 -14.999 -30.5s-17 -12.5 -27 -12.5c-9.33301 0 -16.833 4.16699 -22.5 12.5s-7.5 18.5 -5.5 30.5s7.16699 22.167 15.5 30.5s17.166 12.5 26.499 12.5c10 0 17.667 -4.16699 23 -12.5s7 -18.5 5 -30.5z" />
    <glyph glyph-name="slash" unicode="/" horiz-adv-x="551" 
d="M752 803l-631 -850h-58l631 850h58z" />
    <glyph glyph-name="zero" unicode="0" horiz-adv-x="761" 
d="M677 377c-57.333 -109.333 -134 -202.667 -230 -280s-183.333 -116 -262 -116c-46 0 -81.5 14.5 -106.5 43.5s-37.5 68.5 -37.5 118.5c0 69.333 22.667 147.333 68 234c57.333 108.667 134 201.667 230 279s183.333 116 262 116c46 0 81.5 -14.5 106.5 -43.5
s37.5 -68.5 37.5 -118.5c0 -69.333 -22.667 -147 -68 -233zM652 382.999c46 86.667 69 163 69 229c0 86 -35.667 129 -107 129c-63.333 0 -136.166 -35 -218.499 -105s-150.166 -154.333 -203.499 -253c-46 -86.667 -69 -163 -69 -229c0 -86 35.667 -129 107 -129
c63.333 0 136.166 35 218.499 105s150.166 154.333 203.499 253z" />
    <glyph glyph-name="one" unicode="1" horiz-adv-x="498" 
d="M590 748c0 -8 -3.33203 -16.6699 -9.99902 -26.0029l-91 -127c-56 -79.333 -107 -157.666 -153 -234.999l-129 -231c-38 -70 -60.333 -108 -67 -114c-10 -10 -46 -21.333 -108 -34c-10 -2 -15.667 -1.33301 -17 2c-2 2.66699 3 8 15 16c15.333 9.33301 31.333 27 48 53
l217 334c48 74.667 103.333 153.334 166 236.001l84 110c2 2.66699 2.33301 4.33398 1 5.00098c-1.33301 0 -4 -0.666992 -8 -2c-6.66699 -2.66699 -14.667 -7 -24 -13c-18.667 -12 -60.334 -36.667 -125.001 -74c-78.667 -46 -131.167 -75.167 -157.5 -87.5
s-40.5 -14.5 -42.5 -6.5c-1.33301 4 1.5 9.16699 8.5 15.5s15.167 11.5 24.5 15.5c14.667 4.66699 110.334 58 287.001 160c23.333 13.333 43.666 20 60.999 20c13.333 0 20 -5.66699 20 -17z" />
    <glyph glyph-name="two" unicode="2" horiz-adv-x="815" 
d="M795 527c-28.667 -91.333 -92.3311 -160.001 -190.998 -206.001c-35.333 -16 -132.666 -45.333 -291.999 -88c-124.667 -32.667 -215.667 -73.667 -273 -123c36 15.333 72.667 21.666 110 18.999c41.333 -3.33301 96.666 -18 165.999 -44
c65.333 -24.667 112.333 -37 141 -37c59.333 0 95 22 107 66c0.666992 6.66699 1.5 13.834 2.5 21.501s4.16699 11.5 9.5 11.5c6 0 8.66699 -3.66699 8 -11c-8 -92.667 -72 -139 -192 -139c-36 0 -87.5 11.5 -154.5 34.5s-118.5 34.5 -154.5 34.5
c-25.333 0 -48.333 -6.33301 -69 -19c-12.667 -8 -25.334 -19.667 -38.001 -35c-10.667 -12.667 -16.667 -19 -18 -19c-6.66699 0 -9.66699 3.66699 -9 11c5.33301 60 51.666 117.667 138.999 173c66 42 136.333 73 211 93c278 74.667 424.667 183.334 440 326.001
c4 40.667 -7.83301 72.5 -35.5 95.5s-63.5 34.5 -107.5 34.5c-68 0 -132 -20.667 -192 -62c-65.333 -45.333 -100.666 -100.333 -105.999 -165c-2.66699 -26 5.66602 -48.167 24.999 -66.5s42.666 -27.5 69.999 -27.5c52.667 0 97.334 17.667 134.001 53
c32.667 31.333 56.667 74.333 72 129c1.33301 4.66699 5 7 11 7c6.66699 0 9.66699 -3.33301 9 -10c-4.66699 -52.667 -29 -99.667 -73 -141c-45.333 -43.333 -96.333 -65.333 -153 -66c-36.667 -0.666992 -67 10.5 -91 33.5s-34.333 52.833 -31 89.5
c6 72 46.667 133.667 122 185c68.667 46.667 141 70 217 70c54.667 0 101 -15.833 139 -47.5s57 -72.167 57 -121.5c0 -19.333 -3.33301 -39 -10 -59z" />
    <glyph glyph-name="three" unicode="3" horiz-adv-x="722" 
d="M704 607c-5.33301 -54 -34.001 -100.667 -86.001 -140c-42 -31.333 -93.667 -54.333 -155 -69c31.333 -11.333 56.166 -30.833 74.499 -58.5s25.833 -58.5 22.5 -92.5c-6.66699 -79.333 -48 -142 -124 -188c-65.333 -40 -140 -60 -224 -60c-54.667 0 -102 13.333 -142 40
c-46.667 30.667 -68 72.334 -64 125.001c2 21.333 10.333 41.666 25 60.999s32.334 29 53.001 29s33 -7.33301 37 -22c1.33301 -4 2 -8.33301 2 -13c0 -10 -3.83301 -19.167 -11.5 -27.5s-16.834 -12.5 -27.501 -12.5c-4 0 -8.66699 0.833008 -14 2.5
s-8.66602 2.16699 -9.99902 1.5c-8.66699 -2.66699 -13.667 -12.667 -15 -30c-4 -42.667 12.333 -75.667 49 -99c30.667 -20 69.667 -30 117 -30c71.333 0 133.666 23.333 186.999 70c56.667 48 85 107.333 85 178c0 41.333 -22 80 -66 116c-26 -4.66699 -42.667 -7 -50 -7
c-18.667 0 -27.667 4.66699 -27 14c0.666992 6.66699 8 12 22 16c10.667 3.33301 20.334 5 29.001 5c13.333 0 27.666 -2.33301 42.999 -7c49.333 20 91.333 45.667 126 77c42.667 39.333 67 83 73 131c4 32.667 -5 60 -27 82s-50.667 33 -86 33c-48.667 0 -94 -14 -136 -42
c-45.333 -30.667 -70 -69.334 -74 -116.001c-2 -23.333 4.66699 -41.333 20 -54s35 -19 59 -19c28.667 0 57.167 10.333 85.5 31s43.5 44.334 45.5 71.001c0.666992 7.33301 4.33398 11 11.001 11c6 0 8.66699 -3.66699 8 -11c-3.33301 -34 -20.333 -64 -51 -90
s-65 -39 -103 -39c-33.333 0 -59.666 9.66699 -78.999 29s-27.666 44 -24.999 74c4.66699 53.333 34.667 98 90 134c50 32 103 48 159 48c49.333 0 90.666 -12.667 123.999 -38c37.333 -28.667 54 -66.667 50 -114z" />
    <glyph glyph-name="four" unicode="4" horiz-adv-x="680" 
d="M624 561c0 -3.33301 -0.999023 -5.99902 -2.99902 -7.99902c-100 -144.667 -174 -260.334 -222 -347.001c9.33301 -1.33301 18 -2 26 -2c50.667 0 92 19.667 124 59c3.33301 2.66699 6.33301 3.33398 9 2.00098c3.33301 -0.666992 4.66602 -3 3.99902 -7
c0 -1.33301 -0.333008 -2.66602 -1 -3.99902c-29.333 -51.333 -77.333 -77 -144 -77c-11.333 0 -22.666 0.666992 -33.999 2c-48.667 -88.667 -80.334 -139.334 -95.001 -152.001c-18 -15.333 -58.667 -26.666 -122 -33.999c-14.667 -2 -22 0 -22 6c0 4 5 8.33301 15 13
c29.333 13.333 81.333 72.666 156 177.999c-29.333 6 -94 17.667 -194 35c-30 -30.667 -58 -46 -84 -46c-17.333 0 -25.333 5.66699 -24 17c1.33301 18 15.333 32.667 42 44c23.333 10 45.666 13.667 66.999 11c62 62.667 123 135 183 217
c36.667 49.333 90.334 128 161.001 236c5.33301 8 14.333 15.333 27 22c18.667 10 40 20.667 64 32c8 0 8 -6 0 -18c-158.667 -236.667 -297 -401.334 -415 -494.001c12.667 -2.66699 76.667 -13 192 -31c169.333 234.667 264 352 284 352c4.66699 0 6.66699 -2 6 -6z" />
    <glyph glyph-name="five" unicode="5" horiz-adv-x="698" 
d="M840 746c2.66699 -3.33301 2.33594 -7.33105 -0.99707 -11.998c-26 -36.667 -71.667 -61.667 -137 -75c-34.667 -7.33301 -86.667 -12 -156 -14c-20 0 -61.333 2.66699 -124 8l-124 -160c19.333 6.66699 37.666 10 54.999 10c58 0 106 -20 144 -60s54.667 -89 50 -147
c-8 -91.333 -49.333 -166 -124 -224c-69.333 -54.667 -150 -82 -242 -82c-49.333 0 -90.333 15.667 -123 47s-47 71.666 -43 120.999c2 21.333 10.167 41.666 24.5 60.999s32.166 29 53.499 29c20 0 32.333 -7.33301 37 -22c0.666992 -4 1 -8.33301 1 -13
c0 -10 -3.83301 -19.167 -11.5 -27.5s-16.5 -12.5 -26.5 -12.5c-4 0 -8.83301 0.833008 -14.5 2.5s-9.16699 2.16699 -10.5 1.5c-9.33301 -3.33301 -14.333 -13.333 -15 -30c-0.666992 -38.667 10.666 -70.334 33.999 -95.001s55.666 -37.667 96.999 -39
c78.667 -2 145.334 28 200.001 90c49.333 55.333 78 122.333 86 201c4 46 -7.5 85.833 -34.5 119.5s-62.833 50.5 -107.5 50.5c-20 0 -40.833 -5.5 -62.5 -16.5s-34.167 -16.5 -37.5 -16.5l-5 5l-3 8c31.333 36 77.333 93.333 138 172
c62.667 82.667 95.334 125.334 98.001 128.001c4.66699 6 11.667 7.66699 21 5c2.66699 -1.33301 7 -6 13 -14c8 -12 28 -21.667 60 -29c28.667 -6.66699 59.667 -10 93 -10c76 0 137.333 13.333 184 40c5.33301 2.66699 9.66602 2.66699 12.999 0z" />
    <glyph glyph-name="six" unicode="6" horiz-adv-x="761" 
d="M842 657c-0.666992 -26.667 -10.6621 -40.001 -29.9951 -40.001c-8.66699 0 -13.334 10.667 -14.001 32c-2.66699 57.333 -42.334 86 -119.001 86c-70.667 0 -149.334 -31 -236.001 -93c-82.667 -58.667 -154.334 -131.334 -215.001 -218.001
c-62.667 -90.667 -97.667 -174 -105 -250c-4 -44.667 6.5 -82 31.5 -112s59.833 -44.333 104.5 -43c66.667 2 125.667 36.333 177 103c47.333 61.333 78 134.666 92 219.999c1.33301 8 2 15.667 2 23c0 28.667 -8.66699 51.834 -26 69.501s-38.333 26.834 -63 27.501
c-42.667 1.33301 -84 -14 -124 -46c-42 -32.667 -65 -70.334 -69 -113.001c0 -2.66699 -4.33301 -6 -13 -10h-6c-5.33301 0 -7.66602 2.66699 -6.99902 8c4 50.667 30.167 95.834 78.5 135.501s99.166 59.167 152.499 58.5c50 -0.666992 89 -17.5 117 -50.5
s40 -74.833 36 -125.5c-8 -85.333 -47.167 -160.833 -117.5 -226.5s-148.166 -98.5 -233.499 -98.5c-61.333 0 -109.833 17.167 -145.5 51.5s-53.5 80.833 -53.5 139.5c0 84.667 35.667 173.334 107 266.001c66 84.667 148.667 157 248 217s190.666 92 273.999 96
c37.333 1.33301 72.333 -8 105 -28c35.333 -22 52.666 -48.333 51.999 -79z" />
    <glyph glyph-name="seven" unicode="7" horiz-adv-x="611" 
d="M727 746c-2.66699 -30 -50.667 -96.667 -144 -200l-183 -197c-54 -63.333 -112 -136 -174 -218c-44.667 -60 -71.334 -92.667 -80.001 -98c-13.333 -8.66699 -37.333 -18 -72 -28c-31.333 -8.66699 -53 -13 -65 -13c-9.33301 0 -14 3.33301 -14 10
c0 4 3.33301 7.33301 10 10c28.667 13.333 83 62.333 163 147c64 68 123 134.667 177 200c34.667 42.667 82.667 93 144 151l154 142c-24.667 -10.667 -56 -14 -94 -10c-19.333 2 -52.333 9.33301 -99 22c-40.667 10.667 -73.667 16 -99 16
c-7.33301 0 -14.666 -0.333008 -21.999 -1c-35.333 -4 -67.333 -19 -96 -45l-32 -33c-17.333 -17.333 -27.666 -26 -30.999 -26c-4.66699 0 -6.66699 2.66699 -6 8l1 6c24 41.333 56.667 78.333 98 111c46.667 36.667 90.667 55 132 55c28 0 68.167 -9.33301 120.5 -28
s92.833 -28 121.5 -28c36 0 60.333 17.333 73 52c2 3.33301 4.33301 5 7 5c7.33301 0 10.666 -3.33301 9.99902 -10z" />
    <glyph glyph-name="eight" unicode="8" horiz-adv-x="702" 
d="M698 630c-5.33301 -58.667 -34.002 -106.335 -86.002 -143.002c-34.667 -24 -87.667 -46.667 -159 -68c32 -56 46.333 -113 43 -171c-4 -71.333 -32.333 -131.5 -85 -180.5s-115 -73.5 -187 -73.5c-54 0 -98 14 -132 42c-37.333 31.333 -53.666 73.333 -48.999 126
c10.667 120.667 116 206.667 316 258c-33.333 60.667 -48.333 109.334 -45 146.001c5.33301 60.667 30.333 109.667 75 147c42.667 35.333 95 53 157 53c44.667 0 81.334 -11 110.001 -33c31.333 -25.333 45.333 -59.666 42 -102.999zM662.998 618.999
c1.33301 8 1.99902 15.667 1.99902 23c0 30.667 -10.5 55 -31.5 73s-48.833 27 -83.5 27c-40.667 0 -77.667 -13.333 -111 -40s-51.333 -60.667 -54 -102c-1.33301 -24.667 5.33398 -52 20.001 -82l38 -74c132.667 36 206 94.333 220 175zM425.997 212.999
c1.33301 9.33301 2 18.667 2 28c0 47.333 -19.333 99.333 -58 156c-186 -42 -284 -119.667 -294 -233c-4 -45.333 8.66699 -81 38 -107c27.333 -25.333 65.333 -38 114 -38c114 0 180 64.667 198 194z" />
    <glyph glyph-name="nine" unicode="9" horiz-adv-x="736" 
d="M91 -6c-37.333 -1.33301 -72.3359 8 -105.003 28c-35.333 21.333 -52.666 47.333 -51.999 78c0.666992 27.333 10.667 41 30 41c8.66699 0 13.334 -10.667 14.001 -32c3.33301 -58 43 -87 119 -87c71.333 0 150.333 30 237 90c82.667 56.667 154 127.667 214 213
c62.667 90.667 97.667 177 105 259c4 44.667 -6.5 82 -31.5 112s-59.833 44 -104.5 42c-66.667 -2 -126 -35 -178 -99c-48.667 -59.333 -79.667 -131.333 -93 -216c-1.33301 -7.33301 -2 -15 -2 -23c0 -29.333 9 -53.833 27 -73.5s39.333 -29.834 64 -30.501
c42.667 -1.33301 84.5 14 125.5 46s63.5 69.667 67.5 113c0 2.66699 4.33301 6 13 10h6c5.33301 0 8 -3 8 -9c-4.66699 -50 -31.167 -95 -79.5 -135s-99.166 -59.333 -152.499 -58c-50 0.666992 -89 17.334 -117 50.001s-40 74.334 -36 125.001
c8 86 47.167 161.833 117.5 227.5s148.166 98.5 233.499 98.5c61.333 0 109.833 -17.333 145.5 -52s53.5 -81.334 53.5 -140.001c0 -84.667 -35.667 -173 -107 -265c-66 -85.333 -148.667 -158 -248 -218s-190.666 -91.667 -273.999 -95z" />
    <glyph glyph-name="colon" unicode=":" horiz-adv-x="347" 
d="M310 345c-2 -12 -7.16699 -22.167 -15.5 -30.5s-17.166 -12.5 -26.499 -12.5c-10 0 -17.667 4.16699 -23 12.5s-7 18.5 -5 30.5s7.16699 22.167 15.5 30.5s17.166 12.5 26.499 12.5c10 0 17.667 -4.16699 23 -12.5s7 -18.5 5 -30.5zM151 40
c-2 -12 -6.99902 -22.167 -14.999 -30.5s-17 -12.5 -27 -12.5c-9.33301 0 -16.833 4.16699 -22.5 12.5s-7.5 18.5 -5.5 30.5s7.16699 22.167 15.5 30.5s17.166 12.5 26.499 12.5c10 0 17.667 -4.16699 23 -12.5s7 -18.5 5 -30.5z" />
    <glyph glyph-name="semicolon" unicode=";" horiz-adv-x="342" 
d="M310 345c-2 -12 -7.16699 -22.167 -15.5 -30.5s-17.166 -12.5 -26.499 -12.5c-10 0 -17.667 4.16699 -23 12.5s-7 18.5 -5 30.5s7.16699 22.167 15.5 30.5s17.166 12.5 26.499 12.5c10 0 17.667 -4.16699 23 -12.5s7 -18.5 5 -30.5zM182 35
c-2 -31.333 -19.165 -59.667 -51.498 -85s-64.5 -38 -96.5 -38c-4.66699 0 -6.66699 2.33301 -6 7c0 4 2.33301 5.66699 7 5c16 -2 37.833 5.16699 65.5 21.5s42.167 30.833 43.5 43.5c0 3.33301 -5 6 -15 8c-23.333 4.66699 -34.333 18 -33 40
c0.666992 12 5.66699 22.333 15 31s19.333 13 30 13c13.333 0 23.666 -4 30.999 -12s10.666 -19.333 9.99902 -34z" />
    <glyph glyph-name="less" unicode="&#x3c;" horiz-adv-x="573" 
d="M522 512l-419 -169l328 -166l-23 -28l-353 180l10 37l446 180z" />
    <glyph glyph-name="equal" unicode="=" 
d="M439 404l-11 -35h-362l10 35h363zM409 304l-13 -34h-359l13 34h359z" />
    <glyph glyph-name="greater" unicode="&#x3e;" horiz-adv-x="596" 
d="M542 345l-7 -37l-434 -180l-10 34l403 166l-344 166l20 30z" />
    <glyph glyph-name="question" unicode="?" horiz-adv-x="688" 
d="M697 570c-4.66699 -62.667 -28.0059 -114.67 -70.0059 -156.003c-30.667 -30 -78 -59.333 -142 -88c-96.667 -42.667 -149 -66.334 -157 -71.001c-43.333 -24 -66 -51 -68 -81c-1.33301 -12.667 2.33398 -23 11.001 -31s19.334 -12 32.001 -12c32 0 49.333 17 52 51
c0 4 2.66699 6 8 6c6.66699 0 9.66699 -6 9 -18c-3.33301 -43.333 -27.333 -65 -72 -65c-21.333 0 -38.666 7.16699 -51.999 21.5s-19 31.166 -17 50.499c4 38.667 40.667 80.334 110 125.001l152 89c100 70.667 150 142.334 150 215.001
c0 32.667 -10.833 59.334 -32.5 80.001s-52.167 31 -91.5 31c-43.333 0 -82.666 -14.333 -117.999 -43c-37.333 -30 -57.333 -66.333 -60 -109c-2 -25.333 3.5 -45.5 16.5 -60.5s30.833 -21.833 53.5 -20.5c22 0.666992 43 7.33398 63 20.001
c23.333 14.667 35.666 32.667 36.999 54v15c0.666992 6.66699 3.66699 10 9 10c8 0 11.333 -8.66699 10 -26c-2 -26 -16.167 -49.167 -42.5 -69.5s-52.833 -30.5 -79.5 -30.5c-30.667 0 -55.167 9.5 -73.5 28.5s-26.166 43.833 -23.499 74.5
c3.33301 50.667 28.333 94.334 75 131.001c44.667 35.333 92.334 53 143.001 53c52 0 93.833 -16 125.5 -48s45.834 -74 42.501 -126zM238.994 -1.00293c-19.333 0 -29 11.334 -29 34.001c0 13.333 5 26.166 15 38.499s21.667 18.5 35 18.5c18.667 0 28 -11 28 -33
c0 -13.333 -4.83301 -26.333 -14.5 -39s-21.167 -19 -34.5 -19z" />
    <glyph glyph-name="at" unicode="@" horiz-adv-x="890" 
d="M911 437c0 -55.333 -10.9971 -107.668 -32.9971 -157.001c-23.333 -51.333 -56 -93.666 -98 -126.999c-48.667 -38.667 -96.667 -58 -144 -58c-67.333 0 -101 28.667 -101 86c0 10.667 1 23 3 37c-52 -80 -97 -120 -135 -120c-52.667 0 -79 33.333 -79 100
c0 64 27.667 127.667 83 191c58 65.333 118.333 98 181 98c33.333 0 51.666 -17.333 54.999 -52c8.66699 12.667 18 25 28 37c14.667 8 31.667 12 51 12c7.33301 0 13.666 -2 18.999 -6c-26.667 -34 -58.667 -87 -96 -159c-41.333 -78 -62 -130 -62 -156
c0 -30 18 -45 54 -45c66 0 123 37.333 171 112c42.667 66.667 64 135.334 64 206.001c0 74 -24 133 -72 177c-46.667 42 -107.667 63 -183 63c-117.333 0 -222.666 -55 -315.999 -165c-90 -106 -135 -219 -135 -339c0 -80 22.667 -145.667 68 -197
c48 -54 111.333 -81 190 -81c53.333 0 105.666 14.667 156.999 44c55.333 32 93.333 72.333 114 121l18 -13c-12.667 -52 -54.334 -96 -125.001 -132c-61.333 -31.333 -121 -47 -179 -47c-86 0 -155.333 28 -208 84c-51.333 54 -77 124.333 -77 211
c0 83.333 23 166.666 69 249.999s105.667 151 179 203c78.667 55.333 160.334 83 245.001 83c85.333 0 154.666 -21.667 207.999 -65c57.333 -46.667 86 -112 86 -196zM617.003 427.998c0 24 -8.33203 36 -24.999 36c-32.667 0 -78.334 -44.333 -137.001 -133
c-56 -85.333 -84 -145.333 -84 -180c0 -19.333 11 -29 33 -29c32.667 0 71 35 115 105c49.333 78 79.333 130.667 90 158c5.33301 12.667 8 27 8 43z" />
    <glyph glyph-name="A" unicode="A" horiz-adv-x="1188" 
d="M1334 753c-64 -93.333 -131.67 -202.338 -203.003 -327.005c18 -9.33301 32 -18.166 42 -26.499s12.667 -16.166 8 -23.499c-5.33301 -7.33301 -11.333 -8 -18 -2c-10 8.66699 -25 18.334 -45 29.001c-26.667 -48 -49.334 -91 -68.001 -129
c-46 -94 -69 -163.667 -69 -209c0 -38.667 17.667 -58 53 -58c32 0 59 13 81 39c5.33301 6.66699 9.66602 9.33398 12.999 8.00098c6.66699 -1.33301 5.83398 -7.66602 -2.49902 -18.999s-22.166 -22.333 -41.499 -33c-23.333 -12.667 -45.666 -19 -66.999 -19
c-14 0 -27 2.66699 -39 8c-41.333 20.667 -62 52.667 -62 96c0 34.667 11.333 79.334 34 134.001c17.333 41.333 57.333 109.666 120 204.999c-46.667 19.333 -92.334 34.333 -137.001 45l-177 -197c-72.667 -78.667 -138.334 -139.667 -197.001 -183
c-77.333 -56.667 -155.666 -93.334 -234.999 -110.001c-21.333 -4.66699 -44.333 -7 -69 -7c-60 0 -109.667 13 -149 39c-49.333 32 -74.666 80 -75.999 144c-1.33301 85.333 55.334 163 170.001 233c104.667 64 225.334 104.333 362.001 121c50 6.66699 99 10 147 10
c72 0 141.333 -7 208 -21c162 156 259.333 244.667 292 266c37.333 25.333 68.333 38 93 38c26.667 0 40 -9.66699 40 -29c0 -7.33301 -2.66699 -14.666 -8 -21.999zM1313 781.995c-2.66699 1.33301 -6.33301 2 -11 2c-14.667 0 -35.334 -7.33301 -62.001 -22
c-44 -25.333 -139.667 -115.333 -287 -270c46 -11.333 89.667 -26 131 -44c42.667 64 92.334 133.333 149.001 208c42 55.333 68.667 89.666 80 102.999c9.33301 10.667 9.33301 18.334 0 23.001zM894.998 479.995c-59.333 12 -121 17.999 -185 17.999
c-65.333 0 -133.333 -6.33301 -204 -19c-110.667 -20.667 -210.334 -58 -299.001 -112c-100 -61.333 -150 -125.666 -150 -192.999c0 -6.66699 0.333008 -13.667 1 -21c12 -69.333 63.667 -104 155 -104c39.333 0 80.333 6.33301 123 19c76 22 149.667 58.333 221 109
c52.667 36 116.334 90 191.001 162z" />
    <glyph glyph-name="B" unicode="B" horiz-adv-x="884" 
d="M965 572c-31.333 -72.667 -86.6719 -133.33 -166.005 -181.997c27.333 -28 41 -64.333 41 -109c0 -18 -2.66699 -36.667 -8 -56c-15.333 -56.667 -50.666 -108 -105.999 -154c-48 -40 -106.167 -72.167 -174.5 -96.5s-133.166 -36.5 -194.499 -36.5
c-79.333 0 -128 19.333 -146 58c-4.66699 10 -7 20.667 -7 32c0 20.667 7.33301 42 22 64c11.333 18.667 24 32.667 38 42c8 5.33301 14.667 6 20 2c2.66699 -2.66699 1 -9.33398 -5 -20.001c-8 -14.667 -12 -27 -12 -37c0 -24.667 8.66699 -45 26 -61
c24.667 -22 65.334 -33 122.001 -33c45.333 0 88.333 7.33301 129 22c68 24.667 125 57 171 97c44.667 38 74.334 79 89.001 123c6.66699 19.333 10 38 10 56c0 37.333 -12.667 68.666 -38 93.999c-60 -32.667 -114.667 -49 -164 -49c-26.667 0 -50.667 4.66699 -72 14
c-27.333 12.667 -41 31 -41 55c0 21.333 13.167 38.833 39.5 52.5s58.166 19.5 95.499 17.5c54 -4 100 -21 138 -51c50.667 44.667 89 98 115 160c8 20 12 40.667 12 62c0 33.333 -9.66699 61 -29 83c-22 24.667 -54.333 37 -97 37c-16 0 -33 -2 -51 -6
c-70 -14 -142.667 -46 -218 -96c-34 -80.667 -74.667 -167.334 -122 -260.001c-64 -126 -123.333 -224 -178 -294c-56 -72 -101.333 -108 -136 -108c-30 0 -45 20.667 -45 62c0 49.333 19.667 111.666 59 186.999c72.667 138 183.667 265.667 333 383
c20.667 16.667 41.334 32 62.001 46c22 56 36.333 95 43 117c4 16.667 10 25 18 25c4.66699 0 8.66699 -2.5 12 -7.5s5 -9.83301 5 -14.5c-1.33301 -9.33301 -11.666 -39 -30.999 -89c112 69.333 216 102 312 98c43.333 -2 78.833 -16.167 106.5 -42.5
s41.5 -60.166 41.5 -101.499c0 -26.667 -6.33301 -55 -19 -85zM752.994 400.004c-31.333 26 -71.332 40.667 -119.999 44c-24.667 2 -45.334 -2 -62.001 -12s-24.334 -22 -23.001 -36c0.666992 -12 8.83398 -22 24.501 -30s34.5 -12 56.5 -12c42 0 83.333 15.333 124 46z
M455.995 622.004c-93.333 -70.667 -175.001 -151.333 -245.001 -242c-37.333 -48.667 -70.666 -100.667 -99.999 -156c-36 -66 -54 -115.667 -54 -149c0 -26.667 9.33301 -40 28 -40c42.667 0 119 97 229 291c44.667 79.333 92 178 142 296z" />
    <glyph glyph-name="C" unicode="C" horiz-adv-x="743" 
d="M938 700c-0.666992 -5.33301 -6.33496 -7.33203 -17.002 -5.99902h-15c-6 -38 -23.333 -68.667 -52 -92c-20.667 -16.667 -43.334 -25 -68.001 -25c-29.333 0 -44 11 -44 33c0 33.333 23 60.333 69 81c21.333 9.33301 45 15.333 71 18c-0.666992 42 -32 63 -94 63
c-48.667 0 -105 -12 -169 -36c-75.333 -27.333 -150 -67.333 -224 -120c-101.333 -72 -178 -147 -230 -225c-46 -68.667 -69 -133.334 -69 -194.001c0 -32 6.66699 -60.333 20 -85c36 -66.667 114 -100 234 -100c33.333 0 65 2.66699 95 8c86 16.667 163.333 45.667 232 87
c46.667 28.667 83.667 58.667 111 90c10.667 11.333 20 17 28 17c2.66699 0 4.33398 -0.666992 5.00098 -2c4.66699 -6.66699 -1 -17.667 -17 -33c-43.333 -42.667 -83.333 -75.667 -120 -99c-65.333 -40.667 -142.666 -70 -231.999 -88c-49.333 -9.33301 -97 -14 -143 -14
c-126 0 -214.333 32.667 -265 98c-28 35.333 -42 79.666 -42 132.999c0 112.667 64.333 223.334 193 332.001c96.667 82 203.334 146.333 320.001 193c102 40.667 191.333 61 268 61c42.667 0 73.667 -7 93 -21c21.333 -16 32 -37.333 32 -64
c20.667 0 30.667 -3.33301 30 -10zM880.999 691.001c-35.333 -6 -62.333 -16.333 -81 -31c-20.667 -15.333 -31 -30.333 -31 -45c0 -9.33301 6 -14 18 -14c14.667 0 31.667 7 51 21c22.667 16 37 39 43 69z" />
    <glyph glyph-name="D" unicode="D" horiz-adv-x="886" 
d="M977 579c-11.333 -70.667 -38.665 -147.667 -81.998 -231c-56.667 -108.667 -127.334 -196 -212.001 -262c-118.667 -93.333 -235.334 -140 -350.001 -140c-34 0 -62.667 4.66699 -86 14s-37.666 20.666 -42.999 33.999c-2.66699 7.33301 -4 15 -4 23
c0 32.667 23 66 69 100c38.667 28.667 81 50 127 64c39.333 11.333 83 17 131 17c47.333 0 81.666 -4.66699 102.999 -14c17.333 -8 22.333 -14 15 -18c-2 -1.33301 -19 0 -51 4c-36 4.66699 -55.667 7 -59 7c-44.667 0 -90.667 -6.66699 -138 -20
c-42.667 -12.667 -80.667 -31.667 -114 -57c-36 -27.333 -54 -53.666 -54 -78.999c0 -5.33301 1 -10 3 -14c6.66699 -21.333 38.667 -32 96 -32c46.667 0 95.334 8.33301 146.001 25c59.333 20 111.333 48.667 156 86c83.333 70.667 150.333 157.667 201 261
c44.667 93.333 67 179 67 257c0 66 -17 108.667 -51 128c-26 14 -55.667 21 -89 21c-74 0 -159 -32 -255 -96c-49.333 -114 -94.666 -209.333 -135.999 -286c-134.667 -252 -233.334 -378 -296.001 -378c-31.333 0 -47 22 -47 66c0 48.667 20.667 111.667 62 189
c45.333 84.667 107 167.667 185 249c60 64 128.667 122 206 174c6 16.667 14 37 24 61l21 68c4 12 11.333 17 22 15c9.33301 -1.33301 12.666 -10 9.99902 -26c-2.66699 -13.333 -13.667 -43.333 -33 -90c117.333 72 215.333 106.333 294 103c112 -4 168 -56.667 168 -158
c0 -19.333 -2 -41 -6 -65zM458.001 625c-146 -112.667 -261.667 -245.334 -347 -398.001c-36 -65.333 -54 -116.666 -54 -153.999c0 -25.333 9 -38 27 -38c42 0 124.667 109 248 327c42 74 84 161.667 126 263z" />
    <glyph glyph-name="E" unicode="E" horiz-adv-x="696" 
d="M879 694l-20.0029 0.00390625c-5.33301 -30 -19.833 -57 -43.5 -81s-50.5 -36 -80.5 -36c-26.667 0 -40 12 -40 36c0 14.667 7.5 29.667 22.5 45s32.167 27.166 51.5 35.499s41.333 13.5 66 15.5c0 14 -4.33301 26.333 -13 37c-15.333 19.333 -44.666 29 -87.999 29
c-75.333 0 -151.333 -22 -228 -66c-40.667 -23.333 -72.5 -51.833 -95.5 -85.5s-34.5 -66.834 -34.5 -99.501c0 -26 6.66699 -47.667 20 -65c53.333 16.667 101.333 25.667 144 27c55.333 2.66699 84.333 -10.333 87 -39c3.33301 -31.333 -21.667 -51.333 -75 -60
c-12.667 -2 -26.667 -3 -42 -3c-59.333 0 -109.333 12.333 -150 37c-60 -25.333 -115 -66 -165 -122c-53.333 -58.667 -80 -112.334 -80 -161.001c0 -16.667 3.66699 -31.667 11 -45c28.667 -58 86.667 -87 174 -87c70.667 0 145.667 16 225 48c96 39.333 168 87 216 143
c10.667 12.667 20.334 18 29.001 16c10 -1.33301 3 -14.333 -21 -39s-55 -50.334 -93 -77.001c-44.667 -30 -86.334 -52.667 -125.001 -68c-95.333 -38 -189.333 -57 -282 -57c-114 0 -186.667 35.667 -218 107c-8.66699 20 -13 40 -13 60c0 58.667 36 117 108 175
c54.667 44 125.334 84.667 212.001 122c-38.667 30.667 -55.667 65.667 -51 105c8 72.667 72 138.667 192 198c78.667 38.667 160.334 58 245.001 58c65.333 0 107 -14.667 125 -44c7.33301 -12 11 -26.333 11 -43c19.333 0 29 -3.33301 29 -10
c0 -4.66699 -3.33301 -6.66699 -10 -6zM832.997 691.004c-29.333 -4.66699 -53.334 -13 -72.001 -25c-26.667 -18 -40 -34 -40 -48c0 -11.333 6.33301 -17 19 -17c22 0 43.333 11 64 33c14.667 15.333 24.334 34.333 29.001 57zM599.996 447.004
c-2.66699 13.333 -20.333 19.998 -53 19.998c-11.333 0 -23.666 -0.666992 -36.999 -2c-28 -4 -59.667 -12.333 -95 -25c29.333 -22.667 70 -33.667 122 -33c21.333 0.666992 37.666 4.83398 48.999 12.501s16 16.834 14 27.501z" />
    <glyph glyph-name="F" unicode="F" horiz-adv-x="704" 
d="M805 799c28 -28 42.002 -66.6699 42.002 -116.003c0 -83.333 -33 -165.666 -99 -246.999c-16.667 -20.667 -36.334 -42.667 -59.001 -66c37.333 -5.33301 58 -22 62 -50c1.33301 -10 0.333008 -15 -3 -15c-1.33301 0 -3.33301 2.66699 -6 8c-9.33301 22 -35 33 -77 33
c-31.333 -30 -83 -75.667 -155 -137c-60.667 -52 -100.334 -88.333 -119.001 -109c-46 -51.333 -68.333 -105.666 -67 -162.999c0 -4.66699 -1 -8.33398 -3 -11.001s-4.33301 -4 -7 -4c-7.33301 0.666992 -11 13.334 -11 38.001c0 48 11 88.333 33 121
c28 41.333 108 125.666 240 252.999c-49.333 -12 -96.333 -31 -141 -57c-20 -12.667 -32 -14 -36 -4c-2.66699 8 2.66602 16 15.999 24c62 36.667 127 60.334 195 71.001c46 45.333 78.333 80.333 97 105c67.333 90.667 101 169.667 101 237
c0 32.667 -9.66699 58.334 -29 77.001c-24.667 24.667 -66 37 -124 37c-87.333 0 -174.666 -22 -261.999 -66c-82.667 -42 -151 -91 -205 -147c-56.667 -58.667 -85 -112.667 -85 -162c0 -19.333 5 -37 15 -53c16 -26.667 46.333 -40 91 -40c66.667 0 138.334 22 215.001 66
c56 32 103.667 73.333 143 124c30 38.667 51.667 76.667 65 114c5.33301 15.333 12.333 22 21 20c7.33301 -2.66699 8.66602 -11 3.99902 -25c-10.667 -34 -29.334 -69.667 -56.001 -107c-42 -60 -94.667 -108.333 -158 -145c-92.667 -54 -178.667 -81 -258 -81
c-73.333 0 -122.666 28 -147.999 84c-8 16.667 -12 34.667 -12 54c0 54 28 111.333 84 172c54 58 121.333 106.333 202 145c107.333 50.667 212.333 76 315 76c83.333 0 143 -18 179 -54z" />
    <glyph glyph-name="G" unicode="G" horiz-adv-x="842" 
d="M944 799c34 -18 50.999 -47.6641 50.999 -88.9971c0 -44.667 -18.333 -99 -55 -163c-30 -52 -64 -98.667 -102 -140c-57.333 -61.333 -119 -109 -185 -143c-56.667 -28.667 -106.667 -43 -150 -43c-44 0 -66 18.333 -66 55c0 22.667 13.333 59.667 40 111
c28.667 54.667 52.334 82 71.001 82c4 0 6 -2 6 -6c0 -4.66699 -2.33301 -10 -7 -16c-11.333 -14 -22.666 -31.667 -33.999 -53c-14 -27.333 -21 -49.666 -21 -66.999c0 -27.333 18 -41 54 -41c33.333 0 73.666 12 120.999 36c50.667 25.333 99 59.666 145 102.999
c38.667 36.667 73.334 80.667 104.001 132c34.667 58 52 107.333 52 148c0 34 -12.667 58.667 -38 74c-19.333 11.333 -42.333 17 -69 17c-54.667 0 -117.334 -22.667 -188.001 -68c-76 -48 -151 -115.333 -225 -202c-51.333 -60.667 -92.833 -126.334 -124.5 -197.001
s-47.5 -132 -47.5 -184c0 -46.667 13.667 -78.334 41 -95.001c19.333 -12 43.666 -18 72.999 -18c43.333 0 94.666 12.333 153.999 37c48.667 20.667 93.334 45 134.001 73c43.333 30 76 64 98 102c2 2.66699 7.16699 5.83398 15.5 9.50098s16.166 5.83398 23.499 6.50098
c4 -0.666992 7.66699 -1 11 -1c0 -3.33301 -13.333 -23.333 -40 -60c-35.333 -46.667 -60.666 -82.334 -75.999 -107.001l-143 -214c43.333 -16.667 63 -30.334 59 -41.001c-2.66699 -6.66699 -10 -7.66699 -22 -3c-8 4 -25.333 11.667 -52 23
c-39.333 -50.667 -79 -91.334 -119 -122.001c-46 -34 -102.667 -62.667 -170 -86c-38.667 -13.333 -82.334 -20 -131.001 -20c-87.333 0 -132 24.667 -134 74c-2 37.333 22.667 73.666 74 108.999c48 33.333 108 59 180 77c46.667 11.333 94.334 17 143.001 17
c51.333 0 99 -6.33301 143 -19c27.333 38.667 67.666 107 120.999 205c-16.667 -14.667 -53 -32 -109 -52c-67.333 -24 -127.666 -36 -180.999 -36c-36 0 -66.333 6 -91 18c-62.667 30.667 -94 83 -94 157c0 93.333 54 204 162 332
c72.667 86.667 160.334 159.334 263.001 218.001c100 58 186.667 87 260 87c30 0 55 -5.66699 75 -17zM522.999 -133.997c-39.333 11.333 -80.999 17 -124.999 17c-46.667 0 -95 -6.33301 -145 -19c-57.333 -14 -105 -34.833 -143 -62.5s-57.667 -54.167 -59 -79.5
c-0.666992 -19.333 10 -34.333 32 -45c20 -10 46 -15 78 -15c35.333 0 69.666 5.66699 102.999 17c106.667 36 193 98.333 259 187z" />
    <glyph glyph-name="H" unicode="H" horiz-adv-x="1227" 
d="M1586 808c0.666992 -8 -4.33496 -13.6699 -15.002 -17.0029c-30.667 -7.33301 -68.667 -28.166 -114 -62.499s-82.666 -70.166 -111.999 -107.499c-60.667 -77.333 -112.334 -160.666 -155.001 -249.999c20 -6 47 -15 81 -27c13.333 -6 18.666 -13 15.999 -21
c-1.33301 -4 -4.66602 -7 -9.99902 -9c-6 -1.33301 -11.833 -0.5 -17.5 2.5s-32.5 13.167 -80.5 30.5l-113 -226c-30.667 -64.667 -57 -103 -79 -115c-14.667 -8.66699 -37.167 -16.334 -67.5 -23.001s-54.166 -9.66699 -71.499 -9c-10 0 -15 2 -15 6
c0 3.33301 4.33301 6.66602 13 9.99902c37.333 15.333 72.666 45.333 105.999 90c55.333 76 116 169.333 182 280c-69.333 18.667 -139.333 33 -210 43c-60.667 -108.667 -137.667 -204.667 -231 -288c-74 -66.667 -154.333 -117.667 -241 -153
c-79.333 -32.667 -154.333 -49 -225 -49c-97.333 0 -162 28 -194 84c-12.667 22.667 -19 46.334 -19 71.001c0 58 33.333 118.667 100 182c52.667 49.333 110.334 88.333 173.001 117c-8.66699 19.333 -13 41.333 -13 66c0 46.667 14.333 95.334 43 146.001
c30.667 54 73.667 102 129 144c53.333 40.667 113 72.667 179 96c63.333 22.667 124.333 34 183 34c68.667 0 121.667 -15.667 159 -47c30.667 -25.333 46 -66 46 -122c0 -74.667 -25.667 -160.667 -77 -258c72.667 -10.667 143.334 -25 212.001 -43
c54.667 92 106.667 168.667 156 230c46 57.333 94.667 104.666 146 141.999c46.667 32.667 88.667 53.334 126 62.001c6.66699 1.33301 10 -1.66699 10 -9zM929.998 798.997c-24 14.667 -55.668 21.999 -95.001 21.999c-46 0 -96.5 -9.5 -151.5 -28.5
s-102.833 -42.5 -143.5 -70.5c-56 -39.333 -101.333 -88.166 -136 -146.499s-52 -111.5 -52 -159.5c0 -8 0.666992 -16 2 -24c114 36 241.667 53 383 51c22.667 32.667 38 67 46 103c2.66699 10 7.33398 15.333 14.001 16c2.66699 0 5 -1.66699 7 -5
c1.33301 -4 1.33301 -10 0 -18c-4.66699 -32 -16.667 -64.333 -36 -97c40 -1.33301 84.667 -5 134 -11c56 98 84 181.333 84 250c0 54 -18.667 93.333 -56 118zM716.997 417.996c-134 -1.33301 -252.334 -19.333 -355.001 -54c18 -42 57.333 -63 118 -63
c66 0 126.333 21 181 63c20.667 16.667 39.334 34.667 56.001 54zM887.996 407.996c-46 5.33301 -91.6738 8.66504 -137.007 9.99805c-18.667 -26 -41.667 -49.667 -69 -71c-63.333 -49.333 -135.666 -74 -216.999 -74c-71.333 0 -125.666 22.667 -162.999 68
c-21.333 -9.33301 -41.666 -19.666 -60.999 -30.999c-53.333 -31.333 -97.666 -67 -132.999 -107c-39.333 -44 -59 -84 -59 -120c0 -16.667 4.66699 -32 14 -46c22.667 -34 68.334 -51 137.001 -51c79.333 0 170.833 21.333 274.5 64s187.834 94.334 252.501 155.001
c58.667 55.333 112.334 123 161.001 203z" />
    <glyph glyph-name="I" unicode="I" horiz-adv-x="829" 
d="M960 802c22 -16.667 33.001 -48.001 33.001 -94.001c0 -78.667 -28 -170.667 -84 -276c-62 -117.333 -142.333 -216 -241 -296c-74.667 -61.333 -155 -107.333 -241 -138c4 -12 9.66699 -28 17 -48c3.33301 -10.667 -0.333984 -16 -11.001 -16
c-7.33301 0 -12 3.33301 -14 10l-16 46c-58 -18.667 -121.333 -28 -190 -28c-101.333 0 -164.333 25.333 -189 76c-7.33301 14.667 -11 31 -11 49c0 47.333 17.333 87.666 52 120.999c20 18.667 39 28 57 28c20 0 30 -9.33301 30 -28c0 -8.66699 -2.83301 -16.5 -8.5 -23.5
s-12.5 -10.5 -20.5 -10.5c-2.66699 0 -5 0.666992 -7 2c-21.333 6.66699 -40 -0.333008 -56 -21c-13.333 -18 -20 -40 -20 -66c0 -19.333 5 -35.666 15 -48.999c17.333 -22.667 47.333 -34 90 -34c60 0 138.667 20.333 236 61c-8 38 -11.333 79.333 -10 124
c6 152.667 53.333 288.334 142 407.001c50.667 68 111.667 123.333 183 166c67.333 40 129 60 185 60c32 0 58.333 -7.33301 79 -22zM936.001 786.999c-15.333 10.667 -35 16.001 -59 16.001c-50 0 -108.333 -21 -175 -63s-124.667 -95 -174 -159
c-34.667 -46.667 -63.667 -102 -87 -166c-25.333 -70.667 -39.666 -143.334 -42.999 -218.001c-2.66699 -40 0 -79.667 8 -119c109.333 49.333 204.666 111.333 285.999 186c78 72 143.333 152.333 196 241c50.667 86.667 76 158 76 214c0 32 -9.33301 54.667 -28 68z" />
    <glyph glyph-name="J" unicode="J" horiz-adv-x="799" 
d="M913 755c17.333 -22.667 26 -52.6641 26 -89.9971c0 -92.667 -50.667 -223.334 -152 -392.001c-49.333 -82 -113 -168 -191 -258c-105.333 -122 -206.333 -212 -303 -270c-126 -76 -234.333 -114 -325 -114c-54 0 -98 13.333 -132 40c-28.667 22.667 -46 50 -52 82
c-2.66699 14.667 -4 29.334 -4 44.001c0 46 12.333 91 37 135c22.667 39.333 48.334 67.666 77.001 84.999c12.667 7.33301 25.667 11 39 11s24.666 -3.5 33.999 -10.5s14.333 -15.167 15 -24.5c2 -14.667 -1.33301 -28 -10 -40s-19 -19.333 -31 -22
c-10 -2.66699 -19.167 -1 -27.5 5s-12.833 13 -13.5 21s-2.66699 12.667 -6 14c-5.33301 2 -11.333 0.333008 -18 -5c-10 -8.66699 -20.333 -23.667 -31 -45c-15.333 -30 -23 -60.333 -23 -91c0 -8.66699 0.666992 -17.334 2 -26.001c9.33301 -62 55 -93 137 -93
c72 0 157.333 23.667 256 71c104 50 203.167 117.667 297.5 203s182.833 195 265.5 329c88.667 142.667 133 255.667 133 339c0 35.333 -9 62.666 -27 81.999c-28 30 -66 45 -114 45c-55.333 0 -119 -19.667 -191 -59c-63.333 -34 -120 -75.333 -170 -124
c-52.667 -50 -99 -109 -139 -177c-44.667 -76.667 -67 -141.667 -67 -195c0 -14.667 2 -28.334 6 -41.001c12.667 -41.333 43 -62 91 -62c62 0 128 25.667 198 77c40 28.667 76.667 67 110 115c25.333 37.333 43.333 71.666 54 102.999c6 16 12.667 24 20 24
s9.33301 -6.33301 6 -19c-28 -93.333 -87.667 -176.666 -179 -249.999c-67.333 -54 -142 -81 -224 -81c-74.667 0 -123.667 26.333 -147 79c-8.66699 21.333 -13 45 -13 71c0 60.667 22.5 128.667 67.5 204s104.167 144.333 177.5 207c57.333 48.667 122 87.334 194 116.001
s138 43 198 43c69.333 0 119 -18.667 149 -56z" />
    <glyph glyph-name="K" unicode="K" horiz-adv-x="1277" 
d="M1605 733c-0.666992 -8 -3.00488 -11.9951 -7.00488 -11.9951c-6.66699 0 -11.167 6.16699 -13.5 18.5s-11.333 22.166 -27 29.499s-33.834 11 -54.501 11c-7.33301 0 -14.666 -0.333008 -21.999 -1c-42 -6.66699 -83.333 -31.667 -124 -75
c-20 -21.333 -42.667 -53.333 -68 -96c-28.667 -48.667 -51 -83.334 -67 -104.001c-30.667 -38.667 -68 -72.334 -112 -101.001c-15.333 -10 -45.333 -21 -90 -33c35.333 -12 59 -31.333 71 -58c6.66699 -14.667 10 -30.667 10 -48c0 -32.667 -13 -70.334 -39 -113.001
c-16.667 -26.667 -25 -54 -25 -82c0 -20.667 5.66699 -36 17 -46c8 -6.66699 17.667 -10 29 -10c30.667 0 57.5 15.5 80.5 46.5s34.5 61.167 34.5 90.5c0 19.333 -5.33301 30 -16 32c-22.667 4.66699 -46.334 -13.333 -71.001 -54
c-4.66699 -8.66699 -10.334 -12.667 -17.001 -12c-8 0.666992 -9.33301 6.66699 -4 18c8.66699 20.667 21.167 38 37.5 52s32.5 21 48.5 21c7.33301 0 14.333 -1.33301 21 -4c15.333 -8 23 -24.333 23 -49c0 -35.333 -13 -71 -39 -107c-14 -20 -34.667 -37.333 -62 -52
s-53.666 -22 -78.999 -22c-20 0 -36.667 5 -50 15c-24 18 -36 41.667 -36 71c0 38 16 75 48 111c44.667 50.667 67 87.334 67 110.001s-10.667 41.334 -32 56.001c-19.333 12.667 -41 19 -65 19c-10 0 -20 -1.33301 -30 -4l-17 -3c-16 -3.33301 -33.667 -10.666 -53 -21.999
c-103.333 -152 -215 -260.333 -335 -325c-111.333 -60.667 -212.666 -91 -303.999 -91c-53.333 0 -99.666 10.667 -138.999 32c-32.667 18 -55.334 39.667 -68.001 65c-8 18.667 -12 38.667 -12 60c0 30.667 7.16699 60.334 21.5 89.001s31.5 49 51.5 61
c12 8 24.667 12 38 12c27.333 0 42.333 -10 45 -30c1.33301 -12.667 -1.5 -23.5 -8.5 -32.5s-16.833 -13.5 -29.5 -13.5c-15.333 0 -24.666 5.66699 -27.999 17c-2 6 -4.66699 9.66699 -8 11c-4 0.666992 -9 -1.33301 -15 -6s-12.333 -14.667 -19 -30
c-8.66699 -18.667 -13 -37.334 -13 -56.001c0 -14.667 2.66699 -28.334 8 -41.001c18.667 -44.667 66.334 -67 143.001 -67c74 0 159.667 19.833 257 59.5s181.833 89.667 253.5 150s135.167 138.166 190.5 233.499c58 100.667 87 186.334 87 257.001
c0 49.333 -15.333 85.333 -46 108c-32.667 24 -73 36 -121 36c-56 0 -117 -15.667 -183 -47c-59.333 -28 -110 -62 -152 -102c-37.333 -34.667 -68.333 -74.334 -93 -119.001c-27.333 -48.667 -41 -93.334 -41 -134.001c0 -28 6.33301 -52 19 -72c22 -34 56.667 -51 104 -51
c60 0 121 20.667 183 62c34.667 22.667 64 53.334 88 92.001c18.667 30 30.334 57.333 35.001 82c2 12.667 7 19 15 19c7.33301 0 10.333 -5 9 -15c-10 -74.667 -53.667 -141 -131 -199c-58.667 -44 -129 -66 -211 -66c-74.667 0 -127.667 21.333 -159 64
c-20 27.333 -30 59.666 -30 96.999c0 46 15 94.5 45 145.5s71.667 98.167 125 141.5c48 38.667 105.667 69.667 173 93c65.333 22 128.333 33 189 33c68.667 0 121.334 -14.667 158.001 -44c33.333 -26.667 50 -66.334 50 -119.001c0 -69.333 -27.667 -157.666 -83 -264.999
c-4 -7.33301 -8.66699 -15.333 -14 -24c79.333 -4.66699 139.333 6 180 32c36.667 22.667 70.667 53.667 102 93c18 23.333 41.333 59 70 107c26.667 44 47.334 74.667 62.001 92c66.667 77.333 130.667 113.666 192 108.999c28.667 -2.66699 50.667 -14.667 66 -36
c12.667 -18.667 18 -39 16 -61z" />
    <glyph glyph-name="L" unicode="L" horiz-adv-x="1169" 
d="M1253 787c0 -28 -17.6689 -65.6719 -53.002 -113.005c-32 -43.333 -65.333 -77 -100 -101c-62 -44 -127.333 -71 -196 -81c-42.667 -74 -75.667 -127.667 -99 -161c-37.333 -54.667 -78.666 -104 -123.999 -148c102 -94 204 -142.333 306 -145
c54.667 -1.33301 95 8 121 28c10 7.33301 18 10.333 24 9c8 -1.33301 8 -6.66602 0 -15.999c-44 -54 -105.333 -79.667 -184 -77c-86 2.66699 -183 62.334 -291 179.001c-121.333 -108.667 -245.333 -166 -372 -172c-78.667 -3.33301 -143.667 13.334 -195 50.001
c-48.667 35.333 -73 80 -73 134c0 10 1 20.333 3 31c12 62.667 47.333 112.334 106 149.001c52 32.667 112 49 180 49c24.667 0 48.334 -2.33301 71.001 -7c54 -11.333 106.333 -36 157 -74c24 -18 59.333 -50.333 106 -97c40 34.667 78 76.667 114 126
c4 4.66699 35.333 50.334 94 137.001c-14 -0.666992 -28.667 -1 -44 -1c-14 0 -21 4 -21 12c0 10.667 8 15.667 24 15c20 -0.666992 39.667 -0.666992 59 0c74.667 108 139.667 187.5 195 238.5s104.333 76.5 147 76.5c30 0 45 -13.667 45 -41zM1186 797.995
c-30 0 -64.668 -20 -104.001 -60c-55.333 -54.667 -109.666 -127.667 -162.999 -219c60 10.667 112 31 156 61c42 28.667 76.667 63 104 103c24.667 36 37 65.667 37 89c0 17.333 -10 26 -30 26zM616.997 204.995c-92.667 100.667 -179.334 157 -260.001 169
c-17.333 2.66699 -34.666 4 -51.999 4c-60.667 0 -116 -16 -166 -48c-58 -36 -87 -83 -87 -141c0 -36 16.833 -66.167 50.5 -90.5s78.5 -36.5 134.5 -36.5c16 0 32.333 1 49 3c124 15.333 234.333 62 331 140z" />
    <glyph glyph-name="M" unicode="M" horiz-adv-x="1660" 
d="M1908 768c0 -30.667 -33.6699 -91.0029 -101.003 -181.003c-63.333 -84.667 -133 -164.334 -209 -239.001l-26 -26c-85.333 -160 -128 -268.333 -128 -325c0 -18 8 -27 24 -27c15.333 0 32.333 9.66699 51 29s29.334 28.333 32.001 27
c4 -1.33301 3.33301 -6.33301 -2 -15c-9.33301 -14 -21.666 -27 -36.999 -39c-18.667 -14.667 -37 -22 -55 -22c-6 0 -12 1 -18 3c-20 6.66699 -30 26 -30 58c0 48 22.333 120.667 67 218c-166.667 -154 -288.667 -231 -366 -231c-14.667 0 -28 2.66699 -40 8
c-26.667 12 -40 38 -40 78c0 58 27 145 81 261c-182 -201.333 -368.333 -328.666 -559 -381.999c-67.333 -19.333 -134.666 -29 -201.999 -29c-78 0 -144 13 -198 39c-60 29.333 -99 72.333 -117 129c-7.33301 22 -11 44 -11 66c0 76.667 38.667 146 116 208
c79.333 64.667 189 112.667 329 144c76.667 17.333 154.667 26 234 26c93.333 0 184 -11.667 272 -35c71.333 -18.667 132 -42 182 -70l21 39c54.667 108 104.167 193.833 148.5 257.5s74.833 92.167 91.5 85.5c4.66699 -2.66699 7 -7.66699 7 -15
c0 -24 -21 -69.667 -63 -137c-19.333 -31.333 -47 -70.666 -83 -117.999c-65.333 -84 -98 -126.333 -98 -127c39.333 -24.667 59 -42.334 59 -53.001c0 -1.33301 -0.666992 -2.66602 -2 -3.99902c-6.66699 -6.66699 -19.667 -2 -39 14c-8.66699 6.66699 -19.667 14 -33 22
c-70 -148 -105 -253.333 -105 -316c0 -43.333 18.333 -65 55 -65c74.667 0 203.334 86.333 386.001 259c25.333 50.667 55.333 106.334 90 167.001c54.667 94.667 111.667 175.334 171 242.001c57.333 64 99.666 96 126.999 96c12 0 18 -6.66699 18 -20zM1869 750.997
c-34.667 0 -121.667 -121.333 -261 -364c46 46 102 112.833 168 200.5s99 140.167 99 157.5c0 4 -2 6 -6 6zM1144 417.997c-42 26.667 -100.333 49.332 -175 67.999c-86 21.333 -175 32 -267 32c-76 0 -149.333 -7.66699 -220 -23
c-142.667 -31.333 -251.334 -79 -326.001 -143c-62.667 -54 -94 -111.333 -94 -172c0 -58.667 29.333 -101.667 88 -129c44.667 -21.333 100 -32 166 -32c42.667 0 89 4 139 12c114 18.667 236.667 64.334 368 137.001c120.667 66.667 216.334 137.667 287.001 213z" />
    <glyph glyph-name="N" unicode="N" horiz-adv-x="1440" 
d="M2053 729c0 -10.667 -2.66797 -16.333 -8.00098 -17c-6 -0.666992 -10.667 3.66602 -14 12.999c-5.33301 12 -16 22.333 -32 31c-18.667 10.667 -40 15.667 -64 15c-68.667 0 -146.334 -39 -233.001 -117c-56 -50.667 -123.333 -126 -202 -226l-220 -299
c-68.667 -88 -123.334 -132 -164.001 -132c-9.33301 0 -18.666 2 -27.999 6c-30 14 -45 46 -45 96c0 66 22.667 148 68 246c-182 -201.333 -368.333 -328.666 -559 -381.999c-67.333 -19.333 -134.666 -29 -201.999 -29c-78 0 -144 13 -198 39
c-60 29.333 -99 72.333 -117 129c-7.33301 22 -11 44 -11 66c0 76.667 38.667 146 116 208c79.333 64.667 189 112.667 329 144c76.667 17.333 154.667 26 234 26c93.333 0 184 -11.667 272 -35c71.333 -18.667 132 -42 182 -70l21 39
c54.667 108 104.167 193.833 148.5 257.5s74.833 92.167 91.5 85.5c4.66699 -2.66699 7 -7.66699 7 -15c0 -24 -21 -69.667 -63 -137c-19.333 -31.333 -47 -70.666 -83 -117.999c-65.333 -84 -98 -126.333 -98 -127c39.333 -24.667 59 -42.334 59 -53.001
c0 -1.33301 -0.666992 -2.66602 -2 -3.99902c-6.66699 -6.66699 -19.667 -2 -39 14c-8.66699 6.66699 -19.667 14 -33 22c-53.333 -112.667 -80 -204.667 -80 -276c0 -54.667 16 -82 48 -82c26.667 0 69.334 38.667 128.001 116l209 278c93.333 118 163 199 209 243
c104 99.333 196.333 145 277 137c26.667 -2.66699 50 -14.334 70 -35.001c17.333 -18.667 26 -37.667 26 -57zM1144 418.001c-42 26.667 -100.333 49.332 -175 67.999c-86 21.333 -175 32 -267 32c-76 0 -149.333 -7.66699 -220 -23
c-142.667 -31.333 -251.334 -79 -326.001 -143c-62.667 -54 -94 -111.333 -94 -172c0 -58.667 29.333 -101.667 88 -129c44.667 -21.333 100 -32 166 -32c42.667 0 89 4 139 12c114 18.667 236.667 64.334 368 137.001c120.667 66.667 216.334 137.667 287.001 213z" />
    <glyph glyph-name="O" unicode="O" horiz-adv-x="684" 
d="M691 806c28 -10 50.166 -32.832 66.499 -68.499s24.5 -78.834 24.5 -129.501c0 -132 -46.333 -258.667 -139 -380c-63.333 -82.667 -133.833 -148.5 -211.5 -197.5s-150.167 -73.5 -217.5 -73.5c-48.667 0 -90.667 13.333 -126 40c-50 37.333 -75 96.333 -75 177
c0 110.667 41 221.334 123 332.001c108 146.667 216.667 238.334 326 275.001c10.667 3.33301 18 3.33301 22 0c6.66699 -4.66699 1.33398 -10 -15.999 -16c-28.667 -9.33301 -66.667 -32.666 -114 -69.999c-69.333 -53.333 -127.666 -116.333 -174.999 -189
c-59.333 -91.333 -89 -186 -89 -284c0 -96 28.667 -159.667 86 -191c26.667 -14.667 56.667 -22 90 -22c114 0 229.667 74.667 347 224c95.333 121.333 143 246.333 143 375c0 46 -6.83301 84.833 -20.5 116.5s-32.167 51.167 -55.5 58.5c-12.667 4.66699 -26 7 -40 7
c-66.667 0 -135.667 -53 -207 -159c-38 -57.333 -57 -110.333 -57 -159c0 -29.333 7.66699 -48.333 23 -57c9.33301 -4.66699 19.333 -7 30 -7c44 0 85.333 30 124 90c10.667 16 18.667 22.333 24 19c8.66699 -4 8.66699 -13.667 0 -29
c-13.333 -24.667 -35.333 -48.334 -66 -71.001c-34.667 -26 -67.667 -39 -99 -39c-17.333 0 -33 4.33301 -47 13c-29.333 17.333 -44 49.666 -44 96.999c0 43.333 12 85.666 36 126.999c32.667 56.667 76 104 130 142s105.667 57 155 57c17.333 0 33.666 -2.66699 48.999 -8
z" />
    <glyph glyph-name="P" unicode="P" horiz-adv-x="763" 
d="M930 778c41.333 -27.333 62.002 -67.6631 62.002 -120.996c0 -52 -18.5 -105.833 -55.5 -161.5s-82.5 -97.834 -136.5 -126.501c-72.667 -38 -145.667 -57 -219 -57c-34.667 0 -66 5 -94 15c-39.333 13.333 -59 34.666 -59 63.999c0 20.667 9.66699 39.667 29 57
c17.333 15.333 38.666 26.666 63.999 33.999c17.333 5.33301 36 8 56 8c33.333 0 63.666 -6.33301 90.999 -19c8 -4 13.333 -8.33301 16 -13s2.33398 -7.66699 -0.999023 -9c-7.33301 -4.66699 -16 -4.66699 -26 0c-24 11.333 -49.667 17 -77 17
c-18.667 0 -37 -2.66699 -55 -8c-20.667 -6 -37.834 -16.167 -51.501 -30.5s-18.834 -28.5 -15.501 -42.5c2.66699 -14 14.834 -25.5 36.501 -34.5s48.834 -13.5 81.501 -13.5c66 0 130.667 17.667 194 53c44 24 80.5 57.167 109.5 99.5s43.5 83.833 43.5 124.5
c0 32 -10.333 59.333 -31 82c-27.333 30 -68.666 45 -123.999 45c-44 0 -92.667 -9 -146 -27c-46.667 -16 -86.334 -35 -119.001 -57c-49.333 -114 -94.666 -209.333 -135.999 -286c-134.667 -252 -233.334 -378 -296.001 -378c-31.333 0 -47 22 -47 66
c0 48.667 20.667 111.667 62 189c45.333 84.667 107 167.667 185 249c60 64 128.667 122 206 174c6 16.667 14 37 24 61l21 68c4 12 11.333 17 22 15c9.33301 -1.33301 12.666 -10 9.99902 -26c-2.66699 -13.333 -13.667 -43.333 -33 -90
c44.667 27.333 92.667 50.666 144 69.999c63.333 23.333 119 35 167 35c40 0 72.667 -8.66699 98 -26zM458.002 625.003c-146 -112.667 -261.667 -245.334 -347 -398.001c-36 -65.333 -54 -116.666 -54 -153.999c0 -25.333 9 -38 27 -38c42 0 124.667 109 248 327
c42 74 84 161.667 126 263z" />
    <glyph glyph-name="Q" unicode="Q" horiz-adv-x="684" 
d="M734 -77c3.33301 -3.33301 2.33496 -10.3359 -2.99805 -21.0029c-12.667 -25.333 -33.334 -47.666 -62.001 -66.999c-33.333 -22 -68.333 -33 -105 -33c-47.333 0 -111 23.333 -191 70c-86.667 51.333 -149 80 -187 86c-20 3.33301 -39.667 5 -59 5
c-32.667 0 -82.334 -9.66699 -149.001 -29c-12.667 -3.33301 -20.334 -2.33301 -23.001 3c-3.33301 6 1.33398 11 14.001 15c24.667 8.66699 44.667 14.667 60 18c28 6.66699 55.333 10.667 82 12c-65.333 35.333 -98 99.333 -98 192c0 110.667 41 221.334 123 332.001
c108 146.667 216.667 238.334 326 275.001c10.667 3.33301 18 3.33301 22 0c6.66699 -4.66699 1.33398 -10 -15.999 -16c-28.667 -9.33301 -66.667 -32.666 -114 -69.999c-69.333 -53.333 -127.666 -116.333 -174.999 -189c-59.333 -91.333 -89 -186 -89 -284
c0 -96 28.667 -159.667 86 -191c26 -14 55.333 -21 88 -21c112.667 0 228.667 75.667 348 227c97.333 124 146 249.667 146 377c0 45.333 -7 83.166 -21 113.499s-33 48.833 -57 55.5c-12.667 4 -25.334 6 -38.001 6c-68 0 -137.667 -52.667 -209 -158
c-38 -57.333 -57 -110.333 -57 -159c0 -29.333 7.66699 -48.333 23 -57c9.33301 -4.66699 19.333 -7 30 -7c44 0 85.333 30 124 90c10.667 16 18.667 22.333 24 19c8.66699 -4 8.66699 -13.667 0 -29c-13.333 -24.667 -35.333 -48.334 -66 -71.001
c-34.667 -26 -67.667 -39 -99 -39c-17.333 0 -33 4.33301 -47 13c-30.667 18.667 -46 52.334 -46 101.001c0 44 12.667 85 38 123c36 54.667 79.667 100.667 131 138c56 40 108.333 60 157 60c16 0 31.333 -2.33301 46 -7c28.667 -9.33301 51 -31.333 67 -66s24 -77 24 -127
c0 -130.667 -47 -257.334 -141 -380.001c-56.667 -74.667 -119.334 -136.167 -188.001 -184.5s-134.667 -77.5 -198 -87.5l139 -58c58 -24.667 107.667 -38.667 149 -42c10 -0.666992 19.667 -1 29 -1c38.667 0 72 6.33301 100 19c20 9.33301 34 20.333 42 33
s14.667 16.334 20 11.001z" />
    <glyph glyph-name="R" unicode="R" horiz-adv-x="837" 
d="M930 778c38.667 -25.333 58 -60.9951 58 -106.995c0 -46.667 -18.667 -95.834 -56 -147.501s-81 -90.834 -131 -117.501c-29.333 -16 -60 -28.333 -92 -37c12.667 -21.333 18.334 -46 17.001 -74c-2 -50.667 -26.667 -114 -74 -190c-12 -18.667 -18 -35.667 -18 -51
c0 -26.667 14 -40 42 -40c34 0 63 22.667 87 68c9.33301 17.333 17.333 24 24 20c8 -4 7 -15 -3 -33c-14 -26 -33.833 -47.333 -59.5 -64s-51.834 -25 -78.501 -25c-26 0 -48.5 8.33301 -67.5 25s-28.5 38 -28.5 64c0 29.333 12.333 56.666 37 81.999
c59.333 61.333 89 113.666 89 156.999c0 16.667 -3.33301 33.667 -10 51c-24 -4 -48 -6 -72 -6c-47.333 0 -86.833 7.16699 -118.5 21.5s-46.5 30.5 -44.5 48.5c4 32.667 32.333 49 85 49c16.667 0 33.334 -1.66699 50.001 -5c50 -12.667 91.667 -37.667 125 -75
c28 8.66699 54.667 20 80 34c36.667 20.667 69.667 49.667 99 87c32 41.333 48 80 48 116c0 26 -8.66699 48.333 -26 67c-27.333 30 -68.666 45 -123.999 45c-44 0 -92.667 -9 -146 -27c-46.667 -16 -86.334 -35 -119.001 -57c-49.333 -114 -94.666 -209.333 -135.999 -286
c-134.667 -252 -233.334 -378 -296.001 -378c-31.333 0 -47 22 -47 66c0 48.667 20.667 111.667 62 189c45.333 84.667 107 167.667 185 249c60 64 128.667 122 206 174c6 16.667 14 37 24 61l21 68c4 12 11.333 17 22 15c9.33301 -1.33301 12.666 -10 9.99902 -26
c-2.66699 -13.333 -13.667 -43.333 -33 -90c44.667 27.333 92.667 50.666 144 69.999c63.333 23.333 119 35 167 35c40 0 72.667 -8.66699 98 -26zM654 383.005c-28 44 -70.998 66 -128.998 66c-35.333 0 -54 -9.66699 -56 -29c-0.666992 -12 9.66602 -22.5 30.999 -31.5
s48.666 -13.5 81.999 -13.5c23.333 0 47.333 2.66699 72 8zM458.002 625.005c-146 -112.667 -261.667 -245.334 -347 -398.001c-36 -65.333 -54 -116.666 -54 -153.999c0 -25.333 9 -38 27 -38c42 0 124.667 109 248 327c42 74 84 161.667 126 263z" />
    <glyph glyph-name="S" unicode="S" horiz-adv-x="848" 
d="M1043 762c0 -12 -6.33301 -23.333 -19 -34s-25.334 -17.667 -38.001 -21c-14 -3.33301 -23 -0.333008 -27 9c-2.66699 6.66699 1.66602 11 12.999 13c24 4 36 14.333 36 31c0 2.66699 -0.666992 5.66699 -2 9c-5.33301 14 -31.333 21 -78 21
c-33.333 0 -66.333 -5.33301 -99 -16c-97.333 -31.333 -146 -83.666 -146 -156.999c0 -31.333 13.667 -67.333 41 -108l75 -101c25.333 -39.333 36.333 -75 33 -107c-7.33301 -70 -43 -133.333 -107 -190c-59.333 -52.667 -133.666 -91 -222.999 -115
c-51.333 -14 -103.666 -21 -156.999 -21c-72.667 0 -136.334 12 -191.001 36c-56.667 25.333 -93.667 59.333 -111 102c-7.33301 18 -11 35.667 -11 53c0 77.333 59 137.666 177 180.999c73.333 27.333 164.333 41 273 41c68.667 0 124.667 -4 168 -12
c22 -4 31 -9.66699 27 -17c-4 -8 -15.333 -10.667 -34 -8c-17.333 2.66699 -38 4 -62 4c-110 0 -217 -21.333 -321 -64c-107.333 -43.333 -161 -95.666 -161 -156.999c0 -9.33301 1.66699 -18.666 5 -27.999c11.333 -32 40 -57.167 86 -75.5s99.333 -27.5 160 -27.5
c51.333 0 100.333 6.66699 147 20c90.667 26 162.334 64.667 215.001 116c50 49.333 75 101.666 75 156.999c0 22.667 -12.333 52.334 -37 89.001l-70 102c-25.333 42 -38 80.333 -38 115c0 17.333 3 34.333 9 51c19.333 56.667 59.333 99 120 127
c42.667 20 92 31.333 148 34c24.667 1.33301 49 -1.33398 73 -8.00098c34 -8.66699 51 -23.334 51 -44.001z" />
    <glyph glyph-name="T" unicode="T" horiz-adv-x="984" 
d="M1325 642c-4 -6 -9.66504 -5.00098 -16.998 2.99902c-24.667 28 -74 56 -148 84s-166.667 42 -278 42c-81.333 0 -170.666 -7.66699 -267.999 -23c-138.667 -22.667 -262.167 -72.334 -370.5 -149.001s-162.5 -151.667 -162.5 -225c0 -10 1.33301 -19.667 4 -29
c16.667 -66.667 75 -100 175 -100c38.667 0 76.334 5.33301 113.001 16c43.333 12.667 87.666 37 132.999 73c36 28.667 59.667 52.334 71 71.001c8.66699 14.667 17.667 20.667 27 18c8 -1.33301 7.33301 -9 -2 -23c-16.667 -25.333 -42.334 -52.666 -77.001 -81.999
c-49.333 -42 -99 -69.667 -149 -83c-40.667 -10.667 -81.334 -16 -122.001 -16c-134.667 0 -211 56.333 -229 169c-1.33301 8.66699 -2 17.667 -2 27c0 83.333 52.667 161.333 158 234c110 76.667 249.333 125.667 418 147c72 9.33301 141.333 14 208 14
c139.333 0 259.666 -19 360.999 -57c79.333 -30 129 -57.333 149 -82c9.33301 -12 12 -21.667 8 -29zM1031 688.999c0.666992 -8 -4.66699 -13.332 -16 -15.999c-31.333 -7.33301 -70 -28.166 -116 -62.499s-82.667 -70.166 -110 -107.499
c-54 -76 -123.333 -203.333 -208 -382c-30.667 -64.667 -57 -103 -79 -115c-14.667 -8.66699 -37.167 -16.334 -67.5 -23.001s-53.833 -9.66699 -70.5 -9c-10 0 -15 2 -15 6c0 3.33301 4 6.66602 12 9.99902c37.333 15.333 72.666 45.333 105.999 90c42 58 92 132 150 222
c54.667 84.667 98.334 149 131.001 193c43.333 57.333 91.666 104.666 144.999 141.999c46 32.667 88.333 53 127 61c6.66699 1.33301 10.334 -1.66699 11.001 -9z" />
    <glyph glyph-name="U" unicode="U" horiz-adv-x="1063" 
d="M1294 800c2 -6 -42.668 -73.333 -134.001 -202c-105.333 -147.333 -159.333 -223 -162 -227l-118 -179c-43.333 -68.667 -65 -116 -65 -142c0 -18.667 10 -28 30 -28c30 0 56.667 10.667 80 32c9.33301 8.66699 16.333 11.334 21 8.00098
c6 -4.66699 3.83301 -13 -6.5 -25s-26.833 -22.833 -49.5 -32.5s-44.334 -14.5 -65.001 -14.5c-20 0 -35 5.66699 -45 17s-15 26.666 -15 45.999c0 46.667 32.667 123.667 98 231c-25.333 -25.333 -51.333 -48.666 -78 -69.999c-180.667 -150 -315 -225 -403 -225
c-15.333 0 -29 2.66699 -41 8c-30.667 14 -46 39 -46 75c0 45.333 20.667 91.333 62 138c30.667 34.667 84.334 83 161.001 145c68.667 56 117.334 103 146.001 141c48 62.667 72 121.667 72 177c0 38 -13.333 67.5 -40 88.5s-63 31.5 -109 31.5
c-76 0 -161.667 -26.667 -257 -80c-71.333 -39.333 -133 -92.333 -185 -159s-78 -126.334 -78 -179.001c0 -20 4.33301 -37.333 13 -52c18.667 -32.667 52.334 -49 101.001 -49c36.667 0 78 8.66699 124 26c40 15.333 72.333 32.666 97 51.999
c69.333 52.667 115.666 117 138.999 193c3.33301 12 9 18.333 17 19c4 0.666992 7.16699 -0.833008 9.5 -4.5s2.5 -8.5 0.5 -14.5c-10 -35.333 -21.333 -63.666 -34 -84.999c-25.333 -42.667 -64.666 -84.334 -117.999 -125.001c-28 -21.333 -62.667 -40 -104 -56
c-47.333 -17.333 -91 -26 -131 -26c-61.333 0 -104.666 21 -129.999 63c-20 32.667 -30 69.334 -30 110.001c0 49.333 14.667 98.666 44 147.999c32 52.667 77.667 99.667 137 141c104 72.667 215.667 109 335 109c78.667 0 137 -15.333 175 -46
c32 -25.333 48 -62.666 48 -111.999c0 -61.333 -21.667 -125 -65 -191c-24.667 -37.333 -59.334 -78 -104.001 -122c-58.667 -57.333 -97.667 -97 -117 -119c-62.667 -74 -94 -131.333 -94 -172c0 -26.667 12.333 -40 37 -40c35.333 0 96.666 28 183.999 84
c67.333 43.333 125 85.333 173 126c77.333 65.333 136.666 129 177.999 191l232 351c2.66699 2 14.834 6.66699 36.501 14s39.167 12 52.5 14c12.667 2 19.667 1.33301 21 -2z" />
    <glyph glyph-name="V" unicode="V" horiz-adv-x="886" 
d="M1549 729c0 -10.667 -2.6709 -16.3301 -8.00391 -16.9971c-6 -0.666992 -10.667 3.66602 -14 12.999c-5.33301 12 -16 22.333 -32 31c-18.667 10.667 -40 15.667 -64 15c-87.333 0 -195 -65 -323 -195l-329 -357c-58.667 -58 -123.667 -109.333 -195 -154
c-82 -50.667 -148.667 -76 -200 -76c-16.667 0 -31 2.66699 -43 8c-30.667 14 -46 39 -46 75c0 45.333 20.667 91.333 62 138c30.667 34.667 84.334 83 161.001 145c68.667 56 117.334 103 146.001 141c48 62.667 72 121.667 72 177c0 38 -13.5 67.5 -40.5 88.5
s-63.833 31.5 -110.5 31.5c-77.333 0 -162.333 -26.667 -255 -80c-68.667 -39.333 -129 -92.333 -181 -159c-54 -68.667 -81 -129 -81 -181c0 -19.333 4 -36 12 -50c18.667 -32.667 52.334 -49 101.001 -49c36.667 0 78 8.66699 124 26c40 15.333 72.333 32.666 97 51.999
c69.333 52.667 115.666 117 138.999 193c3.33301 12 9 18.333 17 19c4 0.666992 7.16699 -0.833008 9.5 -4.5s2.5 -8.5 0.5 -14.5c-10 -35.333 -21.333 -63.666 -34 -84.999c-25.333 -42.667 -64.666 -84.334 -117.999 -125.001c-28 -21.333 -62.667 -40 -104 -56
c-47.333 -17.333 -91 -26 -131 -26c-61.333 0 -104.666 21 -129.999 63c-20 32.667 -30 69.334 -30 110.001c0 49.333 14.667 98.666 44 147.999c32 52.667 77.667 99.667 137 141c102.667 72 214.667 108 336 108c78.667 0 136.667 -15 174 -45
c32 -25.333 48 -62.666 48 -111.999c0 -61.333 -21.667 -125 -65 -191c-24.667 -37.333 -59.334 -78 -104.001 -122c-58.667 -57.333 -97.667 -97 -117 -119c-62.667 -74 -94 -131.333 -94 -172c0 -26.667 12.333 -40 37 -40c35.333 0 95.333 29 180 87
c72.667 49.333 128.334 93.666 167.001 132.999c31.333 32.667 107 119.667 227 261c92 108.667 167.333 185.667 226 231c84 65.333 162.667 94.333 236 87c26.667 -2.66699 50 -14.334 70 -35.001c17.333 -18.667 26 -37.667 26 -57z" />
    <glyph glyph-name="W" unicode="W" horiz-adv-x="1242" 
d="M1334 771c24.667 -36.667 37 -80.6641 37 -131.997c0 -85.333 -33.333 -185.333 -100 -300c-47.333 -80.667 -110.333 -156 -189 -226c-87.333 -78.667 -161.333 -118 -222 -118c-12 0 -23.333 2 -34 6c-44.667 14.667 -67 62 -67 142c0 20 1.33301 48.667 4 86
c-47.333 -49.333 -105 -97.666 -173 -144.999c-91.333 -63.333 -164 -95 -218 -95c-16 0 -30 2.66699 -42 8c-30 14 -45 39 -45 75c0 45.333 20.667 91.333 62 138c30.667 34.667 84 83 160 145c69.333 56 118.333 103 147 141c46.667 61.333 70 119.666 70 174.999
c0 38 -12.167 68.333 -36.5 91s-59.833 34 -106.5 34c-78 0 -165 -27.667 -261 -83c-68.667 -39.333 -129.334 -92.333 -182.001 -159c-53.333 -68.667 -80 -129 -80 -181c0 -19.333 4 -36 12 -50c18 -32.667 51.667 -49 101 -49c36.667 0 77.667 8.66699 123 26
c40 15.333 72.667 32.666 98 51.999c69.333 52.667 115.666 117 138.999 193c3.33301 12 9 18.333 17 19c4 0.666992 7.16699 -0.833008 9.5 -4.5s2.5 -8.5 0.5 -14.5c-10 -35.333 -21.333 -63.666 -34 -84.999c-26 -42.667 -65.333 -84.334 -118 -125.001
c-28 -21.333 -62.667 -40 -104 -56c-47.333 -17.333 -91 -26 -131 -26c-61.333 0 -104.666 21 -129.999 63c-20 32.667 -30 69 -30 109c0 49.333 14.667 98.666 44 147.999c32 52.667 77.667 100 137 142c105.333 74.667 217.333 112 336 112c80 0 138 -16.333 174 -49
c32.667 -28.667 49 -68 49 -118c0 -61.333 -22 -123 -66 -185c-26 -36 -61.333 -76.333 -106 -121c-56 -56.667 -94.333 -96.667 -115 -120c-62.667 -74 -94 -131.333 -94 -172c0 -27.333 13 -41 39 -41c38.667 0 104 35 196 105c67.333 51.333 123 99 167 143
c18.667 85.333 46 163.666 82 234.999c18.667 36 41 67 67 93s49.667 39 71 39c18.667 0 28 -9.66699 28 -29c0 -31.333 -22.167 -81.333 -66.5 -150s-96.833 -134 -157.5 -196c-9.33301 -42.667 -14 -80.334 -14 -113.001c0 -84 29 -126 87 -126
c50 0 109.333 31.333 178 94s125.334 135.667 170.001 219c64.667 118.667 97 244 97 376c0 24 -1.66699 43.667 -5 59c-3.33301 17.333 -3 26 1 26c5.33301 0.666992 13.333 -7.66602 24 -24.999zM968 592.003c-23.333 0 -54.668 -36.333 -94.001 -109
c-24.667 -47.333 -46.667 -106 -66 -176c50.667 55.333 93.334 111 128.001 167c30.667 50.667 46 85.667 46 105c0 8.66699 -4.66699 13 -14 13z" />
    <glyph glyph-name="X" unicode="X" horiz-adv-x="1031" 
d="M1385 742c8.66699 -16.667 12.9971 -37.332 12.9971 -61.999c0 -42.667 -8.33301 -79.667 -25 -111c-6 -11.333 -12.333 -15.333 -19 -12c-6.66699 2.66699 -8 10.334 -4 23.001c6.66699 20 10 39.333 10 58c0 36.667 -11 63.667 -33 81c-12 10 -28 15 -48 15
c-18.667 0 -39 -4.33301 -61 -13c-58.667 -23.333 -119.667 -67 -183 -131c-54.667 -55.333 -101.334 -116 -140.001 -182h94l-18 -26h-91c-72.667 -120 -109 -216 -109 -288c0 -38 12 -65.333 36 -82c13.333 -8.66699 29.333 -13 48 -13c29.333 0 59.666 10.667 90.999 32
c10.667 7.33301 18.667 8.33301 24 3c4.66699 -5.33301 2.66699 -12.333 -6 -21c-15.333 -15.333 -34.666 -29 -57.999 -41c-30 -16 -58.333 -24 -85 -24c-6.66699 0 -13 0.666992 -19 2c-48 8 -72 46.333 -72 115c0 38 6.66699 79 20 123
c-76 -90 -159.667 -159.667 -251 -209c-111.333 -60 -212.666 -90 -303.999 -90c-53.333 0 -99.666 10.333 -138.999 31c-32.667 18 -55 40 -67 66c-8.66699 18 -13 38 -13 60c0 30 7.16699 59.333 21.5 88s31.5 49 51.5 61c12 8 24.667 12 38 12
c27.333 0 42.333 -10 45 -30c1.33301 -12.667 -1.5 -23.5 -8.5 -32.5s-16.833 -13.5 -29.5 -13.5c-15.333 0 -24.666 5.66699 -27.999 17c-2 6 -4.66699 9.66699 -8 11c-4 0.666992 -9 -1.33301 -15 -6s-12.333 -14.334 -19 -29.001c-8.66699 -19.333 -13 -38.333 -13 -57
c0 -14.667 2.66699 -28.334 8 -41.001c18.667 -45.333 67 -68 145 -68c73.333 0 157.333 19.333 252 58c98 40 183.667 91 257 153c45.333 38 102 109 170 213h-91l18 26h90c24 33.333 44.333 70.666 61 111.999c21.333 51.333 32 97 32 137c0 48.667 -16.167 85 -48.5 109
s-72.166 36 -119.499 36c-57.333 0 -120.333 -16 -189 -48c-60.667 -28.667 -109.834 -61.667 -147.501 -99s-68.834 -77.666 -93.501 -120.999c-27.333 -49.333 -41 -94 -41 -134c0 -27.333 6.33301 -51 19 -71c22 -34 56.667 -51 104 -51c60.667 0 121.667 20.667 183 62
c34.667 23.333 64 54 88 92c18.667 30 30.334 57.333 35.001 82c2 12.667 7 19 15 19c7.33301 0 10.333 -5 9 -15c-10 -74 -53.667 -140.333 -131 -199c-58 -44 -128.333 -66 -211 -66c-74.667 0 -127.667 21.667 -159 65c-20 26.667 -30 58.667 -30 96
c0 46 15 94.667 45 146s71.667 98.333 125 141c48 38.667 105.667 69.667 173 93c65.333 22.667 128.333 34 189 34c68.667 0 121.334 -15 158.001 -45c33.333 -26 50 -65.333 50 -118c0 -38 -8.33301 -81.667 -25 -131c103.333 134.667 205 216 305 244
c18 4.66699 34.667 7 50 7c38 0 64.333 -14.333 79 -43z" />
    <glyph glyph-name="Y" unicode="Y" horiz-adv-x="1052" 
d="M1049 413c0 -60 -24.335 -137.668 -73.002 -233.001c-58 -115.333 -136 -219 -234 -311c-74 -69.333 -156.333 -130 -247 -182c-98 -56 -176.333 -84 -235 -84c-35.333 0 -60.666 10.667 -75.999 32c-5.33301 8 -8 17.333 -8 28c0 26.667 19 56.834 57 90.501
s88.667 63.834 152 90.501c82 34.667 166.667 52 254 52c30.667 0 59.334 -2 86.001 -6c84 77.333 156 170.333 216 279c53.333 98 80 173.333 80 226c0 26 -7.33301 39 -22 39c-16.667 0 -49 -25 -97 -75c-78 -81.333 -122 -126.666 -132 -135.999
c-68 -61.333 -134.667 -112.666 -200 -153.999c-83.333 -53.333 -149.666 -80 -198.999 -80c-15.333 0 -29 2.66699 -41 8c-30 14 -45 39 -45 75c0 45.333 20.667 91.333 62 138c30 34 83.667 82 161 144c69.333 55.333 118 102.666 146 141.999
c45.333 62 68 120.333 68 175c0 38 -12.167 68.333 -36.5 91s-60.166 34 -107.499 34c-76.667 0 -162.667 -27.667 -258 -83c-68.667 -39.333 -129.334 -92.333 -182.001 -159c-53.333 -68.667 -80 -129 -80 -181c0 -19.333 4 -36 12 -50c18 -32.667 51.667 -49 101 -49
c36.667 0 77.667 8.66699 123 26c40 15.333 72.667 32.666 98 51.999c69.333 52.667 115.666 117 138.999 193c3.33301 12 9 18.333 17 19c4 0.666992 7.16699 -0.833008 9.5 -4.5s2.5 -8.5 0.5 -14.5c-10 -35.333 -21.333 -63.666 -34 -84.999
c-26 -42.667 -65.333 -84.334 -118 -125.001c-28 -21.333 -62.667 -40 -104 -56c-47.333 -17.333 -91 -26 -131 -26c-61.333 0 -104.666 21 -129.999 63c-20 32.667 -30 69 -30 109c0 49.333 14.667 98.666 44 147.999c32 52.667 77.667 100 137 142
c104.667 74.667 217 112 337 112c80 0 137.667 -16.333 173 -49c31.333 -28 47 -67.333 47 -118c0 -63.333 -21.333 -125 -64 -185c-26 -36 -61.333 -76.333 -106 -121c-56 -56 -94.333 -96 -115 -120c-62.667 -74 -94 -131.333 -94 -172c0 -26.667 12 -40 36 -40
c34 0 94 30 180 90c68.667 48 125 93.333 169 136l204 198c15.333 14 30.666 21 45.999 21c29.333 0 44 -18 44 -54zM703.998 -129.001c-22 2.66699 -44.333 4 -67 4c-77.333 0 -148.333 -13 -213 -39c-55.333 -22.667 -100.333 -49.667 -135 -81s-52 -59.333 -52 -84
c0 -24 14 -36 42 -36c42.667 0 102 19.667 178 59c86 45.333 168.333 104.333 247 177z" />
    <glyph glyph-name="Z" unicode="Z" horiz-adv-x="660" 
d="M772 697c0 -45.333 -17.667 -95.667 -53 -151c-40 -63.333 -97.333 -122.666 -172 -177.999c24 -11.333 40.667 -27 50 -47c8 -16 12 -34.333 12 -55c0 -56.667 -26.667 -127.667 -80 -213c-43.333 -68 -92 -129.333 -146 -184c26.667 -12 45.334 -23.333 56.001 -34
c7.33301 -7.33301 7.66602 -14 0.999023 -20c-8.66699 -8 -17.5 -7 -26.5 3s-26.5 19.667 -52.5 29c-97.333 -96 -208.333 -164 -333 -204c-36.667 -11.333 -78.334 -17 -125.001 -17c-94 0 -139 25.667 -135 77c4 58 59 107.667 165 149c88 34.667 170 52 246 52
c60 0 115.333 -7.33301 166 -22c40.667 44.667 77 95.334 109 152.001c39.333 70 59 129 59 177c0 42.667 -17.667 76.334 -53 101.001c-104 -59.333 -193 -89 -267 -89c-27.333 0 -43.666 5.66699 -48.999 17c-4 7.33301 -6 14.666 -6 21.999
c0 39.333 41.667 73.666 125 102.999c47.333 16.667 101.666 25 162.999 25c35.333 0 65.666 -3.66699 90.999 -11c65.333 47.333 119 101 161 161s63 111.667 63 155c0 63.333 -51 95 -153 95c-42 0 -85 -5.66699 -129 -17c-85.333 -22 -157.666 -56.667 -216.999 -104
c-56.667 -45.333 -85 -89.333 -85 -132c0 -11.333 2.66699 -22.333 8 -33c14.667 -28 45 -42 91 -42c32 0 68 6.66699 108 20c36.667 12.667 68.334 28 95.001 46c17.333 12 27.666 15 30.999 9c4.66699 -8 -0.666016 -16.667 -15.999 -26c-30 -20 -66 -37 -108 -51
c-47.333 -16 -90.333 -24 -129 -24c-56 0 -95.333 17.333 -118 52c-13.333 20 -20 42 -20 66c0 50 27.167 99.167 81.5 147.5s120.833 82.166 199.5 101.499c62 16 120 24 174 24c56 0 102.667 -8 140 -24c52 -22 78 -57.333 78 -106zM431 326.999
c-23.333 9.33301 -51 14 -83 14c-22.667 0 -45 -2.33301 -67 -7c-30.667 -6 -56.5 -15.833 -77.5 -29.5s-29.5 -26.167 -25.5 -37.5c2.66699 -7.33301 12 -11 28 -11c55.333 0 130.333 23.667 225 71zM327 -139.001c-46 12.667 -94.999 19 -146.999 19
c-46 0 -91.667 -5.33301 -137 -16c-59.333 -14 -109.666 -34.833 -150.999 -62.5s-64 -54.167 -68 -79.5c-3.33301 -20.667 6 -36.667 28 -48c19.333 -10 46 -15 80 -15c31.333 0 62.666 4.33301 93.999 13c107.333 29.333 207.666 92.333 300.999 189z" />
    <glyph glyph-name="bracketleft" unicode="[" horiz-adv-x="499" 
d="M764 826l-21 -34h-82l-600 -940h81l-17 -28h-138l640 1002h137z" />
    <glyph glyph-name="backslash" unicode="\" horiz-adv-x="408" 
d="M348 -75h-34l-249 919h33z" />
    <glyph glyph-name="bracketright" unicode="]" horiz-adv-x="572" 
d="M683 824l-639 -1002h-137l22 34h82l595 938h-81l20 30h138z" />
    <glyph glyph-name="asciicircum" unicode="^" horiz-adv-x="532" 
d="M501 407h-36l-15 344l-317 -344h-48l360 390h37z" />
    <glyph glyph-name="underscore" unicode="_" horiz-adv-x="596" 
d="M525 -139h-505v47h505v-47z" />
    <glyph glyph-name="grave" unicode="`" horiz-adv-x="211" 
d="M234 792c0 -4 -1.66797 -6 -5.00098 -6c-58 34.667 -97.333 58.667 -118 72c-9.33301 6 -13.666 14.667 -12.999 26c1.33301 16 9.33301 24 24 24c7.33301 0 14.333 -2.33301 21 -7c23.333 -32.667 44 -59 62 -79l17 -15c8 -7.33301 12 -12.333 12 -15z" />
    <glyph glyph-name="a" unicode="a" 
d="M575 211c-28.667 -34.667 -73.6709 -75.0049 -135.004 -121.005c-88 -65.333 -149 -95.666 -183 -90.999c-36 4.66699 -54 25.334 -54 62.001c0 8.66699 1.33301 17.667 4 27c-53.333 -61.333 -99.666 -91 -138.999 -89c-41.333 2 -62 27.333 -62 76
c0 45.333 21.333 95 64 149s93.334 98.667 152.001 134c54 31.333 99.667 47 137 47c16 0 28.667 -3.66699 38 -11s13 -18.666 11 -33.999c15.333 15.333 24.666 24.333 27.999 27s8 4.33398 14 5.00098c6.66699 1.33301 12 1.33301 16 0c4 -0.666992 5 -2.66699 3 -6
l-112 -165c-47.333 -73.333 -73 -125.666 -77 -156.999c-3.33301 -20 2.33398 -30 17.001 -30c25.333 0 72 27.667 140 83c60.667 48.667 101.334 86 122.001 112c2.66699 3.33301 6.33398 5 11.001 5c8 0 12 -3.33301 12 -10c0 -4 -2.33301 -8.33301 -7 -13z
M372.996 317.995c8 10 12.002 21.665 12.002 34.998c0 20 -9.66699 30 -29 30c-20.667 0 -47 -10.333 -79 -31c-34.667 -22 -68 -51.333 -100 -88c-72 -81.333 -108 -148.666 -108 -201.999c0 -22.667 7.66699 -34 23 -34c17.333 0 44.666 18 81.999 54
c31.333 30 59.666 62 84.999 96c32 42.667 70 89.334 114 140.001z" />
    <glyph glyph-name="b" unicode="b" horiz-adv-x="457" 
d="M554 218c-4.66699 -8.66699 -22.501 -27.1641 -53.501 -55.4971s-59.5 -52.166 -85.5 -71.499c-40 -30.667 -76 -46 -108 -46c-11.333 0 -23.333 1.66699 -36 5c-46.667 -40.667 -90.334 -61 -131.001 -61c-23.333 0 -44.333 7.33301 -63 22
c-20.667 16 -31 43.333 -31 82c0 50 17 114.667 51 194c31.333 73.333 71 145.666 119 216.999c60.667 90 121.5 165.5 182.5 226.5s107.5 91.5 139.5 91.5c16 0 24 -7.33301 24 -22c0 -26 -23.333 -75 -70 -147c-40 -62.667 -86.667 -126.334 -140 -191.001
c-91.333 -110.667 -170.666 -192.667 -237.999 -246c-11.333 -34 -17 -63.333 -17 -88c0 -43.333 18.333 -65 55 -65c17.333 0 37.333 6 60 18c-22.667 21.333 -34 46.666 -34 75.999c0 45.333 21 94.166 63 146.499s84 78.5 126 78.5c10.667 0 20.667 -2.33301 30 -7
c19.333 -10 29 -29.333 29 -58c0 -36 -13 -78.333 -39 -127s-57.333 -88.667 -94 -120c5.33301 -0.666992 11 -1 17 -1c26.667 0 56.334 12.667 89.001 38c58 44 102 84.333 132 121c4 4.66699 8 7 12 7s7.33301 -2.16699 10 -6.5s3 -7.83301 1 -10.5zM511.999 769.003
c-18.667 0 -50.001 -22.998 -94.001 -68.998c-50.667 -52.667 -105.667 -124.334 -165 -215.001c-52 -78 -92 -151 -120 -219c60.667 54.667 126.334 125 197.001 211c128 157.333 192 251.666 192 282.999c0 6 -3.33301 9 -10 9zM364.998 361.005
c-18 0 -38.832 -9.50195 -62.499 -28.502s-44.834 -43.833 -63.501 -74.5c-22 -36 -33 -68.667 -33 -98c0 -25.333 9.66699 -46.666 29 -63.999c19.333 13.333 38 29.333 56 48c21.333 22 43 52.667 65 92c24 42.667 36 75.334 36 98.001c0 18 -9 27 -27 27z" />
    <glyph glyph-name="c" unicode="c" horiz-adv-x="398" 
d="M492 233c6.66699 -4.66699 6.33008 -11.665 -1.00293 -20.998c-28.667 -37.333 -81.667 -83.666 -159 -138.999c-74 -53.333 -137 -80 -189 -80c-9.33301 0 -19 1 -29 3c-62 9.33301 -93 42.333 -93 99c0 38 15.833 81.167 47.5 129.5s73.5 89.5 125.5 123.5
c48.667 32.667 90.667 49 126 49s53 -16.333 53 -49c0 -23.333 -10.333 -50 -31 -80c-2 -3.33301 -5.66699 -5 -11 -5c-6 0.666992 -13.333 3.66699 -22 9s-14 9.66602 -16 12.999c-1.33301 4.66699 0.833984 8.66699 6.50098 12s12.834 10.666 21.501 21.999
c10 14 15 25.667 15 35c0 13.333 -8.33301 20 -25 20c-20.667 0 -44.667 -10.667 -72 -32c-32 -23.333 -62 -56.333 -90 -99c-33.333 -50.667 -50 -97.334 -50 -140.001c0 -53.333 21.667 -80 65 -80c44 0 98.667 24.667 164 74c62.667 48 110.334 91.333 143.001 130
c7.33301 8.66699 14.333 10.667 21 6z" />
    <glyph glyph-name="d" unicode="d" horiz-adv-x="482" 
d="M755 784c0 -50.667 -44.668 -134.333 -134.001 -251c-54.667 -72 -146.667 -176.667 -276 -314c-43.333 -78 -65 -131.667 -65 -161c0 -16 5.66699 -24 17 -24c26 0 72.333 27.333 139 82c55.333 45.333 96.333 82.666 123 111.999c3.33301 3.33301 7 5 11 5
c6.66699 0 10 -3.66699 10 -11c0 -4 -1.66699 -8 -5 -12c-34 -36.667 -78 -75.667 -132 -117c-82 -62.667 -142 -94 -180 -94c-16 0 -29 4.33301 -39 13c-18 16 -24.333 38 -19 66c-60 -53.333 -105 -80 -135 -80c-14 0 -27.333 5 -40 15
c-16.667 12.667 -25 33.334 -25 62.001c0 48 27.333 104.333 82 169c44.667 52.667 95.334 94 152.001 124c48 24.667 89 37 123 37c12.667 0 22 -2 28 -6l132 210c88 141.333 153.333 212 196 212c24.667 0 37 -12.333 37 -37zM714.999 786.001c-20 0 -64 -56 -132 -168
l-135 -230l-45 -72c86 94 151 169.333 195 226c32 42 60.667 84.667 86 128c28 48 42 81.667 42 101c0 10 -3.66699 15 -11 15zM375.999 376.001c-6.66699 4.66699 -13.998 7 -21.998 7c-24.667 0 -57.834 -15.833 -99.501 -47.5s-78.834 -68.5 -111.501 -110.5
c-50 -64.667 -75 -118.667 -75 -162c0 -24 8 -36 24 -36c20.667 0 64.667 35 132 105l68 110z" />
    <glyph glyph-name="e" unicode="e" horiz-adv-x="408" 
d="M503 233c6.66699 -5.33301 4.99902 -13.999 -5.00098 -25.999c-32 -38 -83 -81.667 -153 -131c-84 -59.333 -159.667 -89 -227 -89c-25.333 0 -46.666 5.33301 -63.999 16c-27.333 17.333 -41 44 -41 80c0 59.333 31.667 121.666 95 186.999
c38.667 39.333 81.667 71.666 129 96.999s87 38 119 38c30 0 45 -9 45 -27s-15.333 -44 -46 -78c-27.333 -29.333 -56 -54.666 -86 -75.999c-51.333 -36.667 -105.666 -61 -162.999 -73c-6.66699 -20.667 -10 -39 -10 -55c0 -25.333 8.33301 -44 25 -56
c14.667 -10 32 -15 52 -15c44 0 96.333 21.667 157 65c58.667 42 108 86 148 132c11.333 12 19.666 15.667 24.999 11zM359.999 383.001c-18 0 -43.999 -10.002 -77.999 -30.002c-36 -21.333 -69.333 -47.666 -100 -78.999c-26 -26.667 -47.667 -59 -65 -97
c45.333 12 91 34 137 66c29.333 20.667 57.166 44.334 83.499 71.001s39.5 46 39.5 58c0 7.33301 -5.66699 11 -17 11z" />
    <glyph glyph-name="f" unicode="f" horiz-adv-x="328" 
d="M571 787c0 -66.667 -69.9971 -188.668 -209.997 -366.001c-107.333 -134.667 -206.333 -228.667 -297 -282l-20 -38c2 -38 15 -60.667 39 -68c10.667 -3.33301 21 -5 31 -5c36.667 0 87 25 151 75c66.667 52.667 112 93.334 136 122.001c4 6 9 9 15 9
c4.66699 0 7.66699 -2 9 -6c2 -4 0.666992 -9 -4 -15c-10 -13.333 -32.167 -35 -66.5 -65s-61.5 -52.333 -81.5 -67c-42.667 -29.333 -68.334 -46.666 -77.001 -51.999c-39.333 -22.667 -73 -33.334 -101 -32.001c-37.333 2 -66 14 -86 36l-196 -367
c-26 -10 -59.667 -20.333 -101 -31c-8.66699 0 -13 2.33301 -13 7c-0.666992 4.66699 2.33301 9 9 13c13.333 9.33301 27 24.333 41 45c9.33301 14 121.666 199.667 336.999 557c229.333 382 378.666 573 447.999 573c24.667 0 37 -14.333 37 -43zM515.003 780.999
c-34.667 0 -107.667 -80.332 -219 -240.999c-54 -78 -113.667 -178.333 -179 -301l-22 -41c83.333 58 165 137.667 245 239c42 53.333 82.333 111.666 121 174.999c46.667 74.667 70 125 70 151c0 12 -5.33301 18 -16 18z" />
    <glyph glyph-name="g" unicode="g" horiz-adv-x="457" 
d="M554 218c-20 -29.333 -71 -75.3369 -153 -138.004c-52 -40 -114.333 -73 -187 -99c-49.333 -77.333 -94 -142 -134 -194s-83 -92 -129 -120c-38.667 -23.333 -72.667 -35 -102 -35c-30 0 -45 14 -45 42c0 22.667 9.5 49.834 28.5 81.501s45.167 62.5 78.5 92.5
c62.667 54.667 148 101.667 256 141c20.667 40 37 73.667 49 101c-57.333 -62.667 -106.333 -93 -147 -91c-41.333 2 -62 27.333 -62 76c0 45.333 21.333 95 64 149s93.334 98.667 152.001 134c54 31.333 99.667 47 137 47c16 0 28.667 -3.66699 38 -11
s13 -18.666 11 -33.999c15.333 15.333 24.666 24.333 27.999 27s8 4.33398 14 5.00098c6.66699 1.33301 12 1.33301 16 0c4 -0.666992 5 -2.66699 3 -6c-9.33301 -13.333 -87.333 -136.666 -234 -369.999c68 28.667 119.667 56.667 155 84c62.667 48 110.667 92 144 132
c4 4 9.66699 4 17 0c6 -3.33301 6.66699 -8 2 -14zM374 317.996c8 10 12.002 21.665 12.002 34.998c0 20 -9.66699 30 -29 30c-20.667 0 -47 -10.333 -79 -31c-34.667 -22 -68 -51.333 -100 -88c-72 -81.333 -108 -148.666 -108 -201.999c0 -22.667 7.66699 -34 23 -34
c17.333 0 44.666 18 81.999 54c31.333 30 59.666 62 84.999 96c32 42.667 70 89.334 114 140.001zM152.002 -41.0059c-84.667 -32.667 -153.667 -72.002 -207 -118.002c-26 -23.333 -48 -49.166 -66 -77.499s-27 -51.833 -27 -70.5c0 -19.333 8.33301 -29 25 -29
c19.333 0 45 11.333 77 34c35.333 26 67.833 58.333 97.5 97s63.167 93.334 100.5 164.001z" />
    <glyph glyph-name="h" unicode="h" horiz-adv-x="434" 
d="M580 786c0 -27.333 -15.3359 -65.999 -46.0029 -115.999c-27.333 -44.667 -57.333 -83.667 -90 -117c-60.667 -61.333 -120 -105 -178 -131l-68 -96c60 47.333 110.667 71 152 71c38 0 57 -16.333 57 -49c0 -31.333 -16 -65.333 -48 -102
c-82 -93.333 -125.667 -157.333 -131 -192c-0.666992 -6 1 -10.833 5 -14.5s10.667 -4.83398 20 -3.50098c25.333 3.33301 67 27.666 125 72.999c48 38 90.667 76.667 128 116c5.33301 6.66699 11 10 17 10c4.66699 0 7.66699 -2.33301 9 -7
c1.33301 -5.33301 -0.666992 -10.666 -6 -15.999c-26.667 -32.667 -67 -69.667 -121 -111c-87.333 -66 -148.333 -99.667 -183 -101c-19.333 0 -36.666 5.5 -51.999 16.5s-23.666 26.167 -24.999 45.5c-1.33301 39.333 27 83.666 85 132.999c92.667 78 139 131.667 139 161
c0 12.667 -8 19 -24 19c-20 0 -50.333 -13.667 -91 -41c-65.333 -44 -114.666 -88.333 -147.999 -133c-47.333 -67.333 -97.333 -135 -150 -203c-6 -1.33301 -13.833 -0.333008 -23.5 3s-14.167 7 -13.5 11c1.33301 10.667 48.333 78.334 141 203.001l189 268
c78.667 112.667 142.667 200.667 192 264c38.667 49.333 74 74 106 74c22 0 33 -11.667 33 -35zM536.997 781.001c-23.333 0 -75 -61.334 -155 -184.001l-85 -127c39.333 20 83.333 54 132 102c30 29.333 57.333 64.333 82 105s37 70.334 37 89.001c0 10 -3.66699 15 -11 15
z" />
    <glyph glyph-name="i" unicode="i" horiz-adv-x="263" 
d="M330 563c6.66699 0 10.001 -4.33398 10.001 -13.001c0 -11.333 -5 -25.666 -15 -42.999c-20.667 -37.333 -40.334 -56 -59.001 -56c-6.66699 0 -10 4.66699 -10 14c0 11.333 5 25.333 15 42c21.333 37.333 41 56 59 56zM355.001 210.999
c-28.667 -34.667 -73.6699 -75.0029 -135.003 -121.003c-88 -65.333 -149 -95.666 -183 -90.999c-36 4.66699 -54 25.334 -54 62.001c0 7.33301 0.666992 14.333 2 21c6.66699 30 38 81 94 153c20 25.333 46.333 56.333 79 93c31.333 34 51 54 59 60
c2.66699 2 7 3.33301 13 4c6.66699 1.33301 12 1.33301 16 0c4 -0.666992 5 -2.66699 3 -6l-112 -165c-47.333 -73.333 -73 -125.666 -77 -156.999c-3.33301 -20 2.33398 -30 17.001 -30c25.333 0 72 27.667 140 83c60.667 48.667 101.334 86 122.001 112
c2.66699 3.33301 6.33398 5 11.001 5c8 0 12 -3.33301 12 -10c0 -4 -2.33301 -8.33301 -7 -13z" />
    <glyph glyph-name="j" unicode="j" horiz-adv-x="230" 
d="M315 563c6.66699 0 10.001 -4.33398 10.001 -13.001c0 -11.333 -5 -25.666 -15 -42.999c-20.667 -37.333 -40.334 -56 -59.001 -56c-6.66699 0 -10 4.66699 -10 14c0 11.333 5 25.333 15 42c21.333 37.333 41 56 59 56zM327.001 217.999
c-20 -29.333 -71 -75.334 -153 -138.001c-52 -40 -114.333 -73 -187 -99c-49.333 -77.333 -94 -142 -134 -194s-83 -92 -129 -120c-38.667 -23.333 -72.667 -35 -102 -35c-30 0 -45 14 -45 42c0 22.667 9.5 49.834 28.5 81.501s45.167 62.5 78.5 92.5
c62.667 54.667 148 101.667 256 141c35.333 72 62.333 123.333 81 154c44 73.333 86.333 134 127 182c28 33.333 49 54.333 63 63c2.66699 1.33301 7 2.66602 13 3.99902c6.66699 0.666992 12 0.666992 16 0s5 -2.66699 3 -6
c-9.33301 -13.333 -87.333 -136.666 -234 -369.999c68 28.667 119.667 56.667 155 84c62.667 48 110.667 92 144 132c4 4 9.66699 4 17 0c6 -3.33301 6.66699 -8 2 -14zM-74.999 -41.002c-84.667 -32.667 -153.667 -72.002 -207 -118.002
c-26 -23.333 -48 -49.166 -66 -77.499s-27 -51.833 -27 -70.5c0 -19.333 8.33301 -29 25 -29c19.333 0 45 11.333 77 34c35.333 26 67.833 58.333 97.5 97s63.167 93.334 100.5 164.001z" />
    <glyph glyph-name="k" unicode="k" horiz-adv-x="486" 
d="M577 211c-11.333 -18 -49.6689 -53.334 -115.002 -106.001c-90 -72 -160.667 -108 -212 -108c-16 0 -29.333 4.66699 -40 14s-16 22 -16 38c0 14 4 25.333 12 34c23.333 23.333 35 41 35 53c0 4.66699 -1.33301 9 -4 13c-5.33301 6.66699 -14.666 10.667 -27.999 12
c-22.667 -10.667 -41.667 -17 -57 -19c-9.33301 -1.33301 -16.833 0.5 -22.5 5.5s-8.16699 10.833 -7.5 17.5c2 10 14 16 36 18c6.66699 0.666992 16.334 1 29.001 1c38 13.333 74.333 33.333 109 60c66 51.333 99 89.666 99 114.999c0 9.33301 -6 14 -18 14
c-27.333 0 -67.333 -18.333 -120 -55c-24 -16 -58.333 -45 -103 -87c-47.333 -44 -80.333 -78.333 -99 -103c-31.333 -43.333 -64.333 -86.666 -99 -129.999c-6 -1.33301 -13.833 -0.333008 -23.5 3s-14.167 7 -13.5 11c1.33301 10.667 48.333 78.334 141 203.001l189 268
c78.667 112.667 142.667 200.667 192 264c38.667 49.333 74 74 106 74c22 0 33 -11.667 33 -35c0 -27.333 -15.333 -66 -46 -116c-27.333 -44.667 -57.333 -83.667 -90 -117c-60.667 -61.333 -120 -105 -178 -131l-111 -155l49 42c22.667 18.667 45 34.334 67 47.001
c56 33.333 105.333 50 148 50c32 0 48 -10.667 48 -32c0 -38 -45.667 -87.333 -137 -148c-28 -18.667 -56.333 -34.667 -85 -48c24.667 -4.66699 40 -13.334 46 -26.001c2.66699 -6.66699 4 -13.667 4 -21c0 -9.33301 -2.66699 -20 -8 -32l-13 -25
c-5.33301 -11.333 -8 -19.666 -8 -24.999c0 -10 7.66699 -14.667 23 -14c36.667 2 87.667 30 153 84c59.333 49.333 97.333 83.666 114 102.999c6 7.33301 12.333 11 19 11c5.33301 0 8 -2.66699 8 -8c0 -4 -2 -8.66699 -6 -14zM536.997 780.999
c-23.333 0 -75 -61.334 -155 -184.001l-85 -127c39.333 20 83.333 54 132 102c30 29.333 57.333 64.333 82 105s37 70.334 37 89.001c0 10 -3.66699 15 -11 15z" />
    <glyph glyph-name="l" unicode="l" horiz-adv-x="330" 
d="M619 793c0 -54 -76.666 -167.002 -229.999 -339.002c-104.667 -117.333 -193.667 -199 -267 -245c-24 -53.333 -36 -94.666 -36 -123.999c0 -35.333 14.667 -53 44 -53c31.333 0 81.333 27 150 81c43.333 34 83 70.333 119 109c6.66699 8 13.334 12 20.001 12
c6 0 9 -3 9 -9c0 -19.333 -50.667 -67 -152 -143c-81.333 -62 -146.333 -93 -195 -93c-10.667 0 -20.334 1.66699 -29.001 5c-26.667 10 -40 32 -40 66c0 80.667 70.667 219.334 212 416.001c165.333 231.333 285.666 347 360.999 347c22.667 0 34 -10 34 -30z
M567.001 779.998c-27.333 6 -77.334 -31.6689 -150.001 -113.002c-61.333 -69.333 -115.666 -141.666 -162.999 -216.999c-38.667 -61.333 -76 -127.666 -112 -198.999c75.333 59.333 153 133.333 233 222c136 151.333 204 248 204 290c0 9.33301 -4 15 -12 17z" />
    <glyph glyph-name="m" unicode="m" horiz-adv-x="674" 
d="M766 212c-26.667 -32.667 -67.002 -69.6709 -121.002 -111.004c-88 -67.333 -149 -101 -183 -101c-19.333 0 -36.333 5.33301 -51 16s-22.667 25.667 -24 45c-3.33301 40 24.334 84.667 83.001 134c94 78 141 131 141 159c0 13.333 -8.66699 20 -26 20
c-20 0 -50.333 -13.333 -91 -40c-34 -22.667 -83 -69.667 -147 -141c-19.333 -21.333 -49.666 -58.666 -90.999 -111.999c-36.667 -47.333 -57.5 -73.166 -62.5 -77.499s-15.5 -8.33301 -31.5 -12s-29 -5.16699 -39 -4.5c-6 0.666992 -9.33301 2.66699 -10 6
c-1.33301 4 52.334 73 161.001 207l63 77c24 32 36 56 36 72c0 15.333 -9.33301 23 -28 23c-28.667 0 -72 -23 -130 -69c-53.333 -42 -94.333 -82.667 -123 -122c-42.667 -60.667 -88 -121.667 -136 -183c-6 -1.33301 -13.833 -0.333008 -23.5 3s-14.167 7 -13.5 11
c1.33301 10.667 48.333 78.334 141 203.001c81.333 110.667 126 169.334 134 176.001c3.33301 2.66699 11.666 4 24.999 4c13.333 0.666992 20.333 -0.666016 21 -3.99902l-51 -73c72.667 53.333 129 80 169 80c7.33301 0 15 -0.666992 23 -2c22.667 -4 34 -18.667 34 -44
c0 -18 -5.66699 -36.667 -17 -56c86.667 67.333 150.667 101 192 101c38 0 57 -16.333 57 -49c0 -31.333 -16 -65.333 -48 -102c-82 -93.333 -125.667 -157.333 -131 -192c-0.666992 -6 1 -10.833 5 -14.5s10.667 -4.83398 20 -3.50098c25.333 3.33301 67 27.666 125 72.999
c48 38 90.667 76.667 128 116c5.33301 6.66699 11 10 17 10c4.66699 0 7.66699 -2.33301 9 -7c1.33301 -5.33301 -0.666992 -10.666 -6 -15.999z" />
    <glyph glyph-name="n" unicode="n" horiz-adv-x="434" 
d="M526 212c-26.667 -32.667 -67.001 -69.6689 -121.001 -111.002c-88 -67.333 -149 -101 -183 -101c-19.333 0 -36.333 5.33301 -51 16s-22.667 25.667 -24 45c-3.33301 40 24.334 84.667 83.001 134c94 78 141 131 141 159c0 13.333 -8.66699 20 -26 20
c-20 0 -50.333 -13.333 -91 -40c-65.333 -44 -114.666 -88.333 -147.999 -133c-47.333 -67.333 -97.333 -135 -150 -203c-6 -1.33301 -13.833 -0.333008 -23.5 3s-14.167 7 -13.5 11c1.33301 10.667 48.333 78.334 141 203.001c81.333 110.667 126 169.334 134 176.001
c3.33301 2.66699 11.666 4 24.999 4c13.333 0.666992 20.333 -0.666016 21 -3.99902c0.666992 -4 -13.333 -25.667 -42 -65c60 47.333 110.667 71 152 71c38 0 57 -16.333 57 -49c0 -31.333 -16 -65.333 -48 -102c-82 -93.333 -125.667 -157.333 -131 -192
c-0.666992 -6 1 -10.833 5 -14.5s10.667 -4.83398 20 -3.50098c25.333 3.33301 67 27.666 125 72.999c48 38 90.667 76.667 128 116c5.33301 6.66699 11 10 17 10c4.66699 0 7.66699 -2.33301 9 -7c1.33301 -5.33301 -0.666992 -10.666 -6 -15.999z" />
    <glyph glyph-name="o" unicode="o" horiz-adv-x="464" 
d="M558 215c-53.333 -64 -101.668 -101.667 -145.001 -113c-18.667 -5.33301 -36 -8 -52 -8c-23.333 0 -43.333 5.33301 -60 16c-38 -37.333 -78.167 -67.5 -120.5 -90.5s-79.833 -34.5 -112.5 -34.5c-49.333 0 -74 24 -74 72c0 39.333 17.667 85 53 137
c39.333 57.333 88.666 106.5 147.999 147.5s111.333 61.5 156 61.5c49.333 0 74 -24 74 -72c0 -39.333 -17.667 -85 -53 -137c-14.667 -21.333 -31 -42 -49 -62c14.667 -8.66699 29 -13 43 -13c12.667 0 27.334 2.66699 44.001 8c38.667 12 81 45.333 127 100
c4.66699 4.66699 9.33398 7 14.001 7c7.33301 0 11 -3.33301 11 -10c0 -3.33301 -1.33301 -6.33301 -4 -9zM354.998 224c24.667 42 37.001 77.333 37.001 106c0 30.667 -13.667 46 -41 46c-30 0 -67 -17 -111 -51s-82.333 -75 -115 -123
c-34.667 -51.333 -52 -94.333 -52 -129c0 -30.667 14 -46 42 -46c44.667 0 98.667 32.667 162 98c-18 14.667 -27 31 -27 49c0 16 6.66699 29.333 20 40c16 12 34 18 54 18c13.333 0 23.666 -2.66699 30.999 -8z" />
    <glyph glyph-name="p" unicode="p" horiz-adv-x="473" 
d="M567 213c-32 -39.333 -80.3369 -82.001 -145.004 -128.001c-44.667 -32 -75 -52.333 -91 -61c-42.667 -24 -83.334 -36.667 -122.001 -38c-50 -2 -87.667 6.33301 -113 25s-41.666 48.334 -48.999 89.001l-38 -61c-57.333 -92.667 -113.666 -175.667 -168.999 -249
c-82 -109.333 -139.333 -164 -172 -164c-15.333 0 -23 9 -23 27c0 53.333 90 185.666 270 396.999c40 48 103 118.333 189 211c46.667 80.667 71.834 123.167 75.501 127.5s13.5 6.16602 29.5 5.49902c16 -1.33301 23.667 -4 23 -8
c-0.666992 -1.33301 -7.66699 -12.333 -21 -33c43.333 32 81.333 48 114 48c12 0 22.667 -2 32 -6c23.333 -10.667 35 -34.667 35 -72c0 -30 -7.33301 -66 -22 -108c-12.667 -35.333 -27 -65.666 -43 -90.999c-29.333 -46 -62.666 -81 -99.999 -105c19.333 0 41.333 5 66 15
c40 16 79.667 39.667 119 71c67.333 54 112 94 134 120c4.66699 5.33301 9.33398 8 14.001 8c7.33301 0 11 -3.33301 11 -10c0 -3.33301 -1.33301 -6.66602 -4 -9.99902zM315.996 375.999c-28 0 -78.333 -31.333 -151 -94l-96 -148c-2 -22 0.666992 -42.333 8 -61
c8.66699 -24.667 23 -37 43 -37c40 0 88.667 39 146 117c52.667 72.667 79 134.667 79 186c0 24.667 -9.66699 37 -29 37zM53.9961 173.999c-40.667 -44 -79.001 -89.334 -115.001 -136.001l-176 -225c-51.333 -68 -77 -110 -77 -126c0 -6.66699 2 -10 6 -10
c16.667 0 62 49 136 147c64.667 86.667 114.334 159.334 149.001 218.001z" />
    <glyph glyph-name="q" unicode="q" 
d="M575 211c-28.667 -34.667 -73.6699 -75.002 -135.003 -121.002c-32 -24 -56.333 -40.333 -73 -49c-26 -15.333 -54.333 -26.666 -85 -33.999c-4 -24 -16 -58.333 -36 -103c-23.333 -52.667 -47 -94.334 -71 -125.001c-78 -97.333 -138 -146 -180 -146
c-26 0 -39 16.667 -39 50c0 32 14.667 72.333 44 121c23.333 38.667 95.333 130.667 216 276c-59.333 -56 -108.666 -83 -147.999 -81c-41.333 1.33301 -62 26.666 -62 75.999c0 45.333 21.333 95 64 149s93.334 98.667 152.001 134c54 31.333 99.667 47 137 47
c16 0 28.667 -3.66699 38 -11s13 -18.666 11 -33.999c15.333 15.333 24.666 24.333 27.999 27s8 4.33398 14 5.00098c6.66699 1.33301 12 1.33301 16 0c4 -0.666992 5 -2.66699 3 -6l-112 -165c-4.66699 -7.33301 -39.667 -54.666 -105 -141.999
c18 -4.66699 27.333 -20 28 -46c46.667 8.66699 99 36.667 157 84c60.667 48 101.334 85.333 122.001 112c2.66699 3.33301 6.33398 5 11.001 5c8 0 12 -3.33301 12 -10c0 -4 -2.33301 -8.33301 -7 -13zM372.997 317.998c8 10 12 21.666 12 34.999c0 20 -9.66699 30 -29 30
c-20.667 0 -47 -10.333 -79 -31c-34.667 -22 -68 -51.333 -100 -88c-72 -81.333 -108 -148.666 -108 -201.999c0 -22.667 7.33301 -34 22 -34c29.333 0 85.333 50 168 150zM250.997 0.99707c-14 -2.66699 -32.668 -1.66797 -56.001 2.99902l-137 -184
c-29.333 -45.333 -44 -79.333 -44 -102c0 -16 6.33301 -24 19 -24c28.667 0 66.667 30.667 114 92c18.667 24.667 39.334 59.334 62.001 104.001c24.667 48.667 38.667 85.667 42 111z" />
    <glyph glyph-name="r" unicode="r" horiz-adv-x="375" 
d="M470 213c-22 -25.333 -65.002 -63.998 -129.002 -115.998c-80 -64.667 -149 -98.334 -207 -101.001c-54.667 -2 -82 15 -82 51c0 34 23 69.333 69 106c20.667 16 43.334 31.667 68.001 47c28 16.667 47.333 29 58 37c34 25.333 49.667 46 47 62
c-2 9.33301 -8.66699 17.666 -20 24.999c-12 5.33301 -23.667 11 -35 17c-8 4 -15.333 9.33301 -22 16l-79 -96c-39.333 -46 -69.333 -77.667 -90 -95c-7.33301 -6 -13.666 -9 -18.999 -9c-6 0 -9.33301 2.33301 -10 7c-0.666992 5.33301 2.33301 10.666 9 15.999
c13.333 11.333 45.666 46.333 96.999 105c45.333 52 69.333 84.333 72 97c-5.33301 10.667 -6.66602 21.667 -3.99902 33c6 22 17.333 33 34 33c19.333 0 27.333 -11.333 24 -34c-2 -10.667 -7.66699 -21.334 -17 -32.001c1.33301 -3.33301 8.66602 -9.16602 21.999 -17.499
s27 -15.833 41 -22.5c17.333 -12 25 -27.667 23 -47c-2.66699 -23.333 -23.667 -56.666 -63 -99.999l-103 -110c-18 -21.333 -24.667 -39.333 -20 -54c1.33301 -3.33301 4.33301 -5.33301 9 -6c14.667 -2.66699 39.334 4.33301 74.001 21s70 39 106 67
c48 36.667 89.333 74 124 112c4.66699 5.33301 9.66699 8 15 8c8 0 12 -3.66699 12 -11c0 -2.66699 -1.33301 -5.66699 -4 -9z" />
    <glyph glyph-name="s" unicode="s" horiz-adv-x="321" 
d="M413 210c-21.333 -21.333 -44.332 -43.001 -68.999 -65.001s-51.334 -43.667 -80.001 -65c-90 -68.667 -165 -96.334 -225 -83.001c-50 10.667 -75 42.667 -75 96c0 20.667 5.33301 40.334 16 59.001c13.333 22 29 31.667 47 29l25.5 24l33.5 33
c22.667 20 50 47.333 82 82c4 6.66699 8.33301 19.334 13 38.001s11.667 34.667 21 48c12 18 25 27 39 27c14.667 0 22 -8.33301 22 -25c0 -16 -5.16699 -31.333 -15.5 -46s-25.166 -30.667 -44.499 -48c-2 -6.66699 0.666992 -28 8 -64c4.66699 -20.667 8 -39.167 10 -55.5
s3 -30.166 3 -41.499c0 -36.667 -10 -68.334 -30 -95.001c13.333 8 26.666 17 39.999 27l42 32c50.667 41.333 90.667 78 120 110c4 4.66699 8 7 12 7c7.33301 0 11 -3.66699 11 -11c0 -4.66699 -2 -9 -6 -13zM173.001 256.999c0 6 -0.998047 14.6689 -2.99805 26.002
l-68 -65c-10.667 -10.667 -29.334 -28.334 -56.001 -53.001c2 -5.33301 3 -10 3 -14c0 -13.333 -4.66699 -23.666 -14 -30.999c-1.33301 0 -9 -3.33301 -23 -10c-7.33301 -4.66699 -13 -11 -17 -19c-1.33301 -5.33301 -2 -10 -2 -14c0 -28.667 14.333 -45.334 43 -50.001
c13.333 -2.66699 29.166 2.33301 47.499 15s35.5 32 51.5 58c25.333 43.333 38 95.666 38 156.999z" />
    <glyph glyph-name="t" unicode="t" horiz-adv-x="263" 
d="M402 617c-22 -29.333 -65.002 -90.333 -129.002 -183h73c8 0 12.667 -2 14 -6c0.666992 -4 -2 -8.33301 -8 -13s-13 -7 -21 -7h-76c-11.333 -18 -29.666 -45.667 -54.999 -83c-86 -128.667 -132.667 -215.667 -140 -261c-4 -20 2 -30 18 -30c5.33301 0 11 1.33301 17 4
c32.667 12.667 73.334 39 122.001 79c60.667 48.667 101.334 86 122.001 112c6.66699 8.66699 13.667 9 21 1c3.33301 -4.66699 1.66602 -11 -5.00098 -19c-28.667 -34.667 -73.667 -75 -135 -121c-88 -65.333 -149 -95.666 -183 -90.999
c-36.667 4.66699 -55 24.334 -55 59.001c0 7.33301 1 15.333 3 24c8 34 25 71.333 51 112c16.667 25.333 52 73.666 106 144.999l52 69h-70c-8.66699 0 -13 2.33301 -13 7c-0.666992 4.66699 2 9 8 13s13 6 21 6h74c82 106 134 167.667 156 185
c8.66699 7.33301 18.667 8.66602 30 3.99902c3.33301 -1.33301 4 -3.33301 2 -6z" />
    <glyph glyph-name="u" unicode="u" horiz-adv-x="463" 
d="M555 211c-28.667 -34.667 -73.668 -75.0068 -135.001 -121.007c-88 -65.333 -149 -95.666 -183 -90.999c-35.333 4.66699 -53.333 26 -54 64c-22 -18.667 -46 -34 -72 -46c-30.667 -14.667 -55.334 -20.667 -74.001 -18c-36 4.66699 -54 26.334 -54 65.001
c0 6 0.666992 12 2 18c6 32.667 37.333 83.667 94 153c80.667 98.667 125.334 150.334 134.001 155.001c5.33301 3.33301 11.666 5 18.999 5c8.66699 0.666992 13 -1.66602 13 -6.99902c0 -6 -12.333 -27 -37 -63c-39.333 -56.667 -63 -91.334 -71 -104.001
c-30.667 -48 -49 -77.333 -55 -88c-13.333 -25.333 -21 -47.666 -23 -66.999c-2.66699 -22 3.33301 -33 18 -33c5.33301 0 11.333 1.66699 18 5c53.333 22.667 119 85.334 197 188.001l121 164c5.33301 3.33301 11.666 5 18.999 5c8.66699 0.666992 13 -1.66602 13 -6.99902
c0 -6 -12.333 -27 -37 -63c-39.333 -56 -63 -90.667 -71 -104c-47.333 -73.333 -73 -125.666 -77 -156.999c-3.33301 -20 2.33398 -30 17.001 -30c25.333 0 72 27.667 140 83c60.667 48.667 101.334 86 122.001 112c2.66699 3.33301 6.33398 5 11.001 5
c8 0 12 -3.33301 12 -10c0 -4 -2.33301 -8.33301 -7 -13z" />
    <glyph glyph-name="v" unicode="v" horiz-adv-x="484" 
d="M578 230c4.66699 -6 4.33398 -12.3301 -0.999023 -18.9971c-22.667 -26.667 -53.5 -55 -92.5 -85s-74.167 -45 -105.5 -45c-34.667 0 -60 12.667 -76 38c-43.333 -40.667 -87.333 -72 -132 -94c-38.667 -18.667 -69.667 -27.334 -93 -26.001
c-22.667 1.33301 -40.834 8.66602 -54.501 21.999s-20.5 31 -20.5 53c0 30.667 19 76.667 57 138c19.333 30 49 67.667 89 113c35.333 39.333 57 61.666 65 66.999c3.33301 2 8 3 14 3c7.33301 -0.666992 11.666 -3.33398 12.999 -8.00098l-52 -85
c-40 -66 -70.667 -122.333 -92 -169c-8.66699 -18.667 -13 -37.334 -13 -56.001c0 -26.667 11.333 -40 34 -40c39.333 0 97 36 173 108c-3.33301 12 -5 25.333 -5 40c0 34.667 9 69.334 27 104.001s42 63.334 72 86.001c26 20 49.667 30 71 30c16 0 24 -7 24 -21
c0 -27.333 -20 -69.666 -60 -126.999c-31.333 -45.333 -63 -84.333 -95 -117c11.333 -22.667 31.333 -34 60 -34c28 0 61.667 17 101 51c28.667 25.333 53.334 49.333 74.001 72c6.66699 7.33301 12.667 7.66602 18 0.999023zM425 367.003c-24.667 0 -53.667 -31 -87 -93
c-18.667 -34.667 -26 -69.667 -22 -105c24 24.667 48.333 54.667 73 90c32 44.667 48 76.667 48 96c0 8 -4 12 -12 12z" />
    <glyph glyph-name="w" unicode="w" horiz-adv-x="645" 
d="M738 227c4.66699 -5.33301 4.00098 -11.335 -1.99902 -18.002c-22 -26.667 -52.667 -55 -92 -85s-74.333 -45 -105 -45c-34.667 0 -60.334 12.667 -77.001 38c-44.667 -42 -88 -73.667 -130 -95c-39.333 -20 -70.666 -28.333 -93.999 -25
c-36 4.66699 -54.333 26.667 -55 66c-22 -18.667 -46 -34 -72 -46c-30.667 -14.667 -55.334 -20.667 -74.001 -18c-35.333 4.66699 -53 26.667 -53 66c0 6 0.333008 11.667 1 17c4.66699 30.667 36 81.667 94 153l82.5 94.5c34.333 38.333 53.833 58.833 58.5 61.5
s10.667 4 18 4c8.66699 0.666992 13 -1.66602 13 -6.99902c0 -6.66699 -12.667 -27.5 -38 -62.5l-76 -104.5c-48.667 -70 -74.667 -121.667 -78 -155c-2.66699 -22 3.33301 -33 18 -33c5.33301 0 11.333 1.66699 18 5c53.333 22.667 119 85.334 197 188.001l121 164
c5.33301 3.33301 11.666 5 18.999 5c8.66699 0.666992 13 -1.66602 13 -6.99902c0 -6 -12.333 -27 -37 -63c-39.333 -56 -63 -90.667 -71 -104c-28 -44 -46.333 -74 -55 -90c-13.333 -24.667 -21 -45 -23 -61c-2.66699 -23.333 5 -35 23 -35c36.667 0 93 36 169 108
c-3.33301 12 -5 25 -5 39c0 35.333 8.66699 69.666 26 102.999c18.667 36 42.667 65.333 72 88c26.667 20 50.334 30 71.001 30c16 0 24 -7 24 -21c0 -28 -19.667 -70.333 -59 -127c-31.333 -45.333 -63.333 -84.333 -96 -117c12 -23.333 32.333 -35 61 -35
c28 0 61.667 17.333 101 52c28.667 25.333 53 49 73 71c6.66699 8 13 8.33301 19 1zM585.001 364.998c-25.333 0 -54.333 -31 -87 -93c-18.667 -34.667 -26 -69.667 -22 -105c24 24.667 48.333 54.667 73 90c31.333 44.667 47 76.667 47 96c0 8 -3.66699 12 -11 12z" />
    <glyph glyph-name="x" unicode="x" horiz-adv-x="514" 
d="M609 214c-27.333 -33.333 -78.332 -78.499 -152.999 -135.499s-135.667 -85.5 -183 -85.5c-39.333 0 -59 18.667 -59 56c0 12.667 2.33301 27 7 43c-59.333 -64.667 -114.333 -97 -165 -97c-34.667 0 -52 17.333 -52 52c0 20 6.5 36.667 19.5 50s27.167 20 42.5 20
c16 0 24 -7.33301 24 -22c0 -12 -4 -20 -12 -24c-12 -5.33301 -20.667 -4 -26 4c-2 2.66699 -4.66699 3.33398 -8 2.00098c-10 -3.33301 -15 -13.666 -15 -30.999c0 -19.333 8 -29 24 -29c14.667 0 34.667 10.833 60 32.5s50.5 49 75.5 82s46.167 71.5 63.5 115.5
c15.333 40 23 71.667 23 95c0 14.667 -4 22 -12 22c-6.66699 0 -16.667 -6.16699 -30 -18.5l-40 -38.5l-117 -112c-2.66699 -2.66699 -6 -4 -10 -4c-6.66699 0 -10 3.33301 -10 10c0 4.66699 2 9.66699 6 15l114 108c54.667 52.667 95 76.667 121 72
c23.333 -4 35 -26.667 35 -68c0 -16.667 -2.33301 -34.334 -7 -53.001c64.667 83.333 120.334 125 167.001 125c31.333 0 47 -14.333 47 -43c0 -23.333 -8.66699 -44.333 -26 -63c-19.333 -20 -36.666 -26.667 -51.999 -20c-10 4.66699 -15 11.667 -15 21
c0 15.333 7 23 21 23c7.33301 0 12.166 -2.5 14.499 -7.5s5.5 -6.83301 9.5 -5.5c6.66699 3.33301 12.5 10.166 17.5 20.499s7.5 19.5 7.5 27.5c0 15.333 -8.33301 23 -25 23c-51.333 0 -116.333 -61 -195 -183c-37.333 -58.667 -56 -104.667 -56 -138
c0 -18.667 5.33301 -30.334 16 -35.001c5.33301 -2.66699 11.666 -4 18.999 -4c39.333 0 93.666 25.667 162.999 77c27.333 20 58.333 46 93 78c30.667 28 50 46.667 58 56c6 8 12.667 9.33301 20 4c6 -4 6 -9.66699 0 -17z" />
    <glyph glyph-name="y" unicode="y" horiz-adv-x="457" 
d="M554 218c-20 -29.333 -71.001 -75.3389 -153.001 -138.006c-52 -40 -114.333 -73 -187 -99c-49.333 -77.333 -94 -142 -134 -194s-83 -92 -129 -120c-38.667 -23.333 -72.667 -35 -102 -35c-30 0 -45 14 -45 42c0 22.667 9.5 49.834 28.5 81.501s45.167 62.5 78.5 92.5
c62.667 54.667 148 101.667 256 141l53 109c-16 -16 -28.333 -27.667 -37 -35c-22 -18.667 -46.333 -34 -73 -46c-30 -14.667 -54.333 -20.667 -73 -18c-36 4.66699 -54 25.667 -54 63c0 6.66699 0.666992 13.334 2 20.001c6 32.667 37.333 83.667 94 153
c80.667 98.667 125.334 150.334 134.001 155.001c5.33301 3.33301 11.666 5 18.999 5c8.66699 0.666992 13 -1.66602 13 -6.99902c0 -6 -12.333 -27 -37 -63c-39.333 -56 -63 -90.667 -71 -104c-47.333 -73.333 -73 -125.666 -77 -156.999
c-3.33301 -20 2.33398 -30 17.001 -30c4.66699 0 10.667 1.33301 18 4c56 20 120.667 79.667 194 179c66 89.333 115.667 146.333 149 171c2.66699 2 7 3.33301 13 4c6.66699 1.33301 12 1.33301 16 0c4 -0.666992 5 -2.66699 3 -6
c-9.33301 -13.333 -87.333 -136.666 -234 -369.999c68 28.667 119.667 56.667 155 84c62.667 48 110.667 92 144 132c4 4 9.66699 4 17 0c6 -3.33301 6.66699 -8 2 -14zM151.999 -41.0059c-84.667 -32.667 -153.667 -72.002 -207 -118.002
c-26 -23.333 -48 -49.166 -66 -77.499s-27 -51.833 -27 -70.5c0 -19.333 8.33301 -29 25 -29c19.333 0 45 11.333 77 34c35.333 26 67.833 58.333 97.5 97s63.167 93.334 100.5 164.001z" />
    <glyph glyph-name="z" unicode="z" horiz-adv-x="418" 
d="M509 214c-29.333 -38 -70.667 -80.332 -124 -126.999c-64.667 -58 -119.334 -96 -164.001 -114c-46.667 -77.333 -104 -151.333 -172 -222c-82.667 -86 -149 -129 -199 -129c-31.333 0 -46.666 12 -45.999 36c0 46 49.667 108 149 186c66 51.333 148.333 100 247 146
c12.667 16 19 33.667 19 53c0 7.33301 -2.33301 13 -7 17c-63.333 -51.333 -116.333 -77 -159 -77c-26.667 0 -40 9.66699 -40 29c0 12.667 7.83301 26.5 23.5 41.5s34.834 26.833 57.501 35.5c25.333 9.33301 50.333 14 75 14c19.333 0 36.666 -2.66699 51.999 -8
c32 28.667 62.667 71 92 127c18 34 27 61.667 27 83c0 25.333 -12.667 39.333 -38 42c-24 2 -68.333 -21.667 -133 -71c-27.333 -20.667 -69 -58.667 -125 -114c-9.33301 -9.33301 -17.666 -11 -24.999 -5c-6.66699 4 -5.33398 10.667 3.99902 20
c17.333 18 61 57.333 131 118c85.333 67.333 151.333 101 198 101c37.333 0 56 -16 56 -48c0 -33.333 -22 -81.333 -66 -144c-36.667 -52.667 -71.667 -93.667 -105 -123c7.33301 -5.33301 11 -16.333 11 -33c0 -15.333 -3.33301 -28.333 -10 -39
c37.333 19.333 83.666 54 138.999 104c46.667 42 84.334 80.333 113.001 115c6 7.33301 12.333 8.66602 19 3.99902c6 -4.66699 6 -10.667 0 -18zM195.999 71.001c-10 4.66699 -21.668 7 -35.001 7c-17.333 0 -36.333 -3.66699 -57 -11
c-31.333 -12 -44.666 -26.333 -39.999 -43c2 -7.33301 8.33301 -11 19 -11c28 0 65.667 19.333 113 58zM177.998 -47.999c-58.667 -31.333 -120 -74.666 -184 -129.999c-32 -27.333 -60.667 -56.666 -86 -87.999c-27.333 -32.667 -41 -55.334 -41 -68.001
c0 -6.66699 4.33301 -10 13 -10c26 0 75.333 36.333 148 109c68 67.333 118 129.666 150 186.999z" />
    <glyph glyph-name="braceleft" unicode="{" horiz-adv-x="351" 
d="M685 827l-6.99902 -13.001c-22.667 4 -39.667 6 -51 6c-23.333 0 -45 -11.667 -65 -35c-8 -10 -21.333 -31.667 -40 -65l-144 -255c-22.667 -39.333 -48.334 -69.666 -77.001 -90.999c-26 -19.333 -61.667 -35.666 -107 -48.999l-5 -2c34 -20 51 -45.667 51 -77
c0 -20 -6.66699 -41.667 -20 -65l-137 -241c-17.333 -30.667 -26 -55 -26 -73c0 -34 34.667 -49 104 -45l-6 -13c-16 -2 -32.333 -3 -49 -3c-68.667 0 -103 22 -103 66c0 35.333 31.667 104.666 95 207.999s95 169 95 197c0 30.667 -24 46 -72 46l7 11c76 0 135 38 177 114
l139 255c48 88.667 106.333 133 175 133c17.333 0 39.333 -3 66 -9z" />
    <glyph glyph-name="bar" unicode="|" horiz-adv-x="450" 
d="M354 -109h-25v890h25v-890z" />
    <glyph glyph-name="braceright" unicode="}" horiz-adv-x="496" 
d="M525 770c0 -23.333 -9.66992 -52.667 -29.0029 -88l-138 -254c-14.667 -26.667 -22 -49 -22 -67c0 -32 24.333 -48 73 -48l-7 -14c-40 0 -74 -10.667 -102 -32c-22.667 -16.667 -45.667 -44.334 -69 -83.001l-129 -213c-32 -53.333 -57.667 -90 -77 -110
c-35.333 -38.667 -73.666 -58 -114.999 -58c-17.333 0 -35.666 2.66699 -54.999 8l7 14c16 -2.66699 27.667 -4 35 -4c23.333 0 47 15 71 45c4.66699 6.66699 20.667 32 48 76l134 218c25.333 41.333 52 73.5 80 96.5s63.667 40.833 107 53.5l5 2
c-39.333 16.667 -59 42 -59 76c0 17.333 5.66699 36 17 56l144 255c17.333 30.667 26 55.334 26 74.001c0 32.667 -32 47 -96 43l6 15c22.667 2.66699 39.334 4 50.001 4c63.333 0 95 -21.667 95 -65z" />
    <glyph glyph-name="asciitilde" unicode="~" horiz-adv-x="531" 
d="M507 372c-48 -38.667 -92.666 -58 -133.999 -58c-22.667 0 -54.334 9.16699 -95.001 27.5s-71.667 27.5 -93 27.5c-30.667 0 -63.667 -17 -99 -51l-21 28c40 40 80 60 120 60c23.333 0 55.333 -9.16699 96 -27.5s71.334 -27.5 92.001 -27.5
c35.333 0 71.666 16.333 108.999 49z" />
    <glyph glyph-name="nonbreakingspace" unicode="&#xa0;" horiz-adv-x="408" 
 />
    <glyph glyph-name="exclamdown" unicode="&#xa1;" horiz-adv-x="499" 
d="M457 656c-18.667 0 -28 10.001 -28 30.001c0 12 5 23.333 15 34s21.333 16 34 16c18.667 0 28 -9.66699 28 -29c0 -12.667 -5 -24.334 -15 -35.001s-21.333 -16 -34 -16zM452 625.001l-366 -615h-73l407 615h32z" />
    <glyph glyph-name="cent" unicode="&#xa2;" horiz-adv-x="500" 
d="M448 693l-59 -120.002c29.333 -3.33301 44 -19.666 44 -48.999c0 -23.333 -10.333 -49.666 -31 -78.999c-2 -3.33301 -5.33301 -5 -10 -5c-6.66699 0 -14.334 2.66699 -23.001 8s-13.667 10 -15 14c-2 4 -0.166992 7.66699 5.5 11s13.167 11.5 22.5 24.5
s14 24.167 14 33.5c0 10.667 -6.33301 16.667 -19 18l-173 -347c7.33301 -2.66699 15.333 -4 24 -4c30.667 0 67.667 14 111 42c32 20.667 55.667 39.667 71 57c8 8 15 9.66699 21 5c8.66699 -6 8.33398 -13 -0.999023 -21c-92 -79.333 -172.667 -116.333 -242 -111
l-64 -128c-6 -13.333 -11 -20 -15 -20c-11.333 0 -17 5 -17 15c0 1.33301 0.666992 3 2 5l66 133c-52.667 12.667 -79 45 -79 97c0 38 15.667 80.333 47 127c28.667 44 65.667 82.333 111 115c42.667 30.667 82 49.667 118 57l60 122c6.66699 13.333 12 20 16 20
c10.667 0 16 -5 16 -15c0 -2 -0.333008 -3.66699 -1 -5zM344 543.998c-46.667 -17.333 -91.333 -58.667 -134 -124c-33.333 -50.667 -50 -97.667 -50 -141c0 -27.333 7 -48.333 21 -63z" />
    <glyph glyph-name="sterling" unicode="&#xa3;" horiz-adv-x="909" 
d="M901 609c-5.33301 -22.667 -13.999 -41.666 -25.999 -56.999c-15.333 -20 -34 -30 -56 -30c-10.667 0 -19.334 3.5 -26.001 10.5s-8.66699 15.833 -6 26.5c4.66699 24 19 37 43 39c5.33301 -2 14.333 -2.66699 27 -2c14.667 4 22 17 22 39
c0 15.333 -6.16699 27.833 -18.5 37.5s-27.5 14.5 -45.5 14.5c-66.667 0 -154.667 -89.667 -264 -269h138l-20 -33h-138l-17 -28c-60 -97.333 -123.333 -171 -190 -221c50.667 -23.333 81 -37 91 -41c35.333 -13.333 68.333 -20 99 -20c36.667 0 70 8 100 24
c35.333 19.333 56.333 45.333 63 78c1.33301 6 2 11.333 2 16c0 13.333 -5 24 -15 32c-13.333 10 -19.666 15.667 -18.999 17c1.33301 8 6.33301 12 15 12c13.333 0 24.166 -6.33301 32.499 -19s12.5 -26.334 12.5 -41.001c0 -44.667 -22.667 -80.667 -68 -108
c-38 -23.333 -80.333 -35 -127 -35c-34.667 0 -71.334 7.33301 -110.001 22l-100 46c-54 -34 -106.333 -51 -157 -51c-55.333 0 -83 16 -83 48c0 4 0.333008 8.66699 1 14c8.66699 38 42.334 57 101.001 57c36.667 -0.666992 76.667 -9.66699 120 -27
c32 30 77.333 94.667 136 194l18 31h-92l20 33h93c125.333 193.333 245.333 290 360 290c58 0 87 -24.667 87 -74c0 -8 -1 -16.333 -3 -25zM261.001 137.001c-38.667 18 -73.332 27 -103.999 27c-42.667 -0.666992 -66.334 -12 -71.001 -34c-6 -25.333 17 -38 69 -38
c38 0 73.333 15 106 45z" />
    <glyph glyph-name="currency" unicode="&#xa4;" horiz-adv-x="848" 
d="M817 617c0 -6 -4.99805 -8.33105 -14.998 -6.99805h-9c-5.33301 -28.667 -18.333 -51.334 -39 -68.001c-16 -12.667 -33.333 -19 -52 -19c-24 0 -36 9 -36 27c0 27.333 19 48.666 57 63.999c14 6 30 10 48 12c-2 28 -24.333 42 -67 42
c-86.667 0 -184.334 -38.667 -293.001 -116c-48 -34 -89 -69.333 -123 -106h284l-24 -32h-287c-13.333 -17.333 -25 -34.666 -35 -51.999h306l-24 -32h-298c-14 -31.333 -21 -60.666 -21 -87.999c0 -23.333 5 -44 15 -62c26 -49.333 83.333 -74 172 -74
c24.667 0 48.334 2 71.001 6c64 12.667 121.667 34 173 64c38 22 66 44 84 66c8 9.33301 15 14 21 14c4 0 6 -2 6 -6c0 -6.66699 -4.66699 -14.667 -14 -24c-32.667 -32 -62.667 -56.667 -90 -74c-49.333 -30 -107.333 -52 -174 -66
c-36.667 -7.33301 -72.334 -11 -107.001 -11c-94.667 0 -161.334 25 -200.001 75c-20.667 25.333 -31 58.333 -31 99c0 26.667 5 53.667 15 81h-105l24 32h95c9.33301 17.333 20.333 34.666 33 51.999h-112l24 32h114c16 18.667 34.667 36.667 56 54
c72 61.333 151.667 109.666 239 144.999c76.667 30.667 143.667 46 201 46c32.667 0 56.667 -5.83301 72 -17.5s23.333 -27.167 24 -46.5c14.667 0 22 -3.33301 22 -10zM769.002 607.002c-24 -4.66699 -42.833 -12.167 -56.5 -22.5s-20.5 -20.5 -20.5 -30.5
c0 -2 0.333008 -3.66699 1 -5c6.66699 -9.33301 22 -5.33301 46 12c15.333 10.667 25.333 26 30 46z" />
    <glyph glyph-name="section" unicode="&#xa7;" horiz-adv-x="613" 
d="M605 641c0 -16.667 -5.99805 -31.3379 -17.998 -44.0049s-26 -19 -42 -19c-17.333 0 -26 8 -26 24c0 9.33301 3.66699 17.5 11 24.5s15.666 10.5 24.999 10.5c2.66699 0 6.33398 -0.666992 11.001 -2s8 -2 10 -2c10 0 15 5.33301 15 16c0 20 -20.333 30 -61 30
c-32 0 -62.667 -8 -92 -24s-44 -38.667 -44 -68c0 -14 5 -27.667 15 -41c3.33301 -4.66699 13.666 -15.667 30.999 -33c32.667 -32.667 49 -59.334 49 -80.001c0 -67.333 -50.333 -129.666 -151 -186.999c5.33301 -10.667 8 -22.667 8 -36c0 -38 -22.167 -74 -66.5 -108
s-92.833 -50.667 -145.5 -50c-34 0.666992 -61.5 9.33398 -82.5 26.001s-31.5 36.334 -31.5 59.001c0 18.667 5.66699 34.667 17 48s24.666 20 39.999 20c23.333 0 35 -11 35 -33c0 -10 -3.83301 -18.833 -11.5 -26.5s-16.834 -11.5 -27.501 -11.5
c-3.33301 0 -7.5 0.833008 -12.5 2.5s-8.5 2.5 -10.5 2.5c-8 0 -12 -4.66699 -12 -14c0 -14.667 9.16699 -27.167 27.5 -37.5s40.833 -15.5 67.5 -15.5c41.333 0 76.333 10.5 105 31.5s43 46.5 43 76.5c0 8.66699 -2.33301 16.834 -7 24.501s-17.667 23.834 -39 48.501
c-29.333 34.667 -44 65.334 -44 92.001c0 29.333 11.833 56.5 35.5 81.5s63.834 52.167 120.501 81.5c-8.66699 19.333 -13 35 -13 47c0 39.333 20 74.5 60 105.5s83.667 44.167 131 39.5c53.333 -5.33301 80 -25 80 -59zM426.002 387.996c0 16 -14 39.668 -42 71.001
c-14.667 16.667 -24.667 29 -30 37c-63.333 -39.333 -95 -79 -95 -119c0 -22.667 16.333 -53 49 -91c4.66699 -4.66699 11.667 -13 21 -25c64.667 37.333 97 79.666 97 126.999z" />
    <glyph glyph-name="dieresis" unicode="&#xa8;" horiz-adv-x="241" 
d="M258 814c-1.33301 -18 -11 -27 -29 -27s-26.667 9 -26 27c1.33301 18.667 11.333 28 30 28c18 0 26.333 -9.33301 25 -28zM154 814c-1.33301 -18 -11 -27 -29 -27s-26.667 9 -26 27c1.33301 18.667 11.333 28 30 28c18 0 26.333 -9.33301 25 -28z" />
    <glyph glyph-name="copyright" unicode="&#xa9;" horiz-adv-x="688" 
d="M650 394c0 -82.667 -29.333 -153.334 -88 -212.001s-129.334 -88 -212.001 -88s-153.334 29.333 -212.001 88s-88 129.334 -88 212.001c0 83.333 29.333 154.166 88 212.499s129.334 87.5 212.001 87.5s153.334 -29.167 212.001 -87.5s88 -129.166 88 -212.499zM625 394
c0 76 -26.833 140.833 -80.5 194.5s-118.5 80.5 -194.5 80.5s-140.833 -26.833 -194.5 -80.5s-80.5 -118.5 -80.5 -194.5s26.833 -140.833 80.5 -194.5s118.5 -80.5 194.5 -80.5s140.833 26.833 194.5 80.5s80.5 118.5 80.5 194.5zM508 586l-25.9971 -118.003h-8
c-3.33301 22 -13.333 41 -30 57c-18.667 17.333 -41 26 -67 26c-11.333 0 -23.333 -2 -36 -6c-32 -10 -59.333 -31.667 -82 -65c-24 -37.333 -35.667 -79.666 -35 -126.999c0.666992 -40 11.667 -70.667 33 -92c19.333 -20 43.666 -30 72.999 -30c14 0 27.667 2.33301 41 7
c8.66699 2.66699 19.667 12.334 33 29.001s25.333 25.334 36 26.001c1.33301 -0.666992 1.66602 -2.33398 0.999023 -5.00098l-14 -47c-34 -37.333 -78 -54.333 -132 -51c-36.667 2.66699 -65.834 17.334 -87.501 44.001s-32.5 60.334 -32.5 101.001
c0 21.333 3.33301 43.666 10 66.999c16.667 54.667 47.167 100.334 91.5 137.001s89.833 53.667 136.5 51c29.333 -1.33301 51.666 -10.333 66.999 -27c2.66699 -2.66699 5.33398 -3 8.00098 -1c2 1.33301 3.66699 3.66602 5 6.99902l6 17h9z" />
    <glyph glyph-name="guillemotleft" unicode="&#xab;" horiz-adv-x="309" 
d="M241 441l-6.99902 -35l-3 -4l-72 -50l50 -89l-14 -9l-64 112c-2 3.33301 -1 6.33301 3 9l100 69c2.66699 2 4.66699 2.66699 6 2c1.33301 0 1.66602 -1.66699 0.999023 -5zM141.001 441l-6.99902 -35l-3 -4l-72 -50l50 -89l-14 -9l-64 112c-2 3.33301 -1 6.33301 3 9
l100 69c2.66699 2 4.66699 2.66699 6 2c1.33301 0 1.66602 -1.66699 0.999023 -5z" />
    <glyph glyph-name="logicalnot" unicode="&#xac;" horiz-adv-x="1281" 
d="M1462 751c-2 -30.667 -18.998 -58.833 -50.998 -84.5s-64.333 -38.5 -97 -38.5c-4.66699 0 -6.66699 2.33301 -6 7c0 4 2.33301 5.66699 7 5c16 -2 37.833 5.16699 65.5 21.5s42.167 31.166 43.5 44.499c0 2.66699 -5 5 -15 7c-23.333 4.66699 -34.333 18 -33 40
c0.666992 12 5.66699 22.333 15 31s19.333 13 30 13c13.333 0.666992 23.666 -3.16602 30.999 -11.499s10.666 -19.833 9.99902 -34.5zM1253 787.001c0 -28 -17.6689 -65.6709 -53.002 -113.004c-32 -43.333 -65.333 -77 -100 -101c-62 -44 -127.333 -71 -196 -81
c-42.667 -74 -75.667 -127.667 -99 -161c-37.333 -54.667 -78.666 -104 -123.999 -148c102 -94 204 -142.333 306 -145c54.667 -1.33301 95 8 121 28c10 7.33301 18 10.333 24 9c8 -1.33301 8 -6.66602 0 -15.999c-44 -54 -105.333 -79.667 -184 -77
c-86 2.66699 -183 62.334 -291 179.001c-121.333 -108.667 -245.333 -166 -372 -172c-78.667 -3.33301 -143 13 -193 49s-75 81 -75 135c0 10 1 20.333 3 31c12 62.667 47.333 112.334 106 149.001c52 32.667 112 49 180 49c24.667 0 48.334 -2.33301 71.001 -7
c54 -11.333 106.333 -36 157 -74c24 -18 59.333 -50.333 106 -97c40 34.667 78 76.667 114 126c4 4.66699 35.333 50.334 94 137.001c-14 -0.666992 -28.667 -1 -44 -1c-14 0 -21 4 -21 12c0 10.667 8 15.667 24 15c20 -0.666992 39.667 -0.666992 59 0
c74.667 108 139.667 187.5 195 238.5s104.333 76.5 147 76.5c30 0 45 -13.667 45 -41zM1186 797.997c-30 0 -64.668 -20 -104.001 -60c-55.333 -54.667 -109.666 -127.667 -162.999 -219c60 10.667 112 31 156 61c42 28.667 76.667 63 104 103c24.667 36 37 65.667 37 89
c0 17.333 -10 26 -30 26zM616.999 204.997c-92.667 100.667 -179.334 157 -260.001 169c-17.333 2.66699 -34.666 4 -51.999 4c-60.667 0 -116 -16 -166 -48c-58 -36 -87 -83 -87 -141c0 -36 16.833 -66.167 50.5 -90.5s78.5 -36.5 134.5 -36.5c16 0 32.333 1 49 3
c124 15.333 234.333 62 331 140z" />
    <glyph glyph-name="registered" unicode="&#xae;" horiz-adv-x="548" 
d="M515 575c0 -59.333 -20.833 -109.833 -62.5 -151.5s-92.167 -62.5 -151.5 -62.5c-58.667 0 -108.834 20.833 -150.501 62.5s-62.5 92.167 -62.5 151.5c0 58.667 20.833 109 62.5 151s91.834 63 150.501 63c59.333 0 109.833 -21 151.5 -63s62.5 -92.333 62.5 -151z
M490 575c0 52 -18.5 96.5 -55.5 133.5s-81.5 55.5 -133.5 55.5s-96.333 -18.5 -133 -55.5s-55 -81.5 -55 -133.5s18.333 -96.5 55 -133.5s81 -55.5 133 -55.5s96.5 18.5 133.5 55.5s55.5 81.5 55.5 133.5zM408 467c-4.66699 -4 -14 -8.33398 -28 -13.001
c-15.333 0 -26.333 6.33301 -33 19l-51 94h-24l-21 -94c-0.666992 -4 2.33301 -6.66699 9 -8l27 -3l-1 -6h-109l1 5l28 4c6.66699 1.33301 10.334 4 11.001 8l49 222c1.33301 4.66699 -1 7.33398 -7 8.00098l-27 4l1 6h110c37.333 0 56 -18 56 -54
c0 -18.667 -6.5 -36.667 -19.5 -54s-28.167 -29 -45.5 -35l46 -85c4.66699 -9.33301 10.667 -15 18 -17c3.33301 0 6.66602 -0.333008 9.99902 -1zM364 660.999c0 23.333 -10.333 35 -31 35h-24c-6 0 -9.66699 -3.33301 -11 -10l-22 -100h35c15.333 0 28.333 9 39 27
c9.33301 15.333 14 31.333 14 48z" />
    <glyph glyph-name="macron" unicode="&#xaf;" horiz-adv-x="308" 
d="M269 832c-1.33301 -11.333 -8.66602 -17 -21.999 -17h-174c-13.333 0 -19.666 5.66699 -18.999 17c1.33301 11.333 8.66602 17 21.999 17h174c13.333 0 19.666 -5.66699 18.999 -17z" />
    <glyph glyph-name="macron" unicode="&#x2c9;" horiz-adv-x="308" 
d="M269 832c-1.33301 -11.333 -8.66602 -17 -21.999 -17h-174c-13.333 0 -19.666 5.66699 -18.999 17c1.33301 11.333 8.66602 17 21.999 17h174c13.333 0 19.666 -5.66699 18.999 -17z" />
    <glyph glyph-name="acute" unicode="&#xb4;" horiz-adv-x="205" 
d="M240 861c-0.666992 -10 -5.99902 -18 -15.999 -24c-21.333 -9.33301 -52.333 -23.666 -93 -42.999c-8 -4.66699 -20 -11 -36 -19h-2c-0.666992 0 -1.33398 -0.333008 -2.00098 -1c-3.33301 0 -4.66602 2 -3.99902 6c0 0.666992 1 2 3 4
c27.333 25.333 63.666 56.666 108.999 93.999c5.33301 4 12 6 20 6c15.333 0 22.333 -7.66699 21 -23z" />
    <glyph glyph-name="paragraph" unicode="&#xb6;" horiz-adv-x="619" 
d="M612 722l-20 -42h-59l-324 -680h-42l324 680h-87l-324 -680h-46l182 382c-78 3.33301 -117 37.333 -117 102c0 21.333 5.33301 44 16 68c21.333 50.667 57.333 91.667 108 123s105.667 47 165 47h224z" />
    <glyph glyph-name="periodcentered" unicode="&#xb7;" horiz-adv-x="293" 
d="M278 320c-2 -12 -7.16699 -22.167 -15.5 -30.5s-17.166 -12.5 -26.499 -12.5c-10 0 -17.667 4.16699 -23 12.5s-7 18.5 -5 30.5s7.16699 22.167 15.5 30.5s17.166 12.5 26.499 12.5c10 0 17.667 -4.16699 23 -12.5s7 -18.5 5 -30.5z" />
    <glyph glyph-name="periodcentered" unicode="&#x2219;" horiz-adv-x="293" 
d="M278 320c-2 -12 -7.16699 -22.167 -15.5 -30.5s-17.166 -12.5 -26.499 -12.5c-10 0 -17.667 4.16699 -23 12.5s-7 18.5 -5 30.5s7.16699 22.167 15.5 30.5s17.166 12.5 26.499 12.5c10 0 17.667 -4.16699 23 -12.5s7 -18.5 5 -30.5z" />
    <glyph glyph-name="cedilla" unicode="&#xb8;" horiz-adv-x="317" 
d="M211 -87c-2 -24.667 -17.334 -43 -46.001 -55c-22 -8.66699 -47.333 -13 -76 -13c-8.66699 0 -12.667 2.33301 -12 7c0 4 4.33301 6 13 6c18.667 0 37.834 5.5 57.501 16.5s30.167 25.167 31.5 42.5c1.33301 12.667 -7.33398 23.667 -26.001 33l32 50h23l-29 -46
c22.667 -7.33301 33.334 -21 32.001 -41z" />
    <glyph glyph-name="guillemotright" unicode="&#xbb;" horiz-adv-x="465" 
d="M438 330c2 -3.33301 0.999023 -6.33398 -3.00098 -9.00098l-101 -69c-2.66699 -2 -4.66699 -2.66699 -6 -2s-1.66602 2.33398 -0.999023 5.00098l7 35l3 5l73 49l-51 89l14 9zM337.999 329.999c2 -3.33301 0.999023 -6.33398 -3.00098 -9.00098l-101 -69
c-2.66699 -2 -4.66699 -2.66699 -6 -2s-1.66602 2.33398 -0.999023 5.00098l7 35l3 5l73 49l-51 89l14 9z" />
    <glyph glyph-name="questiondown" unicode="&#xbf;" horiz-adv-x="688" 
d="M622 649c-19.333 0 -29 10.999 -29 32.999c0 14 5 27.167 15 39.5s21.333 18.5 34 18.5c19.333 0 29 -11.333 29 -34c0 -13.333 -5 -26.166 -15 -38.499s-21.333 -18.5 -34 -18.5zM651 561.999c-4.66699 -38.667 -41.6689 -80.332 -111.002 -124.999l-152 -89
c-99.333 -70.667 -149 -142.334 -149 -215.001c0 -32.667 10.667 -59.334 32 -80.001s51.666 -31 90.999 -31c43.333 0 83.166 14.667 119.499 44s55.833 65.333 58.5 108c2 26 -3.5 46.333 -16.5 61s-30.833 21.667 -53.5 21c-22 -1.33301 -43 -8.33301 -63 -21
c-22.667 -14.667 -35 -32.667 -37 -54v-15c-0.666992 -6.66699 -3.66699 -10 -9 -10c-8 0 -11.333 8.66699 -10 26c2 26.667 16.667 50.334 44 71.001c25.333 19.333 51.333 29 78 29c31.333 0 56 -9.5 74 -28.5s26 -43.833 24 -74.5
c-3.33301 -50.667 -28.666 -94.334 -75.999 -131.001c-44 -34.667 -91.667 -52 -143 -52c-52 0 -93.833 15.833 -125.5 47.5s-45.5 73.5 -41.5 125.5c4 63.333 27 115.666 69 156.999c30.667 30 78.334 59 143.001 87c96 42.667 148 66.334 156 71.001
c43.333 24 66.333 51 69 81c0.666992 12.667 -3.16602 23 -11.499 31s-19.166 12 -32.499 12c-32 0 -49 -17 -51 -51c-0.666992 -4 -3.66699 -6 -9 -6c-6.66699 0 -9.33398 6 -8.00098 18c2.66699 43.333 26.334 65 71.001 65c21.333 0 38.833 -7.16699 52.5 -21.5
s19.5 -31.166 17.5 -50.499z" />
    <glyph glyph-name="Agrave" unicode="&#xc0;" horiz-adv-x="1188" 
d="M1334 753c-64 -93.333 -131.67 -202.338 -203.003 -327.005c18 -9.33301 32 -18.166 42 -26.499s12.667 -16.166 8 -23.499c-5.33301 -7.33301 -11.333 -8 -18 -2c-10 8.66699 -25 18.334 -45 29.001c-26.667 -48 -49.334 -91 -68.001 -129
c-46 -94 -69 -163.667 -69 -209c0 -38.667 17.667 -58 53 -58c32 0 59 13 81 39c5.33301 6.66699 9.66602 9.33398 12.999 8.00098c6.66699 -1.33301 5.83398 -7.66602 -2.49902 -18.999s-22.166 -22.333 -41.499 -33c-23.333 -12.667 -45.666 -19 -66.999 -19
c-14 0 -27 2.66699 -39 8c-41.333 20.667 -62 52.667 -62 96c0 34.667 11.333 79.334 34 134.001c17.333 41.333 57.333 109.666 120 204.999c-46.667 19.333 -92.334 34.333 -137.001 45l-177 -197c-72.667 -78.667 -138.334 -139.667 -197.001 -183
c-77.333 -56.667 -155.666 -93.334 -234.999 -110.001c-21.333 -4.66699 -44.333 -7 -69 -7c-60 0 -109.667 13 -149 39c-49.333 32 -74.666 80 -75.999 144c-1.33301 85.333 55.334 163 170.001 233c104.667 64 225.334 104.333 362.001 121c50 6.66699 99 10 147 10
c72 0 141.333 -7 208 -21c162 156 259.333 244.667 292 266c37.333 25.333 68.333 38 93 38c26.667 0 40 -9.66699 40 -29c0 -7.33301 -2.66699 -14.666 -8 -21.999zM1313 781.995c-2.66699 1.33301 -6.33301 2 -11 2c-14.667 0 -35.334 -7.33301 -62.001 -22
c-44 -25.333 -139.667 -115.333 -287 -270c46 -11.333 89.667 -26 131 -44c42.667 64 92.334 133.333 149.001 208c42 55.333 68.667 89.666 80 102.999c9.33301 10.667 9.33301 18.334 0 23.001zM894.998 479.995c-59.333 12 -121 17.999 -185 17.999
c-65.333 0 -133.333 -6.33301 -204 -19c-110.667 -20.667 -210.334 -58 -299.001 -112c-100 -61.333 -150 -125.666 -150 -192.999c0 -6.66699 0.333008 -13.667 1 -21c12 -69.333 63.667 -104 155 -104c39.333 0 80.333 6.33301 123 19c76 22 149.667 58.333 221 109
c52.667 36 116.334 90 191.001 162zM1311 859.994c0 -4 -1.66797 -6 -5.00098 -6c-58 34.667 -97.333 58.667 -118 72c-8.66699 6 -12.667 14.667 -12 26c0.666992 16 8.33398 24 23.001 24c7.33301 0 14.333 -2.33301 21 -7c23.333 -32.667 44 -59 62 -79
c6 -4.66699 11.667 -9.66699 17 -15c8.66699 -7.33301 12.667 -12.333 12 -15z" />
    <glyph glyph-name="Aacute" unicode="&#xc1;" horiz-adv-x="1188" 
d="M1334 753c-64 -93.333 -131.67 -202.338 -203.003 -327.005c18 -9.33301 32 -18.166 42 -26.499s12.667 -16.166 8 -23.499c-5.33301 -7.33301 -11.333 -8 -18 -2c-10 8.66699 -25 18.334 -45 29.001c-26.667 -48 -49.334 -91 -68.001 -129
c-46 -94 -69 -163.667 -69 -209c0 -38.667 17.667 -58 53 -58c32 0 59 13 81 39c5.33301 6.66699 9.66602 9.33398 12.999 8.00098c6.66699 -1.33301 5.83398 -7.66602 -2.49902 -18.999s-22.166 -22.333 -41.499 -33c-23.333 -12.667 -45.666 -19 -66.999 -19
c-14 0 -27 2.66699 -39 8c-41.333 20.667 -62 52.667 -62 96c0 34.667 11.333 79.334 34 134.001c17.333 41.333 57.333 109.666 120 204.999c-46.667 19.333 -92.334 34.333 -137.001 45l-177 -197c-72.667 -78.667 -138.334 -139.667 -197.001 -183
c-77.333 -56.667 -155.666 -93.334 -234.999 -110.001c-21.333 -4.66699 -44.333 -7 -69 -7c-60 0 -109.667 13 -149 39c-49.333 32 -74.666 80 -75.999 144c-1.33301 85.333 55.334 163 170.001 233c104.667 64 225.334 104.333 362.001 121c50 6.66699 99 10 147 10
c72 0 141.333 -7 208 -21c162 156 259.333 244.667 292 266c37.333 25.333 68.333 38 93 38c26.667 0 40 -9.66699 40 -29c0 -7.33301 -2.66699 -14.666 -8 -21.999zM1313 781.995c-2.66699 1.33301 -6.33301 2 -11 2c-14.667 0 -35.334 -7.33301 -62.001 -22
c-44 -25.333 -139.667 -115.333 -287 -270c46 -11.333 89.667 -26 131 -44c42.667 64 92.334 133.333 149.001 208c42 55.333 68.667 89.666 80 102.999c9.33301 10.667 9.33301 18.334 0 23.001zM894.998 479.995c-59.333 12 -121 17.999 -185 17.999
c-65.333 0 -133.333 -6.33301 -204 -19c-110.667 -20.667 -210.334 -58 -299.001 -112c-100 -61.333 -150 -125.666 -150 -192.999c0 -6.66699 0.333008 -13.667 1 -21c12 -69.333 63.667 -104 155 -104c39.333 0 80.333 6.33301 123 19c76 22 149.667 58.333 221 109
c52.667 36 116.334 90 191.001 162zM1457 937.994c-1.33301 -10.667 -6.99805 -18.668 -16.998 -24.001c-21.333 -9.33301 -52.333 -23.666 -93 -42.999c-8 -5.33301 -20 -11.666 -36 -18.999c-0.666992 0 -1.33398 -0.333008 -2.00098 -1h-2
c-3.33301 0 -4.66602 2 -3.99902 6c0 0.666992 1 2 3 4c27.333 25.333 63.666 56.666 108.999 93.999c5.33301 4 12 6 20 6c15.333 0 22.666 -7.66699 21.999 -23z" />
    <glyph glyph-name="Acircumflex" unicode="&#xc2;" horiz-adv-x="1188" 
d="M1334 753c-64 -93.333 -131.67 -202.338 -203.003 -327.005c18 -9.33301 32 -18.166 42 -26.499s12.667 -16.166 8 -23.499c-5.33301 -7.33301 -11.333 -8 -18 -2c-10 8.66699 -25 18.334 -45 29.001c-26.667 -48 -49.334 -91 -68.001 -129
c-46 -94 -69 -163.667 -69 -209c0 -38.667 17.667 -58 53 -58c32 0 59 13 81 39c5.33301 6.66699 9.66602 9.33398 12.999 8.00098c6.66699 -1.33301 5.83398 -7.66602 -2.49902 -18.999s-22.166 -22.333 -41.499 -33c-23.333 -12.667 -45.666 -19 -66.999 -19
c-14 0 -27 2.66699 -39 8c-41.333 20.667 -62 52.667 -62 96c0 34.667 11.333 79.334 34 134.001c17.333 41.333 57.333 109.666 120 204.999c-46.667 19.333 -92.334 34.333 -137.001 45l-177 -197c-72.667 -78.667 -138.334 -139.667 -197.001 -183
c-77.333 -56.667 -155.666 -93.334 -234.999 -110.001c-21.333 -4.66699 -44.333 -7 -69 -7c-60 0 -109.667 13 -149 39c-49.333 32 -74.666 80 -75.999 144c-1.33301 85.333 55.334 163 170.001 233c104.667 64 225.334 104.333 362.001 121c50 6.66699 99 10 147 10
c72 0 141.333 -7 208 -21c162 156 259.333 244.667 292 266c37.333 25.333 68.333 38 93 38c26.667 0 40 -9.66699 40 -29c0 -7.33301 -2.66699 -14.666 -8 -21.999zM1313 781.995c-2.66699 1.33301 -6.33301 2 -11 2c-14.667 0 -35.334 -7.33301 -62.001 -22
c-44 -25.333 -139.667 -115.333 -287 -270c46 -11.333 89.667 -26 131 -44c42.667 64 92.334 133.333 149.001 208c42 55.333 68.667 89.666 80 102.999c9.33301 10.667 9.33301 18.334 0 23.001zM894.998 479.995c-59.333 12 -121 17.999 -185 17.999
c-65.333 0 -133.333 -6.33301 -204 -19c-110.667 -20.667 -210.334 -58 -299.001 -112c-100 -61.333 -150 -125.666 -150 -192.999c0 -6.66699 0.333008 -13.667 1 -21c12 -69.333 63.667 -104 155 -104c39.333 0 80.333 6.33301 123 19c76 22 149.667 58.333 221 109
c52.667 36 116.334 90 191.001 162zM1404 844.994c-1.33301 -2 -2.66504 -2.99707 -3.99805 -2.99707h-29l-5 2c-12.667 19.333 -25.334 40.666 -38.001 63.999l-106 -71c-2.66699 0 -5.16699 1.5 -7.5 4.5s-2.83301 5.5 -1.5 7.5
c3.33301 5.33301 46.666 34.666 129.999 87.999c1.33301 1.33301 3 2 5 2c0.666992 0 1.66699 -1 3 -3c5.33301 -7.33301 22.333 -36 51 -86c1.33301 -2.66699 2 -4.33398 2 -5.00098z" />
    <glyph glyph-name="Atilde" unicode="&#xc3;" horiz-adv-x="1188" 
d="M1334 753c-64 -93.333 -131.67 -202.338 -203.003 -327.005c18 -9.33301 32 -18.166 42 -26.499s12.667 -16.166 8 -23.499c-5.33301 -7.33301 -11.333 -8 -18 -2c-10 8.66699 -25 18.334 -45 29.001c-26.667 -48 -49.334 -91 -68.001 -129
c-46 -94 -69 -163.667 -69 -209c0 -38.667 17.667 -58 53 -58c32 0 59 13 81 39c5.33301 6.66699 9.66602 9.33398 12.999 8.00098c6.66699 -1.33301 5.83398 -7.66602 -2.49902 -18.999s-22.166 -22.333 -41.499 -33c-23.333 -12.667 -45.666 -19 -66.999 -19
c-14 0 -27 2.66699 -39 8c-41.333 20.667 -62 52.667 -62 96c0 34.667 11.333 79.334 34 134.001c17.333 41.333 57.333 109.666 120 204.999c-46.667 19.333 -92.334 34.333 -137.001 45l-177 -197c-72.667 -78.667 -138.334 -139.667 -197.001 -183
c-77.333 -56.667 -155.666 -93.334 -234.999 -110.001c-21.333 -4.66699 -44.333 -7 -69 -7c-60 0 -109.667 13 -149 39c-49.333 32 -74.666 80 -75.999 144c-1.33301 85.333 55.334 163 170.001 233c104.667 64 225.334 104.333 362.001 121c50 6.66699 99 10 147 10
c72 0 141.333 -7 208 -21c162 156 259.333 244.667 292 266c37.333 25.333 68.333 38 93 38c26.667 0 40 -9.66699 40 -29c0 -7.33301 -2.66699 -14.666 -8 -21.999zM1313 781.995c-2.66699 1.33301 -6.33301 2 -11 2c-14.667 0 -35.334 -7.33301 -62.001 -22
c-44 -25.333 -139.667 -115.333 -287 -270c46 -11.333 89.667 -26 131 -44c42.667 64 92.334 133.333 149.001 208c42 55.333 68.667 89.666 80 102.999c9.33301 10.667 9.33301 18.334 0 23.001zM894.998 479.995c-59.333 12 -121 17.999 -185 17.999
c-65.333 0 -133.333 -6.33301 -204 -19c-110.667 -20.667 -210.334 -58 -299.001 -112c-100 -61.333 -150 -125.666 -150 -192.999c0 -6.66699 0.333008 -13.667 1 -21c12 -69.333 63.667 -104 155 -104c39.333 0 80.333 6.33301 123 19c76 22 149.667 58.333 221 109
c52.667 36 116.334 90 191.001 162zM1443 894.994c-1.33301 -13.333 -8.5 -24.833 -21.5 -34.5s-27.167 -14.5 -42.5 -14.5c-14.667 0 -34.834 5.66699 -60.501 17s-45.834 17 -60.501 17c-9.33301 0 -19.166 -4.5 -29.499 -13.5s-15.833 -13.5 -16.5 -13.5
c-2.66699 0 -4 1.66699 -4 5c1.33301 13.333 9.16602 26 23.499 38s29.833 18 46.5 18c14.667 0 36.334 -6.83301 65.001 -20.5s47 -20.5 55 -20.5c11.333 0 20.333 4.5 27 13.5s10.334 13.5 11.001 13.5c4.66699 0 7 -1.66699 7 -5z" />
    <glyph glyph-name="Adieresis" unicode="&#xc4;" horiz-adv-x="1188" 
d="M1334 753c-64 -93.333 -131.67 -202.338 -203.003 -327.005c18 -9.33301 32 -18.166 42 -26.499s12.667 -16.166 8 -23.499c-5.33301 -7.33301 -11.333 -8 -18 -2c-10 8.66699 -25 18.334 -45 29.001c-26.667 -48 -49.334 -91 -68.001 -129
c-46 -94 -69 -163.667 -69 -209c0 -38.667 17.667 -58 53 -58c32 0 59 13 81 39c5.33301 6.66699 9.66602 9.33398 12.999 8.00098c6.66699 -1.33301 5.83398 -7.66602 -2.49902 -18.999s-22.166 -22.333 -41.499 -33c-23.333 -12.667 -45.666 -19 -66.999 -19
c-14 0 -27 2.66699 -39 8c-41.333 20.667 -62 52.667 -62 96c0 34.667 11.333 79.334 34 134.001c17.333 41.333 57.333 109.666 120 204.999c-46.667 19.333 -92.334 34.333 -137.001 45l-177 -197c-72.667 -78.667 -138.334 -139.667 -197.001 -183
c-77.333 -56.667 -155.666 -93.334 -234.999 -110.001c-21.333 -4.66699 -44.333 -7 -69 -7c-60 0 -109.667 13 -149 39c-49.333 32 -74.666 80 -75.999 144c-1.33301 85.333 55.334 163 170.001 233c104.667 64 225.334 104.333 362.001 121c50 6.66699 99 10 147 10
c72 0 141.333 -7 208 -21c162 156 259.333 244.667 292 266c37.333 25.333 68.333 38 93 38c26.667 0 40 -9.66699 40 -29c0 -7.33301 -2.66699 -14.666 -8 -21.999zM1313 781.995c-2.66699 1.33301 -6.33301 2 -11 2c-14.667 0 -35.334 -7.33301 -62.001 -22
c-44 -25.333 -139.667 -115.333 -287 -270c46 -11.333 89.667 -26 131 -44c42.667 64 92.334 133.333 149.001 208c42 55.333 68.667 89.666 80 102.999c9.33301 10.667 9.33301 18.334 0 23.001zM894.998 479.995c-59.333 12 -121 17.999 -185 17.999
c-65.333 0 -133.333 -6.33301 -204 -19c-110.667 -20.667 -210.334 -58 -299.001 -112c-100 -61.333 -150 -125.666 -150 -192.999c0 -6.66699 0.333008 -13.667 1 -21c12 -69.333 63.667 -104 155 -104c39.333 0 80.333 6.33301 123 19c76 22 149.667 58.333 221 109
c52.667 36 116.334 90 191.001 162zM1402 883.994c-1.33301 -18 -11.334 -27 -30.001 -27c-18 0 -26.333 9 -25 27s11 27 29 27c18.667 0 27.334 -9 26.001 -27zM1298 883.994c-1.33301 -18 -11.334 -27 -30.001 -27c-18 0 -26.333 9 -25 27s11 27 29 27
c18.667 0 27.334 -9 26.001 -27z" />
    <glyph glyph-name="Aring" unicode="&#xc5;" horiz-adv-x="1188" 
d="M1334 753c-64 -93.333 -131.67 -202.338 -203.003 -327.005c18 -9.33301 32 -18.166 42 -26.499s12.667 -16.166 8 -23.499c-5.33301 -7.33301 -11.333 -8 -18 -2c-10 8.66699 -25 18.334 -45 29.001c-26.667 -48 -49.334 -91 -68.001 -129
c-46 -94 -69 -163.667 -69 -209c0 -38.667 17.667 -58 53 -58c32 0 59 13 81 39c5.33301 6.66699 9.66602 9.33398 12.999 8.00098c6.66699 -1.33301 5.83398 -7.66602 -2.49902 -18.999s-22.166 -22.333 -41.499 -33c-23.333 -12.667 -45.666 -19 -66.999 -19
c-14 0 -27 2.66699 -39 8c-41.333 20.667 -62 52.667 -62 96c0 34.667 11.333 79.334 34 134.001c17.333 41.333 57.333 109.666 120 204.999c-46.667 19.333 -92.334 34.333 -137.001 45l-177 -197c-72.667 -78.667 -138.334 -139.667 -197.001 -183
c-77.333 -56.667 -155.666 -93.334 -234.999 -110.001c-21.333 -4.66699 -44.333 -7 -69 -7c-60 0 -109.667 13 -149 39c-49.333 32 -74.666 80 -75.999 144c-1.33301 85.333 55.334 163 170.001 233c104.667 64 225.334 104.333 362.001 121c50 6.66699 99 10 147 10
c72 0 141.333 -7 208 -21c162 156 259.333 244.667 292 266c37.333 25.333 68.333 38 93 38c26.667 0 40 -9.66699 40 -29c0 -7.33301 -2.66699 -14.666 -8 -21.999zM1313 781.995c-2.66699 1.33301 -6.33301 2 -11 2c-14.667 0 -35.334 -7.33301 -62.001 -22
c-44 -25.333 -139.667 -115.333 -287 -270c46 -11.333 89.667 -26 131 -44c42.667 64 92.334 133.333 149.001 208c42 55.333 68.667 89.666 80 102.999c9.33301 10.667 9.33301 18.334 0 23.001zM894.998 479.995c-59.333 12 -121 17.999 -185 17.999
c-65.333 0 -133.333 -6.33301 -204 -19c-110.667 -20.667 -210.334 -58 -299.001 -112c-100 -61.333 -150 -125.666 -150 -192.999c0 -6.66699 0.333008 -13.667 1 -21c12 -69.333 63.667 -104 155 -104c39.333 0 80.333 6.33301 123 19c76 22 149.667 58.333 221 109
c52.667 36 116.334 90 191.001 162zM1437 922.994c-1.33301 -20.667 -9.66602 -38.5 -24.999 -53.5s-33.333 -22.5 -54 -22.5s-37.834 7.5 -51.501 22.5s-19.834 32.833 -18.501 53.5c2 20.667 10.833 38 26.5 52s33.834 21 54.501 21s37.5 -7 50.5 -21
s18.833 -31.333 17.5 -52zM1415 922.994c0.666992 14 -3.5 26 -12.5 36s-20.833 15 -35.5 15c-14 0 -26.667 -5 -38 -15s-17.333 -22 -18 -36c-1.33301 -14.667 3 -27.167 13 -37.5s22 -15.5 36 -15.5s26.333 5.16699 37 15.5s16.667 22.833 18 37.5z" />
    <glyph glyph-name="AE" unicode="&#xc6;" horiz-adv-x="1662" 
d="M1778 694l-20.002 0.00390625c-5.33301 -30 -19.833 -57 -43.5 -81s-50.5 -36 -80.5 -36c-27.333 0 -41 12 -41 36c0 14.667 7.66699 29.667 23 45s32.5 27.166 51.5 35.499s41.167 13.5 66.5 15.5c-0.666992 14 -5 26.333 -13 37c-15.333 20 -45 30 -89 30
c-73.333 0 -149 -22.333 -227 -67c-40.667 -23.333 -72.5 -51.833 -95.5 -85.5s-34.5 -66.834 -34.5 -99.501c0 -26 6.66699 -47.667 20 -65c59.333 18.667 111 28 155 28c48 0 73.333 -13.333 76 -40c4 -31.333 -21 -51.333 -75 -60c-12.667 -2 -26.667 -3 -42 -3
c-59.333 0 -109.333 12.333 -150 37c-60 -25.333 -115 -66 -165 -122c-53.333 -58.667 -80 -112.334 -80 -161.001c0 -16.667 3.33301 -31.667 10 -45c29.333 -58 87.666 -87 174.999 -87c70.667 0 145.667 16 225 48c96 39.333 167.667 87 215 143
c11.333 12.667 21.333 18 30 16c10 -1.33301 2.83301 -14.333 -21.5 -39s-55.5 -50.334 -93.5 -77.001c-44 -30 -85.333 -52.667 -124 -68c-96 -38 -190 -57 -282 -57c-114.667 0 -187.334 35.667 -218.001 107c-8 18 -12 37.333 -12 58c0 44 17.667 96.333 53 157l88 132
c-46.667 19.333 -92.334 34.333 -137.001 45l-177 -197c-72.667 -78.667 -138.334 -139.667 -197.001 -183c-77.333 -56.667 -155.666 -93.334 -234.999 -110.001c-22 -4.66699 -45 -7 -69 -7c-60 0 -109.667 13 -149 39c-49.333 32 -74.666 80 -75.999 144
c-1.33301 85.333 55.334 163 170.001 233c104.667 64 225.334 104.333 362.001 121c49.333 6.66699 98.333 10 147 10c72 0 141 -7 207 -21c162.667 156 260.334 244.667 293.001 266c37.333 25.333 68.333 38 93 38c26 0 39 -9.66699 39 -29
c0 -7.33301 -2.33301 -14.666 -7 -21.999l-57 -88c30.667 25.333 69.334 49.333 116.001 72c77.333 38.667 158.666 58 243.999 58c64.667 0 105.334 -14.333 122.001 -43c7.33301 -12 11 -26 11 -42c19.333 0 29 -3.33301 29 -10c0 -4.66699 -3.33301 -6.66699 -10 -6z
M1732 691.004c-29.333 -4.66699 -53.334 -13 -72.001 -25c-26.667 -18 -40 -34 -40 -48c0 -11.333 6.33301 -17 19 -17c22 0 43.333 11 64 33c14.667 15.333 24.334 34.333 29.001 57zM1499 447.004c-2.66699 14 -19 20.998 -49 20.998c-34 0 -79.333 -9.33301 -136 -28
c29.333 -22.667 70 -33.667 122 -33c21.333 0.666992 37.5 4.83398 48.5 12.501s15.833 16.834 14.5 27.501zM1302 782.002c-2.66699 1.33301 -6.33301 2 -11 2c-14.667 0 -35.334 -7.33301 -62.001 -22c-44 -25.333 -139.667 -115.333 -287 -270
c46 -11.333 89.667 -26 131 -44c42.667 64 92.334 133.333 149.001 208c42 55.333 68.667 89.666 80 102.999c9.33301 10.667 9.33301 18.334 0 23.001zM1237 436.002c-36.667 29.333 -54.001 62.667 -52.001 100c-43.333 -72 -78.666 -133 -105.999 -183
c46 30 98.667 57.667 158 83zM883.997 480.003c-59.333 12 -121 17.999 -185 17.999c-66 0 -134 -6.33301 -204 -19c-110.667 -20.667 -210.334 -58 -299.001 -112c-100 -61.333 -150 -125.666 -150 -192.999c0 -6.66699 0.333008 -13.667 1 -21
c12 -69.333 63.667 -104 155 -104c38.667 0 79.667 6.33301 123 19c76 22 149.667 58.333 221 109c52.667 36 116.334 90 191.001 162z" />
    <glyph glyph-name="Ccedilla" unicode="&#xc7;" horiz-adv-x="743" 
d="M938 700c-0.666992 -5.33301 -6.33496 -7.33203 -17.002 -5.99902h-15c-6 -38 -23.333 -68.667 -52 -92c-20.667 -16.667 -43.334 -25 -68.001 -25c-29.333 0 -44 11 -44 33c0 33.333 23 60.333 69 81c21.333 9.33301 45 15.333 71 18c-0.666992 42 -32 63 -94 63
c-48.667 0 -105 -12 -169 -36c-75.333 -27.333 -150 -67.333 -224 -120c-101.333 -72 -178 -147 -230 -225c-46 -68.667 -69 -133.334 -69 -194.001c0 -32 6.66699 -60.333 20 -85c36 -66.667 114 -100 234 -100c33.333 0 65 2.66699 95 8c86 16.667 163.333 45.667 232 87
c46.667 28.667 83.667 58.667 111 90c10.667 11.333 20 17 28 17c2.66699 0 4.33398 -0.666992 5.00098 -2c4.66699 -6.66699 -1 -17.667 -17 -33c-43.333 -42.667 -83.333 -75.667 -120 -99c-65.333 -40.667 -142.666 -70 -231.999 -88
c-46.667 -9.33301 -92.334 -14 -137.001 -14l-26 -42c22.667 -7.33301 33.334 -21 32.001 -41c-2 -24.667 -17.333 -43 -46 -55c-22 -8.66699 -47.333 -13 -76 -13c-8.66699 0 -12.667 2.33301 -12 7c0 4 4.33301 6 13 6c18.667 0 37.834 5.5 57.501 16.5
s30.167 25.167 31.5 42.5c1.33301 12.667 -7.33398 23.667 -26.001 33c1.33301 2 11 17.333 29 46c-117.333 3.33301 -200 36 -248 98c-28 35.333 -42 79.666 -42 132.999c0 112.667 64.333 223.334 193 332.001c96.667 82 203.334 146.333 320.001 193
c102 40.667 191.333 61 268 61c42.667 0 73.667 -7 93 -21c21.333 -16 32 -37.333 32 -64c20.667 0 30.667 -3.33301 30 -10zM880.999 691.001c-35.333 -6 -62.333 -16.333 -81 -31c-20.667 -15.333 -31 -30.333 -31 -45c0 -9.33301 6 -14 18 -14c14.667 0 31.667 7 51 21
c22.667 16 37 39 43 69z" />
    <glyph glyph-name="Egrave" unicode="&#xc8;" horiz-adv-x="696" 
d="M879 694l-20.0029 0.00390625c-5.33301 -30 -19.833 -57 -43.5 -81s-50.5 -36 -80.5 -36c-26.667 0 -40 12 -40 36c0 14.667 7.5 29.667 22.5 45s32.167 27.166 51.5 35.499s41.333 13.5 66 15.5c0 14 -4.33301 26.333 -13 37c-15.333 19.333 -44.666 29 -87.999 29
c-75.333 0 -151.333 -22 -228 -66c-40.667 -23.333 -72.5 -51.833 -95.5 -85.5s-34.5 -66.834 -34.5 -99.501c0 -26 6.66699 -47.667 20 -65c53.333 16.667 101.333 25.667 144 27c55.333 2.66699 84.333 -10.333 87 -39c3.33301 -31.333 -21.667 -51.333 -75 -60
c-12.667 -2 -26.667 -3 -42 -3c-59.333 0 -109.333 12.333 -150 37c-60 -25.333 -115 -66 -165 -122c-53.333 -58.667 -80 -112.334 -80 -161.001c0 -16.667 3.66699 -31.667 11 -45c28.667 -58 86.667 -87 174 -87c70.667 0 145.667 16 225 48c96 39.333 168 87 216 143
c10.667 12.667 20.334 18 29.001 16c10 -1.33301 3 -14.333 -21 -39s-55 -50.334 -93 -77.001c-44.667 -30 -86.334 -52.667 -125.001 -68c-95.333 -38 -189.333 -57 -282 -57c-114 0 -186.667 35.667 -218 107c-8.66699 20 -13 40 -13 60c0 58.667 36 117 108 175
c54.667 44 125.334 84.667 212.001 122c-38.667 30.667 -55.667 65.667 -51 105c8 72.667 72 138.667 192 198c78.667 38.667 160.334 58 245.001 58c65.333 0 107 -14.667 125 -44c7.33301 -12 11 -26.333 11 -43c19.333 0 29 -3.33301 29 -10
c0 -4.66699 -3.33301 -6.66699 -10 -6zM832.997 691.004c-29.333 -4.66699 -53.334 -13 -72.001 -25c-26.667 -18 -40 -34 -40 -48c0 -11.333 6.33301 -17 19 -17c22 0 43.333 11 64 33c14.667 15.333 24.334 34.333 29.001 57zM599.996 447.004
c-2.66699 13.333 -20.333 19.998 -53 19.998c-11.333 0 -23.666 -0.666992 -36.999 -2c-28 -4 -59.667 -12.333 -95 -25c29.333 -22.667 70 -33.667 122 -33c21.333 0.666992 37.666 4.83398 48.999 12.501s16 16.834 14 27.501zM732.997 833.002
c0 -4 -1.66797 -6.00098 -5.00098 -6.00098c-58 34 -97.333 58 -118 72c-8.66699 6 -12.667 14.667 -12 26c0.666992 16 8.33398 24 23.001 24c7.33301 0 14.333 -2.33301 21 -7c23.333 -33.333 44 -59.666 62 -78.999l17 -15c8.66699 -7.33301 12.667 -12.333 12 -15z" />
    <glyph glyph-name="Eacute" unicode="&#xc9;" horiz-adv-x="696" 
d="M879 694l-20.0029 0.00390625c-5.33301 -30 -19.833 -57 -43.5 -81s-50.5 -36 -80.5 -36c-26.667 0 -40 12 -40 36c0 14.667 7.5 29.667 22.5 45s32.167 27.166 51.5 35.499s41.333 13.5 66 15.5c0 14 -4.33301 26.333 -13 37c-15.333 19.333 -44.666 29 -87.999 29
c-75.333 0 -151.333 -22 -228 -66c-40.667 -23.333 -72.5 -51.833 -95.5 -85.5s-34.5 -66.834 -34.5 -99.501c0 -26 6.66699 -47.667 20 -65c53.333 16.667 101.333 25.667 144 27c55.333 2.66699 84.333 -10.333 87 -39c3.33301 -31.333 -21.667 -51.333 -75 -60
c-12.667 -2 -26.667 -3 -42 -3c-59.333 0 -109.333 12.333 -150 37c-60 -25.333 -115 -66 -165 -122c-53.333 -58.667 -80 -112.334 -80 -161.001c0 -16.667 3.66699 -31.667 11 -45c28.667 -58 86.667 -87 174 -87c70.667 0 145.667 16 225 48c96 39.333 168 87 216 143
c10.667 12.667 20.334 18 29.001 16c10 -1.33301 3 -14.333 -21 -39s-55 -50.334 -93 -77.001c-44.667 -30 -86.334 -52.667 -125.001 -68c-95.333 -38 -189.333 -57 -282 -57c-114 0 -186.667 35.667 -218 107c-8.66699 20 -13 40 -13 60c0 58.667 36 117 108 175
c54.667 44 125.334 84.667 212.001 122c-38.667 30.667 -55.667 65.667 -51 105c8 72.667 72 138.667 192 198c78.667 38.667 160.334 58 245.001 58c65.333 0 107 -14.667 125 -44c7.33301 -12 11 -26.333 11 -43c19.333 0 29 -3.33301 29 -10
c0 -4.66699 -3.33301 -6.66699 -10 -6zM832.997 691.004c-29.333 -4.66699 -53.334 -13 -72.001 -25c-26.667 -18 -40 -34 -40 -48c0 -11.333 6.33301 -17 19 -17c22 0 43.333 11 64 33c14.667 15.333 24.334 34.333 29.001 57zM599.996 447.004
c-2.66699 13.333 -20.333 19.998 -53 19.998c-11.333 0 -23.666 -0.666992 -36.999 -2c-28 -4 -59.667 -12.333 -95 -25c29.333 -22.667 70 -33.667 122 -33c21.333 0.666992 37.666 4.83398 48.999 12.501s16 16.834 14 27.501zM839.997 942.002
c-0.666992 -10 -6.33105 -18 -16.998 -24l-93 -43c-8 -4.66699 -19.667 -11 -35 -19h-2c-0.666992 -0.666992 -1.33398 -1 -2.00098 -1c-3.33301 0 -5 2 -5 6c0 0.666992 1 2 3 4l109 94c6 4 12.667 6 20 6c15.333 0 22.666 -7.66699 21.999 -23z" />
    <glyph glyph-name="Ecircumflex" unicode="&#xca;" horiz-adv-x="696" 
d="M879 694l-20.0029 0.00390625c-5.33301 -30 -19.833 -57 -43.5 -81s-50.5 -36 -80.5 -36c-26.667 0 -40 12 -40 36c0 14.667 7.5 29.667 22.5 45s32.167 27.166 51.5 35.499s41.333 13.5 66 15.5c0 14 -4.33301 26.333 -13 37c-15.333 19.333 -44.666 29 -87.999 29
c-75.333 0 -151.333 -22 -228 -66c-40.667 -23.333 -72.5 -51.833 -95.5 -85.5s-34.5 -66.834 -34.5 -99.501c0 -26 6.66699 -47.667 20 -65c53.333 16.667 101.333 25.667 144 27c55.333 2.66699 84.333 -10.333 87 -39c3.33301 -31.333 -21.667 -51.333 -75 -60
c-12.667 -2 -26.667 -3 -42 -3c-59.333 0 -109.333 12.333 -150 37c-60 -25.333 -115 -66 -165 -122c-53.333 -58.667 -80 -112.334 -80 -161.001c0 -16.667 3.66699 -31.667 11 -45c28.667 -58 86.667 -87 174 -87c70.667 0 145.667 16 225 48c96 39.333 168 87 216 143
c10.667 12.667 20.334 18 29.001 16c10 -1.33301 3 -14.333 -21 -39s-55 -50.334 -93 -77.001c-44.667 -30 -86.334 -52.667 -125.001 -68c-95.333 -38 -189.333 -57 -282 -57c-114 0 -186.667 35.667 -218 107c-8.66699 20 -13 40 -13 60c0 58.667 36 117 108 175
c54.667 44 125.334 84.667 212.001 122c-38.667 30.667 -55.667 65.667 -51 105c8 72.667 72 138.667 192 198c78.667 38.667 160.334 58 245.001 58c65.333 0 107 -14.667 125 -44c7.33301 -12 11 -26.333 11 -43c19.333 0 29 -3.33301 29 -10
c0 -4.66699 -3.33301 -6.66699 -10 -6zM832.997 691.004c-29.333 -4.66699 -53.334 -13 -72.001 -25c-26.667 -18 -40 -34 -40 -48c0 -11.333 6.33301 -17 19 -17c22 0 43.333 11 64 33c14.667 15.333 24.334 34.333 29.001 57zM599.996 447.004
c-2.66699 13.333 -20.333 19.998 -53 19.998c-11.333 0 -23.666 -0.666992 -36.999 -2c-28 -4 -59.667 -12.333 -95 -25c29.333 -22.667 70 -33.667 122 -33c21.333 0.666992 37.666 4.83398 48.999 12.501s16 16.834 14 27.501zM812.997 842.002
c-1.33301 -2 -2.99902 -2.99707 -4.99902 -2.99707h-29l-4 2c-12.667 19.333 -25.667 40.666 -39 63.999l-106 -71c-2.66699 0 -5 1.5 -7 4.5s-2.66699 5.5 -2 7.5c3.33301 5.33301 46.666 34.666 129.999 87.999c1.33301 1.33301 3 2 5 2c0.666992 0 2 -1 4 -3
c5.33301 -7.33301 22.333 -36 51 -86c1.33301 -2.66699 2 -4.33398 2 -5.00098z" />
    <glyph glyph-name="Edieresis" unicode="&#xcb;" horiz-adv-x="696" 
d="M879 694l-20.0029 0.00390625c-5.33301 -30 -19.833 -57 -43.5 -81s-50.5 -36 -80.5 -36c-26.667 0 -40 12 -40 36c0 14.667 7.5 29.667 22.5 45s32.167 27.166 51.5 35.499s41.333 13.5 66 15.5c0 14 -4.33301 26.333 -13 37c-15.333 19.333 -44.666 29 -87.999 29
c-75.333 0 -151.333 -22 -228 -66c-40.667 -23.333 -72.5 -51.833 -95.5 -85.5s-34.5 -66.834 -34.5 -99.501c0 -26 6.66699 -47.667 20 -65c53.333 16.667 101.333 25.667 144 27c55.333 2.66699 84.333 -10.333 87 -39c3.33301 -31.333 -21.667 -51.333 -75 -60
c-12.667 -2 -26.667 -3 -42 -3c-59.333 0 -109.333 12.333 -150 37c-60 -25.333 -115 -66 -165 -122c-53.333 -58.667 -80 -112.334 -80 -161.001c0 -16.667 3.66699 -31.667 11 -45c28.667 -58 86.667 -87 174 -87c70.667 0 145.667 16 225 48c96 39.333 168 87 216 143
c10.667 12.667 20.334 18 29.001 16c10 -1.33301 3 -14.333 -21 -39s-55 -50.334 -93 -77.001c-44.667 -30 -86.334 -52.667 -125.001 -68c-95.333 -38 -189.333 -57 -282 -57c-114 0 -186.667 35.667 -218 107c-8.66699 20 -13 40 -13 60c0 58.667 36 117 108 175
c54.667 44 125.334 84.667 212.001 122c-38.667 30.667 -55.667 65.667 -51 105c8 72.667 72 138.667 192 198c78.667 38.667 160.334 58 245.001 58c65.333 0 107 -14.667 125 -44c7.33301 -12 11 -26.333 11 -43c19.333 0 29 -3.33301 29 -10
c0 -4.66699 -3.33301 -6.66699 -10 -6zM832.997 691.004c-29.333 -4.66699 -53.334 -13 -72.001 -25c-26.667 -18 -40 -34 -40 -48c0 -11.333 6.33301 -17 19 -17c22 0 43.333 11 64 33c14.667 15.333 24.334 34.333 29.001 57zM599.996 447.004
c-2.66699 13.333 -20.333 19.998 -53 19.998c-11.333 0 -23.666 -0.666992 -36.999 -2c-28 -4 -59.667 -12.333 -95 -25c29.333 -22.667 70 -33.667 122 -33c21.333 0.666992 37.666 4.83398 48.999 12.501s16 16.834 14 27.501zM788.997 872.002
c-1.33301 -18 -11 -27 -29 -27c-18.667 0 -27.334 9 -26.001 27c1.33301 18.667 11 28 29 28c18.667 0 27.334 -9.33301 26.001 -28zM684.997 872.002c-1.33301 -18 -11 -27 -29 -27c-18.667 0 -27.334 9 -26.001 27c1.33301 18.667 11 28 29 28
c18.667 0 27.334 -9.33301 26.001 -28z" />
    <glyph glyph-name="Igrave" unicode="&#xcc;" horiz-adv-x="858" 
d="M960 802c22 -16.667 33.001 -48.001 33.001 -94.001c0 -78.667 -28 -170.667 -84 -276c-62 -117.333 -142.333 -216 -241 -296c-74.667 -61.333 -155 -107.333 -241 -138c4 -12 9.66699 -28 17 -48c3.33301 -10.667 -0.333984 -16 -11.001 -16
c-7.33301 0 -12 3.33301 -14 10l-16 46c-58 -18.667 -121.333 -28 -190 -28c-101.333 0 -164.333 25.333 -189 76c-7.33301 14.667 -11 31 -11 49c0 47.333 17.333 87.666 52 120.999c20 18.667 39 28 57 28c20 0 30 -9.33301 30 -28c0 -8.66699 -2.83301 -16.5 -8.5 -23.5
s-12.5 -10.5 -20.5 -10.5c-2.66699 0 -5 0.666992 -7 2c-21.333 6.66699 -40 -0.333008 -56 -21c-13.333 -18 -20 -40 -20 -66c0 -19.333 5 -35.666 15 -48.999c17.333 -22.667 47.333 -34 90 -34c60 0 138.667 20.333 236 61c-8 38 -11.333 79.333 -10 124
c6 152.667 53.333 288.334 142 407.001c50.667 68 111.667 123.333 183 166c67.333 40 129 60 185 60c32 0 58.333 -7.33301 79 -22zM936.001 786.999c-15.333 10.667 -35 16.001 -59 16.001c-50 0 -108.333 -21 -175 -63s-124.667 -95 -174 -159
c-34.667 -46.667 -63.667 -102 -87 -166c-25.333 -70.667 -39.666 -143.334 -42.999 -218.001c-2.66699 -40 0 -79.667 8 -119c109.333 49.333 204.666 111.333 285.999 186c78 72 143.333 152.333 196 241c50.667 86.667 76 158 76 214c0 32 -9.33301 54.667 -28 68z
M926.001 869c-0.666992 -4 -2.66699 -6.00098 -6 -6.00098c-58 34 -97.333 58 -118 72c-8.66699 6 -12.667 14.667 -12 26c1.33301 16 9.33301 24 24 24c6.66699 0 13.334 -2.33301 20.001 -7c23.333 -33.333 44.333 -59.666 63 -78.999
c5.33301 -5.33301 10.666 -10.333 15.999 -15c8.66699 -8 13 -13 13 -15z" />
    <glyph glyph-name="Iacute" unicode="&#xcd;" horiz-adv-x="858" 
d="M960 802c22 -16.667 33.001 -48.001 33.001 -94.001c0 -78.667 -28 -170.667 -84 -276c-62 -117.333 -142.333 -216 -241 -296c-74.667 -61.333 -155 -107.333 -241 -138c4 -12 9.66699 -28 17 -48c3.33301 -10.667 -0.333984 -16 -11.001 -16
c-7.33301 0 -12 3.33301 -14 10l-16 46c-58 -18.667 -121.333 -28 -190 -28c-101.333 0 -164.333 25.333 -189 76c-7.33301 14.667 -11 31 -11 49c0 47.333 17.333 87.666 52 120.999c20 18.667 39 28 57 28c20 0 30 -9.33301 30 -28c0 -8.66699 -2.83301 -16.5 -8.5 -23.5
s-12.5 -10.5 -20.5 -10.5c-2.66699 0 -5 0.666992 -7 2c-21.333 6.66699 -40 -0.333008 -56 -21c-13.333 -18 -20 -40 -20 -66c0 -19.333 5 -35.666 15 -48.999c17.333 -22.667 47.333 -34 90 -34c60 0 138.667 20.333 236 61c-8 38 -11.333 79.333 -10 124
c6 152.667 53.333 288.334 142 407.001c50.667 68 111.667 123.333 183 166c67.333 40 129 60 185 60c32 0 58.333 -7.33301 79 -22zM936.001 786.999c-15.333 10.667 -35 16.001 -59 16.001c-50 0 -108.333 -21 -175 -63s-124.667 -95 -174 -159
c-34.667 -46.667 -63.667 -102 -87 -166c-25.333 -70.667 -39.666 -143.334 -42.999 -218.001c-2.66699 -40 0 -79.667 8 -119c109.333 49.333 204.666 111.333 285.999 186c78 72 143.333 152.333 196 241c50.667 86.667 76 158 76 214c0 32 -9.33301 54.667 -28 68z
M1040 956c-0.666992 -10 -6 -18 -16 -24c-21.333 -9.33301 -52.333 -23.666 -93 -42.999c-8 -4.66699 -20 -11 -36 -19h-2c-0.666992 -0.666992 -1.33398 -1 -2.00098 -1c-3.33301 0 -4.66602 2 -3.99902 6c0 0.666992 1 2 3 4c27.333 25.333 63.333 56.666 108 93.999
c6 4 13 6 21 6c15.333 0 22.333 -7.66699 21 -23z" />
    <glyph glyph-name="Icircumflex" unicode="&#xce;" horiz-adv-x="858" 
d="M960 802c22 -16.667 33.001 -48.001 33.001 -94.001c0 -78.667 -28 -170.667 -84 -276c-62 -117.333 -142.333 -216 -241 -296c-74.667 -61.333 -155 -107.333 -241 -138c4 -12 9.66699 -28 17 -48c3.33301 -10.667 -0.333984 -16 -11.001 -16
c-7.33301 0 -12 3.33301 -14 10l-16 46c-58 -18.667 -121.333 -28 -190 -28c-101.333 0 -164.333 25.333 -189 76c-7.33301 14.667 -11 31 -11 49c0 47.333 17.333 87.666 52 120.999c20 18.667 39 28 57 28c20 0 30 -9.33301 30 -28c0 -8.66699 -2.83301 -16.5 -8.5 -23.5
s-12.5 -10.5 -20.5 -10.5c-2.66699 0 -5 0.666992 -7 2c-21.333 6.66699 -40 -0.333008 -56 -21c-13.333 -18 -20 -40 -20 -66c0 -19.333 5 -35.666 15 -48.999c17.333 -22.667 47.333 -34 90 -34c60 0 138.667 20.333 236 61c-8 38 -11.333 79.333 -10 124
c6 152.667 53.333 288.334 142 407.001c50.667 68 111.667 123.333 183 166c67.333 40 129 60 185 60c32 0 58.333 -7.33301 79 -22zM936.001 786.999c-15.333 10.667 -35 16.001 -59 16.001c-50 0 -108.333 -21 -175 -63s-124.667 -95 -174 -159
c-34.667 -46.667 -63.667 -102 -87 -166c-25.333 -70.667 -39.666 -143.334 -42.999 -218.001c-2.66699 -40 0 -79.667 8 -119c109.333 49.333 204.666 111.333 285.999 186c78 72 143.333 152.333 196 241c50.667 86.667 76 158 76 214c0 32 -9.33301 54.667 -28 68z
M995.001 877c-1.33301 -2 -2.66699 -2.99707 -4 -2.99707h-29l-5 2c-12.667 19.333 -25.667 40.666 -39 63.999l-106 -71c-2 0 -4.16699 1.5 -6.5 4.5s-2.83301 5.5 -1.5 7.5c2.66699 5.33301 45.667 34.666 129 87.999c1.33301 1.33301 3 2 5 2c0.666992 0 2 -1 4 -3
c5.33301 -7.33301 22.333 -36 51 -86c1.33301 -2.66699 2 -4.33398 2 -5.00098z" />
    <glyph glyph-name="Idieresis" unicode="&#xcf;" horiz-adv-x="858" 
d="M960 802c22 -16.667 33.001 -48.001 33.001 -94.001c0 -78.667 -28 -170.667 -84 -276c-62 -117.333 -142.333 -216 -241 -296c-74.667 -61.333 -155 -107.333 -241 -138c4 -12 9.66699 -28 17 -48c3.33301 -10.667 -0.333984 -16 -11.001 -16
c-7.33301 0 -12 3.33301 -14 10l-16 46c-58 -18.667 -121.333 -28 -190 -28c-101.333 0 -164.333 25.333 -189 76c-7.33301 14.667 -11 31 -11 49c0 47.333 17.333 87.666 52 120.999c20 18.667 39 28 57 28c20 0 30 -9.33301 30 -28c0 -8.66699 -2.83301 -16.5 -8.5 -23.5
s-12.5 -10.5 -20.5 -10.5c-2.66699 0 -5 0.666992 -7 2c-21.333 6.66699 -40 -0.333008 -56 -21c-13.333 -18 -20 -40 -20 -66c0 -19.333 5 -35.666 15 -48.999c17.333 -22.667 47.333 -34 90 -34c60 0 138.667 20.333 236 61c-8 38 -11.333 79.333 -10 124
c6 152.667 53.333 288.334 142 407.001c50.667 68 111.667 123.333 183 166c67.333 40 129 60 185 60c32 0 58.333 -7.33301 79 -22zM936.001 786.999c-15.333 10.667 -35 16.001 -59 16.001c-50 0 -108.333 -21 -175 -63s-124.667 -95 -174 -159
c-34.667 -46.667 -63.667 -102 -87 -166c-25.333 -70.667 -39.666 -143.334 -42.999 -218.001c-2.66699 -40 0 -79.667 8 -119c109.333 49.333 204.666 111.333 285.999 186c78 72 143.333 152.333 196 241c50.667 86.667 76 158 76 214c0 32 -9.33301 54.667 -28 68z
M990.001 900c-1.33301 -18.667 -11 -28 -29 -28s-26.667 9.33301 -26 28c1.33301 18 11.333 27 30 27c18 0 26.333 -9 25 -27zM886.001 900c-1.33301 -18.667 -11 -28 -29 -28s-26.667 9.33301 -26 28c1.33301 18 11.333 27 30 27c18 0 26.333 -9 25 -27z" />
    <glyph glyph-name="Eth" unicode="&#xd0;" horiz-adv-x="886" 
d="M977 579c-11.333 -70.667 -38.666 -147.667 -81.999 -231c-56.667 -108.667 -127.334 -196 -212.001 -262c-118.667 -93.333 -235.334 -140 -350.001 -140c-34 0 -62.667 4.66699 -86 14s-37.666 20.666 -42.999 33.999c-2.66699 7.33301 -4 15 -4 23
c0 32.667 23 66 69 100c38.667 28.667 81 50 127 64c39.333 11.333 83 17 131 17c47.333 0 81.666 -4.66699 102.999 -14c12 -5.33301 18 -10.333 18 -15c0 -3.33301 -4 -5 -12 -5c-9.33301 0 -25.166 2.16699 -47.499 6.5s-40.166 6.5 -53.499 6.5
c-44.667 0 -90.667 -6.66699 -138 -20c-42.667 -12.667 -80.667 -31.667 -114 -57c-36 -27.333 -54 -53.666 -54 -78.999c0 -5.33301 1 -10 3 -14c6.66699 -21.333 38.667 -32 96 -32c46.667 0 95.334 8.33301 146.001 25c59.333 20 111.333 48.667 156 86
c83.333 70.667 150.333 157.667 201 261c44.667 93.333 67 179 67 257c0 66 -17 108.667 -51 128c-26 14 -55.667 21 -89 21c-74 0 -159 -32 -255 -96c-38.667 -89.333 -77 -171.333 -115 -246h188c13.333 0 20 -6.66699 20 -20c0 -14.667 -6.66699 -22 -20 -22h-209
c-134.667 -250.667 -233.334 -376 -296.001 -376c-31.333 0 -47 22 -47 66c0 80 46.333 183.333 139 310h-44c-13.333 0 -20 7.33301 -20 22c0 13.333 6.66699 20 20 20h76c80.667 101.333 174.667 188 282 260c6 16.667 14 37 24 61l21 68c4 12 11.333 17 22 15
c9.33301 -1.33301 12.666 -10 9.99902 -26c-2.66699 -13.333 -13.667 -43.333 -33 -90c117.333 72 215.333 106.333 294 103c112 -4 168 -56.667 168 -158c0 -19.333 -2 -41 -6 -65zM458 625c-84.667 -65.333 -158.667 -136.667 -222 -214h123
c32.667 62.667 65.667 134 99 214zM336 368.999l-133.001 -0.000976562c-33.333 -44.667 -64 -92 -92 -142c-36 -65.333 -54 -116.666 -54 -153.999c0 -25.333 9 -38 27 -38c42.667 0 125.334 109 248.001 327z" />
    <glyph glyph-name="Ntilde" unicode="&#xd1;" horiz-adv-x="1440" 
d="M2053 729c0 -10.667 -2.66797 -16.333 -8.00098 -17c-6 -0.666992 -10.667 3.66602 -14 12.999c-5.33301 12 -16 22.333 -32 31c-18.667 10.667 -40 15.667 -64 15c-68.667 0 -146.334 -39 -233.001 -117c-56 -50.667 -123.333 -126 -202 -226l-220 -299
c-68.667 -88 -123.334 -132 -164.001 -132c-9.33301 0 -18.666 2 -27.999 6c-30 14 -45 46 -45 96c0 66 22.667 148 68 246c-182 -201.333 -368.333 -328.666 -559 -381.999c-67.333 -19.333 -134.666 -29 -201.999 -29c-78 0 -144 13 -198 39
c-60 29.333 -99 72.333 -117 129c-7.33301 22 -11 44 -11 66c0 76.667 38.667 146 116 208c79.333 64.667 189 112.667 329 144c76.667 17.333 154.667 26 234 26c93.333 0 184 -11.667 272 -35c71.333 -18.667 132 -42 182 -70l21 39
c54.667 108 104.167 193.833 148.5 257.5s74.833 92.167 91.5 85.5c4.66699 -2.66699 7 -7.66699 7 -15c0 -24 -21 -69.667 -63 -137c-19.333 -31.333 -47 -70.666 -83 -117.999c-65.333 -84 -98 -126.333 -98 -127c39.333 -24.667 59 -42.334 59 -53.001
c0 -1.33301 -0.666992 -2.66602 -2 -3.99902c-6.66699 -6.66699 -19.667 -2 -39 14c-8.66699 6.66699 -19.667 14 -33 22c-53.333 -112.667 -80 -204.667 -80 -276c0 -54.667 16 -82 48 -82c26.667 0 69.334 38.667 128.001 116l209 278c93.333 118 163 199 209 243
c104 99.333 196.333 145 277 137c26.667 -2.66699 50 -14.334 70 -35.001c17.333 -18.667 26 -37.667 26 -57zM1144 418.001c-42 26.667 -100.333 49.332 -175 67.999c-86 21.333 -175 32 -267 32c-76 0 -149.333 -7.66699 -220 -23
c-142.667 -31.333 -251.334 -79 -326.001 -143c-62.667 -54 -94 -111.333 -94 -172c0 -58.667 29.333 -101.667 88 -129c44.667 -21.333 100 -32 166 -32c42.667 0 89 4 139 12c114 18.667 236.667 64.334 368 137.001c120.667 66.667 216.334 137.667 287.001 213z
M1747 909.999c-1.33301 -13.333 -8.5 -24.833 -21.5 -34.5s-27.167 -14.5 -42.5 -14.5c-14.667 0.666992 -34.834 6.5 -60.501 17.5s-45.834 16.5 -60.501 16.5c-9.33301 0 -19.166 -4.5 -29.499 -13.5s-15.833 -13.5 -16.5 -13.5c-2.66699 0 -4 1.66699 -4 5
c1.33301 13.333 9.16602 26 23.499 38s29.833 18 46.5 18c14.667 0 36.334 -6.83301 65.001 -20.5s47 -20.5 55 -20.5c11.333 0 20.333 4.5 27 13.5s10.334 13.5 11.001 13.5c4.66699 0 7 -1.66699 7 -5z" />
    <glyph glyph-name="Ograve" unicode="&#xd2;" horiz-adv-x="684" 
d="M691 806c28 -10 50.166 -32.832 66.499 -68.499s24.5 -78.834 24.5 -129.501c0 -132 -46.333 -258.667 -139 -380c-63.333 -82.667 -133.833 -148.5 -211.5 -197.5s-150.167 -73.5 -217.5 -73.5c-48.667 0 -90.667 13.333 -126 40c-50 37.333 -75 96.333 -75 177
c0 110.667 41 221.334 123 332.001c108 146.667 216.667 238.334 326 275.001c10.667 3.33301 18 3.33301 22 0c6.66699 -4.66699 1.33398 -10 -15.999 -16c-28.667 -9.33301 -66.667 -32.666 -114 -69.999c-69.333 -53.333 -127.666 -116.333 -174.999 -189
c-59.333 -91.333 -89 -186 -89 -284c0 -96 28.667 -159.667 86 -191c26.667 -14.667 56.667 -22 90 -22c114 0 229.667 74.667 347 224c95.333 121.333 143 246.333 143 375c0 46 -6.83301 84.833 -20.5 116.5s-32.167 51.167 -55.5 58.5c-12.667 4.66699 -26 7 -40 7
c-66.667 0 -135.667 -53 -207 -159c-38 -57.333 -57 -110.333 -57 -159c0 -29.333 7.66699 -48.333 23 -57c9.33301 -4.66699 19.333 -7 30 -7c44 0 85.333 30 124 90c10.667 16 18.667 22.333 24 19c8.66699 -4 8.66699 -13.667 0 -29
c-13.333 -24.667 -35.333 -48.334 -66 -71.001c-34.667 -26 -67.667 -39 -99 -39c-17.333 0 -33 4.33301 -47 13c-29.333 17.333 -44 49.666 -44 96.999c0 43.333 12 85.666 36 126.999c32.667 56.667 76 104 130 142s105.667 57 155 57c17.333 0 33.666 -2.66699 48.999 -8
zM685.999 860.001c0 -4 -1.66797 -6 -5.00098 -6c-58 34 -97.333 58 -118 72c-9.33301 6 -13.333 14.667 -12 26c0.666992 16 8.33398 24 23.001 24c7.33301 0 14.333 -2.33301 21 -7c23.333 -32.667 44 -59 62 -79c6 -4.66699 11.667 -9.66699 17 -15
c8 -7.33301 12 -12.333 12 -15z" />
    <glyph glyph-name="Oacute" unicode="&#xd3;" horiz-adv-x="684" 
d="M691 806c28 -10 50.166 -32.832 66.499 -68.499s24.5 -78.834 24.5 -129.501c0 -132 -46.333 -258.667 -139 -380c-63.333 -82.667 -133.833 -148.5 -211.5 -197.5s-150.167 -73.5 -217.5 -73.5c-48.667 0 -90.667 13.333 -126 40c-50 37.333 -75 96.333 -75 177
c0 110.667 41 221.334 123 332.001c108 146.667 216.667 238.334 326 275.001c10.667 3.33301 18 3.33301 22 0c6.66699 -4.66699 1.33398 -10 -15.999 -16c-28.667 -9.33301 -66.667 -32.666 -114 -69.999c-69.333 -53.333 -127.666 -116.333 -174.999 -189
c-59.333 -91.333 -89 -186 -89 -284c0 -96 28.667 -159.667 86 -191c26.667 -14.667 56.667 -22 90 -22c114 0 229.667 74.667 347 224c95.333 121.333 143 246.333 143 375c0 46 -6.83301 84.833 -20.5 116.5s-32.167 51.167 -55.5 58.5c-12.667 4.66699 -26 7 -40 7
c-66.667 0 -135.667 -53 -207 -159c-38 -57.333 -57 -110.333 -57 -159c0 -29.333 7.66699 -48.333 23 -57c9.33301 -4.66699 19.333 -7 30 -7c44 0 85.333 30 124 90c10.667 16 18.667 22.333 24 19c8.66699 -4 8.66699 -13.667 0 -29
c-13.333 -24.667 -35.333 -48.334 -66 -71.001c-34.667 -26 -67.667 -39 -99 -39c-17.333 0 -33 4.33301 -47 13c-29.333 17.333 -44 49.666 -44 96.999c0 43.333 12 85.666 36 126.999c32.667 56.667 76 104 130 142s105.667 57 155 57c17.333 0 33.666 -2.66699 48.999 -8
zM804.999 941.001c-0.666992 -10.667 -6.33203 -18.667 -16.999 -24l-93 -43c-8 -5.33301 -19.667 -11.666 -35 -18.999c-0.666992 -0.666992 -1.33398 -1 -2.00098 -1h-2c-3.33301 0 -5 2 -5 6c0 0.666992 1.33301 2 4 4c27.333 25.333 63.333 56.666 108 93.999
c6 4 13 6 21 6c15.333 0 22.333 -7.66699 21 -23z" />
    <glyph glyph-name="Ocircumflex" unicode="&#xd4;" horiz-adv-x="684" 
d="M691 806c28 -10 50.166 -32.832 66.499 -68.499s24.5 -78.834 24.5 -129.501c0 -132 -46.333 -258.667 -139 -380c-63.333 -82.667 -133.833 -148.5 -211.5 -197.5s-150.167 -73.5 -217.5 -73.5c-48.667 0 -90.667 13.333 -126 40c-50 37.333 -75 96.333 -75 177
c0 110.667 41 221.334 123 332.001c108 146.667 216.667 238.334 326 275.001c10.667 3.33301 18 3.33301 22 0c6.66699 -4.66699 1.33398 -10 -15.999 -16c-28.667 -9.33301 -66.667 -32.666 -114 -69.999c-69.333 -53.333 -127.666 -116.333 -174.999 -189
c-59.333 -91.333 -89 -186 -89 -284c0 -96 28.667 -159.667 86 -191c26.667 -14.667 56.667 -22 90 -22c114 0 229.667 74.667 347 224c95.333 121.333 143 246.333 143 375c0 46 -6.83301 84.833 -20.5 116.5s-32.167 51.167 -55.5 58.5c-12.667 4.66699 -26 7 -40 7
c-66.667 0 -135.667 -53 -207 -159c-38 -57.333 -57 -110.333 -57 -159c0 -29.333 7.66699 -48.333 23 -57c9.33301 -4.66699 19.333 -7 30 -7c44 0 85.333 30 124 90c10.667 16 18.667 22.333 24 19c8.66699 -4 8.66699 -13.667 0 -29
c-13.333 -24.667 -35.333 -48.334 -66 -71.001c-34.667 -26 -67.667 -39 -99 -39c-17.333 0 -33 4.33301 -47 13c-29.333 17.333 -44 49.666 -44 96.999c0 43.333 12 85.666 36 126.999c32.667 56.667 76 104 130 142s105.667 57 155 57c17.333 0 33.666 -2.66699 48.999 -8
zM762.999 866.001c-1.33301 -2 -2.99902 -2.99707 -4.99902 -2.99707h-29l-5 2l-38 64l-106 -71c-2.66699 0 -5 1.5 -7 4.5s-2.66699 5.5 -2 7.5c3.33301 5.33301 46.666 34.666 129.999 87.999c1.33301 1.33301 3 2 5 2c0.666992 0 2 -1 4 -3
c5.33301 -6.66699 22.333 -35.334 51 -86.001c1.33301 -2.66699 2 -4.33398 2 -5.00098z" />
    <glyph glyph-name="Otilde" unicode="&#xd5;" horiz-adv-x="684" 
d="M691 806c28 -10 50.166 -32.832 66.499 -68.499s24.5 -78.834 24.5 -129.501c0 -132 -46.333 -258.667 -139 -380c-63.333 -82.667 -133.833 -148.5 -211.5 -197.5s-150.167 -73.5 -217.5 -73.5c-48.667 0 -90.667 13.333 -126 40c-50 37.333 -75 96.333 -75 177
c0 110.667 41 221.334 123 332.001c108 146.667 216.667 238.334 326 275.001c10.667 3.33301 18 3.33301 22 0c6.66699 -4.66699 1.33398 -10 -15.999 -16c-28.667 -9.33301 -66.667 -32.666 -114 -69.999c-69.333 -53.333 -127.666 -116.333 -174.999 -189
c-59.333 -91.333 -89 -186 -89 -284c0 -96 28.667 -159.667 86 -191c26.667 -14.667 56.667 -22 90 -22c114 0 229.667 74.667 347 224c95.333 121.333 143 246.333 143 375c0 46 -6.83301 84.833 -20.5 116.5s-32.167 51.167 -55.5 58.5c-12.667 4.66699 -26 7 -40 7
c-66.667 0 -135.667 -53 -207 -159c-38 -57.333 -57 -110.333 -57 -159c0 -29.333 7.66699 -48.333 23 -57c9.33301 -4.66699 19.333 -7 30 -7c44 0 85.333 30 124 90c10.667 16 18.667 22.333 24 19c8.66699 -4 8.66699 -13.667 0 -29
c-13.333 -24.667 -35.333 -48.334 -66 -71.001c-34.667 -26 -67.667 -39 -99 -39c-17.333 0 -33 4.33301 -47 13c-29.333 17.333 -44 49.666 -44 96.999c0 43.333 12 85.666 36 126.999c32.667 56.667 76 104 130 142s105.667 57 155 57c17.333 0 33.666 -2.66699 48.999 -8
zM771.999 910.001c-0.666992 -13.333 -7.50195 -24.833 -20.502 -34.5s-27.167 -14.5 -42.5 -14.5c-14.667 0 -35 5.66699 -61 17s-46.333 17 -61 17c-8.66699 0 -18.334 -4.5 -29.001 -13.5s-16.334 -13.5 -17.001 -13.5c-2.66699 0 -3.66699 1.66699 -3 5
c0.666992 13.333 8.33398 26 23.001 38s30.334 18 47.001 18c14 0 35.333 -6.83301 64 -20.5s47.334 -20.5 56.001 -20.5c10.667 0 19.334 4.5 26.001 13.5s10.667 13.5 12 13.5c4.66699 0 6.66699 -1.66699 6 -5z" />
    <glyph glyph-name="Odieresis" unicode="&#xd6;" horiz-adv-x="684" 
d="M691 806c28 -10 50.166 -32.832 66.499 -68.499s24.5 -78.834 24.5 -129.501c0 -132 -46.333 -258.667 -139 -380c-63.333 -82.667 -133.833 -148.5 -211.5 -197.5s-150.167 -73.5 -217.5 -73.5c-48.667 0 -90.667 13.333 -126 40c-50 37.333 -75 96.333 -75 177
c0 110.667 41 221.334 123 332.001c108 146.667 216.667 238.334 326 275.001c10.667 3.33301 18 3.33301 22 0c6.66699 -4.66699 1.33398 -10 -15.999 -16c-28.667 -9.33301 -66.667 -32.666 -114 -69.999c-69.333 -53.333 -127.666 -116.333 -174.999 -189
c-59.333 -91.333 -89 -186 -89 -284c0 -96 28.667 -159.667 86 -191c26.667 -14.667 56.667 -22 90 -22c114 0 229.667 74.667 347 224c95.333 121.333 143 246.333 143 375c0 46 -6.83301 84.833 -20.5 116.5s-32.167 51.167 -55.5 58.5c-12.667 4.66699 -26 7 -40 7
c-66.667 0 -135.667 -53 -207 -159c-38 -57.333 -57 -110.333 -57 -159c0 -29.333 7.66699 -48.333 23 -57c9.33301 -4.66699 19.333 -7 30 -7c44 0 85.333 30 124 90c10.667 16 18.667 22.333 24 19c8.66699 -4 8.66699 -13.667 0 -29
c-13.333 -24.667 -35.333 -48.334 -66 -71.001c-34.667 -26 -67.667 -39 -99 -39c-17.333 0 -33 4.33301 -47 13c-29.333 17.333 -44 49.666 -44 96.999c0 43.333 12 85.666 36 126.999c32.667 56.667 76 104 130 142s105.667 57 155 57c17.333 0 33.666 -2.66699 48.999 -8
zM738.999 898.001c-1.33301 -18 -11 -27 -29 -27s-26.667 9 -26 27c1.33301 18 11.333 27 30 27c18 0 26.333 -9 25 -27zM634.999 898.001c-1.33301 -18 -11 -27 -29 -27s-26.667 9 -26 27c1.33301 18 11.333 27 30 27c18 0 26.333 -9 25 -27z" />
    <glyph glyph-name="Oslash" unicode="&#xd8;" horiz-adv-x="684" 
d="M818 789l-58.001 -54.002c14.667 -33.333 22 -74 22 -122c0 -130.667 -47 -257.334 -141 -380.001c-63.333 -84 -134 -150.833 -212 -200.5s-150.667 -74.5 -218 -74.5c-47.333 0 -88.333 13 -123 39c-23.333 17.333 -41.333 40 -54 68l-56 -53v35l47 43
c-8 25.333 -12 53.333 -12 84c0 110.667 41 221.334 123 332.001c108 146.667 216.667 238.334 326 275.001c10.667 3.33301 18 3.33301 22 0c6.66699 -4.66699 1.33398 -10 -15.999 -16c-28.667 -9.33301 -66.667 -32.666 -114 -69.999
c-69.333 -53.333 -127.666 -116.333 -174.999 -189c-59.333 -91.333 -89 -186 -89 -284c0 -23.333 2 -45.333 6 -66l260 241c-24.667 20 -37 51.667 -37 95c0 44 12.667 85 38 123c36 54.667 79.667 100.667 131 138c56 40 108.333 60 157 60
c45.333 0 79.666 -18 102.999 -54l70 65v-35zM728.999 741.998c-18.667 31.333 -47.667 47 -87 47c-68 0 -137.667 -52.667 -209 -158c-38 -57.333 -57 -110.333 -57 -159c0 -20 4 -35.333 12 -46zM740.999 717.998l-332.001 -306.998c6.66699 -2 13.334 -3 20.001 -3
c44 0 85.333 30 124 90c10.667 16 18.667 22.333 24 19c8.66699 -4 8.66699 -13.667 0 -29c-13.333 -24.667 -35.333 -48.334 -66 -71.001c-34.667 -26 -67.667 -39 -99 -39c-11.333 0 -22 2 -32 6l-277 -256c14.667 -46 39 -78.333 73 -97c26 -14 55.333 -21 88 -21
c112.667 0 228.667 75.667 348 227c97.333 124 146 250 146 378c0 39.333 -5.66699 73.666 -17 102.999z" />
    <glyph glyph-name="Ugrave" unicode="&#xd9;" horiz-adv-x="1063" 
d="M1294 800c2 -6 -42.668 -73.333 -134.001 -202c-105.333 -147.333 -159.333 -223 -162 -227l-118 -179c-43.333 -68.667 -65 -116 -65 -142c0 -18.667 10 -28 30 -28c30 0 56.667 10.667 80 32c9.33301 8.66699 16.333 11.334 21 8.00098
c6 -4.66699 3.83301 -13 -6.5 -25s-26.833 -22.833 -49.5 -32.5s-44.334 -14.5 -65.001 -14.5c-20 0 -35 5.66699 -45 17s-15 26.666 -15 45.999c0 46.667 32.667 123.667 98 231c-25.333 -25.333 -51.333 -48.666 -78 -69.999c-180.667 -150 -315 -225 -403 -225
c-15.333 0 -29 2.66699 -41 8c-30.667 14 -46 39 -46 75c0 45.333 20.667 91.333 62 138c30.667 34.667 84.334 83 161.001 145c68.667 56 117.334 103 146.001 141c48 62.667 72 121.667 72 177c0 38 -13.333 67.5 -40 88.5s-63 31.5 -109 31.5
c-76 0 -161.667 -26.667 -257 -80c-71.333 -39.333 -133 -92.333 -185 -159s-78 -126.334 -78 -179.001c0 -20 4.33301 -37.333 13 -52c18.667 -32.667 52.334 -49 101.001 -49c36.667 0 78 8.66699 124 26c40 15.333 72.333 32.666 97 51.999
c69.333 52.667 115.666 117 138.999 193c3.33301 12 9 18.333 17 19c4 0.666992 7.16699 -0.833008 9.5 -4.5s2.5 -8.5 0.5 -14.5c-10 -35.333 -21.333 -63.666 -34 -84.999c-25.333 -42.667 -64.666 -84.334 -117.999 -125.001c-28 -21.333 -62.667 -40 -104 -56
c-47.333 -17.333 -91 -26 -131 -26c-61.333 0 -104.666 21 -129.999 63c-20 32.667 -30 69.334 -30 110.001c0 49.333 14.667 98.666 44 147.999c32 52.667 77.667 99.667 137 141c104 72.667 215.667 109 335 109c78.667 0 137 -15.333 175 -46
c32 -25.333 48 -62.666 48 -111.999c0 -61.333 -21.667 -125 -65 -191c-24.667 -37.333 -59.334 -78 -104.001 -122c-58.667 -57.333 -97.667 -97 -117 -119c-62.667 -74 -94 -131.333 -94 -172c0 -26.667 12.333 -40 37 -40c35.333 0 96.666 28 183.999 84
c67.333 43.333 125 85.333 173 126c77.333 65.333 136.666 129 177.999 191l232 351c2.66699 2 14.834 6.66699 36.501 14s39.167 12 52.5 14c12.667 2 19.667 1.33301 21 -2zM983.999 838c-0.666992 -4 -2.66699 -6.00098 -6 -6.00098c-58 34 -97.333 58 -118 72
c-8.66699 6 -12.667 14.667 -12 26c1.33301 16 9.33301 24 24 24c6.66699 0 13.334 -2.33301 20.001 -7c23.333 -33.333 44.333 -59.666 63 -78.999c5.33301 -5.33301 10.666 -10.333 15.999 -15c8.66699 -8 13 -13 13 -15z" />
    <glyph glyph-name="Uacute" unicode="&#xda;" horiz-adv-x="1063" 
d="M1294 800c2 -6 -42.668 -73.333 -134.001 -202c-105.333 -147.333 -159.333 -223 -162 -227l-118 -179c-43.333 -68.667 -65 -116 -65 -142c0 -18.667 10 -28 30 -28c30 0 56.667 10.667 80 32c9.33301 8.66699 16.333 11.334 21 8.00098
c6 -4.66699 3.83301 -13 -6.5 -25s-26.833 -22.833 -49.5 -32.5s-44.334 -14.5 -65.001 -14.5c-20 0 -35 5.66699 -45 17s-15 26.666 -15 45.999c0 46.667 32.667 123.667 98 231c-25.333 -25.333 -51.333 -48.666 -78 -69.999c-180.667 -150 -315 -225 -403 -225
c-15.333 0 -29 2.66699 -41 8c-30.667 14 -46 39 -46 75c0 45.333 20.667 91.333 62 138c30.667 34.667 84.334 83 161.001 145c68.667 56 117.334 103 146.001 141c48 62.667 72 121.667 72 177c0 38 -13.333 67.5 -40 88.5s-63 31.5 -109 31.5
c-76 0 -161.667 -26.667 -257 -80c-71.333 -39.333 -133 -92.333 -185 -159s-78 -126.334 -78 -179.001c0 -20 4.33301 -37.333 13 -52c18.667 -32.667 52.334 -49 101.001 -49c36.667 0 78 8.66699 124 26c40 15.333 72.333 32.666 97 51.999
c69.333 52.667 115.666 117 138.999 193c3.33301 12 9 18.333 17 19c4 0.666992 7.16699 -0.833008 9.5 -4.5s2.5 -8.5 0.5 -14.5c-10 -35.333 -21.333 -63.666 -34 -84.999c-25.333 -42.667 -64.666 -84.334 -117.999 -125.001c-28 -21.333 -62.667 -40 -104 -56
c-47.333 -17.333 -91 -26 -131 -26c-61.333 0 -104.666 21 -129.999 63c-20 32.667 -30 69.334 -30 110.001c0 49.333 14.667 98.666 44 147.999c32 52.667 77.667 99.667 137 141c104 72.667 215.667 109 335 109c78.667 0 137 -15.333 175 -46
c32 -25.333 48 -62.666 48 -111.999c0 -61.333 -21.667 -125 -65 -191c-24.667 -37.333 -59.334 -78 -104.001 -122c-58.667 -57.333 -97.667 -97 -117 -119c-62.667 -74 -94 -131.333 -94 -172c0 -26.667 12.333 -40 37 -40c35.333 0 96.666 28 183.999 84
c67.333 43.333 125 85.333 173 126c77.333 65.333 136.666 129 177.999 191l232 351c2.66699 2 14.834 6.66699 36.501 14s39.167 12 52.5 14c12.667 2 19.667 1.33301 21 -2zM1100 936c-1.33301 -10.667 -6.99805 -18.668 -16.998 -24.001
c-21.333 -9.33301 -52.333 -23.666 -93 -42.999c-8 -5.33301 -20 -11.666 -36 -18.999c-0.666992 0 -1.33398 -0.333008 -2.00098 -1h-2c-3.33301 0 -4.66602 2 -3.99902 6c0 0.666992 1 2 3 4c27.333 25.333 63.666 56.666 108.999 93.999c5.33301 4 12 6 20 6
c15.333 0 22.666 -7.66699 21.999 -23z" />
    <glyph glyph-name="Ucircumflex" unicode="&#xdb;" horiz-adv-x="1063" 
d="M1294 800c2 -6 -42.668 -73.333 -134.001 -202c-105.333 -147.333 -159.333 -223 -162 -227l-118 -179c-43.333 -68.667 -65 -116 -65 -142c0 -18.667 10 -28 30 -28c30 0 56.667 10.667 80 32c9.33301 8.66699 16.333 11.334 21 8.00098
c6 -4.66699 3.83301 -13 -6.5 -25s-26.833 -22.833 -49.5 -32.5s-44.334 -14.5 -65.001 -14.5c-20 0 -35 5.66699 -45 17s-15 26.666 -15 45.999c0 46.667 32.667 123.667 98 231c-25.333 -25.333 -51.333 -48.666 -78 -69.999c-180.667 -150 -315 -225 -403 -225
c-15.333 0 -29 2.66699 -41 8c-30.667 14 -46 39 -46 75c0 45.333 20.667 91.333 62 138c30.667 34.667 84.334 83 161.001 145c68.667 56 117.334 103 146.001 141c48 62.667 72 121.667 72 177c0 38 -13.333 67.5 -40 88.5s-63 31.5 -109 31.5
c-76 0 -161.667 -26.667 -257 -80c-71.333 -39.333 -133 -92.333 -185 -159s-78 -126.334 -78 -179.001c0 -20 4.33301 -37.333 13 -52c18.667 -32.667 52.334 -49 101.001 -49c36.667 0 78 8.66699 124 26c40 15.333 72.333 32.666 97 51.999
c69.333 52.667 115.666 117 138.999 193c3.33301 12 9 18.333 17 19c4 0.666992 7.16699 -0.833008 9.5 -4.5s2.5 -8.5 0.5 -14.5c-10 -35.333 -21.333 -63.666 -34 -84.999c-25.333 -42.667 -64.666 -84.334 -117.999 -125.001c-28 -21.333 -62.667 -40 -104 -56
c-47.333 -17.333 -91 -26 -131 -26c-61.333 0 -104.666 21 -129.999 63c-20 32.667 -30 69.334 -30 110.001c0 49.333 14.667 98.666 44 147.999c32 52.667 77.667 99.667 137 141c104 72.667 215.667 109 335 109c78.667 0 137 -15.333 175 -46
c32 -25.333 48 -62.666 48 -111.999c0 -61.333 -21.667 -125 -65 -191c-24.667 -37.333 -59.334 -78 -104.001 -122c-58.667 -57.333 -97.667 -97 -117 -119c-62.667 -74 -94 -131.333 -94 -172c0 -26.667 12.333 -40 37 -40c35.333 0 96.666 28 183.999 84
c67.333 43.333 125 85.333 173 126c77.333 65.333 136.666 129 177.999 191l232 351c2.66699 2 14.834 6.66699 36.501 14s39.167 12 52.5 14c12.667 2 19.667 1.33301 21 -2zM1086 849c-0.666992 -2 -1.99902 -2.99707 -3.99902 -2.99707h-29l-5 2l-38 64l-106 -71
c-2.66699 0 -5 1.5 -7 4.5s-2.66699 5.5 -2 7.5c3.33301 5.33301 46.666 34.666 129.999 87.999c1.33301 1.33301 3 2 5 2c0.666992 0 2 -1 4 -3c4.66699 -6.66699 21.667 -35.334 51 -86.001c0.666992 -2.66699 1 -4.33398 1 -5.00098z" />
    <glyph glyph-name="Udieresis" unicode="&#xdc;" horiz-adv-x="1063" 
d="M1294 800c2 -6 -42.668 -73.333 -134.001 -202c-105.333 -147.333 -159.333 -223 -162 -227l-118 -179c-43.333 -68.667 -65 -116 -65 -142c0 -18.667 10 -28 30 -28c30 0 56.667 10.667 80 32c9.33301 8.66699 16.333 11.334 21 8.00098
c6 -4.66699 3.83301 -13 -6.5 -25s-26.833 -22.833 -49.5 -32.5s-44.334 -14.5 -65.001 -14.5c-20 0 -35 5.66699 -45 17s-15 26.666 -15 45.999c0 46.667 32.667 123.667 98 231c-25.333 -25.333 -51.333 -48.666 -78 -69.999c-180.667 -150 -315 -225 -403 -225
c-15.333 0 -29 2.66699 -41 8c-30.667 14 -46 39 -46 75c0 45.333 20.667 91.333 62 138c30.667 34.667 84.334 83 161.001 145c68.667 56 117.334 103 146.001 141c48 62.667 72 121.667 72 177c0 38 -13.333 67.5 -40 88.5s-63 31.5 -109 31.5
c-76 0 -161.667 -26.667 -257 -80c-71.333 -39.333 -133 -92.333 -185 -159s-78 -126.334 -78 -179.001c0 -20 4.33301 -37.333 13 -52c18.667 -32.667 52.334 -49 101.001 -49c36.667 0 78 8.66699 124 26c40 15.333 72.333 32.666 97 51.999
c69.333 52.667 115.666 117 138.999 193c3.33301 12 9 18.333 17 19c4 0.666992 7.16699 -0.833008 9.5 -4.5s2.5 -8.5 0.5 -14.5c-10 -35.333 -21.333 -63.666 -34 -84.999c-25.333 -42.667 -64.666 -84.334 -117.999 -125.001c-28 -21.333 -62.667 -40 -104 -56
c-47.333 -17.333 -91 -26 -131 -26c-61.333 0 -104.666 21 -129.999 63c-20 32.667 -30 69.334 -30 110.001c0 49.333 14.667 98.666 44 147.999c32 52.667 77.667 99.667 137 141c104 72.667 215.667 109 335 109c78.667 0 137 -15.333 175 -46
c32 -25.333 48 -62.666 48 -111.999c0 -61.333 -21.667 -125 -65 -191c-24.667 -37.333 -59.334 -78 -104.001 -122c-58.667 -57.333 -97.667 -97 -117 -119c-62.667 -74 -94 -131.333 -94 -172c0 -26.667 12.333 -40 37 -40c35.333 0 96.666 28 183.999 84
c67.333 43.333 125 85.333 173 126c77.333 65.333 136.666 129 177.999 191l232 351c2.66699 2 14.834 6.66699 36.501 14s39.167 12 52.5 14c12.667 2 19.667 1.33301 21 -2zM1061 863c-1.33301 -18.667 -11.001 -28 -29.001 -28s-26.333 9.33301 -25 28
c0.666992 18 10.334 27 29.001 27c18 0 26.333 -9 25 -27zM956.998 863c-1.33301 -18.667 -11.001 -28 -29.001 -28s-26.333 9.33301 -25 28c0.666992 18 10.334 27 29.001 27c18 0 26.333 -9 25 -27z" />
    <glyph glyph-name="Yacute" unicode="&#xdd;" horiz-adv-x="1052" 
d="M1049 413c0 -60 -24.335 -137.668 -73.002 -233.001c-58 -115.333 -136 -219 -234 -311c-74 -69.333 -156.333 -130 -247 -182c-98 -56 -176.333 -84 -235 -84c-35.333 0 -60.666 10.667 -75.999 32c-5.33301 8 -8 17.333 -8 28c0 26.667 19 56.834 57 90.501
s88.667 63.834 152 90.501c82 34.667 166.667 52 254 52c30.667 0 59.334 -2 86.001 -6c84 77.333 156 170.333 216 279c53.333 98 80 173.333 80 226c0 26 -7.33301 39 -22 39c-16.667 0 -49 -25 -97 -75c-78 -81.333 -122 -126.666 -132 -135.999
c-68 -61.333 -134.667 -112.666 -200 -153.999c-83.333 -53.333 -149.666 -80 -198.999 -80c-15.333 0 -29 2.66699 -41 8c-30 14 -45 39 -45 75c0 45.333 20.667 91.333 62 138c30 34 83.667 82 161 144c69.333 55.333 118 102.666 146 141.999
c45.333 62 68 120.333 68 175c0 38 -12.167 68.333 -36.5 91s-60.166 34 -107.499 34c-76.667 0 -162.667 -27.667 -258 -83c-68.667 -39.333 -129.334 -92.333 -182.001 -159c-53.333 -68.667 -80 -129 -80 -181c0 -19.333 4 -36 12 -50c18 -32.667 51.667 -49 101 -49
c36.667 0 77.667 8.66699 123 26c40 15.333 72.667 32.666 98 51.999c69.333 52.667 115.666 117 138.999 193c3.33301 12 9 18.333 17 19c4 0.666992 7.16699 -0.833008 9.5 -4.5s2.5 -8.5 0.5 -14.5c-10 -35.333 -21.333 -63.666 -34 -84.999
c-26 -42.667 -65.333 -84.334 -118 -125.001c-28 -21.333 -62.667 -40 -104 -56c-47.333 -17.333 -91 -26 -131 -26c-61.333 0 -104.666 21 -129.999 63c-20 32.667 -30 69 -30 109c0 49.333 14.667 98.666 44 147.999c32 52.667 77.667 100 137 142
c104.667 74.667 217 112 337 112c80 0 137.667 -16.333 173 -49c31.333 -28 47 -67.333 47 -118c0 -63.333 -21.333 -125 -64 -185c-26 -36 -61.333 -76.333 -106 -121c-56 -56 -94.333 -96 -115 -120c-62.667 -74 -94 -131.333 -94 -172c0 -26.667 12 -40 36 -40
c34 0 94 30 180 90c68.667 48 125 93.333 169 136l204 198c15.333 14 30.666 21 45.999 21c29.333 0 44 -18 44 -54zM703.998 -129.001c-22 2.66699 -44.333 4 -67 4c-77.333 0 -148.333 -13 -213 -39c-55.333 -22.667 -100.333 -49.667 -135 -81s-52 -59.333 -52 -84
c0 -24 14 -36 42 -36c42.667 0 102 19.667 178 59c86 45.333 168.333 104.333 247 177zM1038 871.999c-0.666992 -10.667 -6.33203 -18.668 -16.999 -24.001l-93 -43c-8 -5.33301 -19.667 -11.666 -35 -18.999c-0.666992 -0.666992 -1.33398 -1 -2.00098 -1h-2
c-3.33301 0 -5 2 -5 6c0 0.666992 1.33301 2 4 4l108 94c6 4 13 6 21 6c15.333 0 22.333 -7.66699 21 -23z" />
    <glyph glyph-name="germandbls" unicode="&#xdf;" horiz-adv-x="546" 
d="M767 715c-8 -61.333 -49.332 -124.996 -123.999 -190.996c-68 -60.667 -136 -101.334 -204 -122.001c30.667 -24 46 -61.667 46 -113c0 -62.667 -23.667 -122.667 -71 -180c-44.667 -53.333 -98 -91 -160 -113c69.333 3.33301 143 36.333 221 99
c51.333 41.333 101.666 86.666 150.999 135.999c1.33301 2 3.66602 3 6.99902 3c7.33301 0 11 -3.66699 11 -11c0 -3.33301 -1.66699 -7 -5 -11c-26.667 -30 -66.667 -66.667 -120 -110c-58 -46 -101.667 -76.667 -131 -92c-48 -25.333 -99 -38 -153 -38
c-41.333 0 -74.666 7.33301 -99.999 22c-30.667 18 -46 45.667 -46 83c0 27.333 8.5 53.166 25.5 77.499s38.833 36.833 65.5 37.5c11.333 0 20 -3.66699 26 -11s8.66699 -16.333 8 -27c-2.66699 -22 -16.667 -33 -42 -33c-2.66699 0 -6.83398 1.16699 -12.501 3.5
s-10.167 3.16602 -13.5 2.49902c-17.333 -2 -27.333 -16.333 -30 -43c-2 -22.667 3 -41 15 -55s28.667 -21 50 -21c49.333 0 102 39.333 158 118c50 72 78.667 136 86 192c4 32 -2 56 -18 72c-13.333 -3.33301 -26.666 -5 -39.999 -5c-26.667 0 -39.334 6.33301 -38.001 19
c2 12.667 14.333 19 37 19c18.667 0 34 -2 46 -6c61.333 11.333 128.333 48.333 201 111c77.333 65.333 119.333 126.333 126 183c6 45.333 -14 68 -60 68c-50 0 -105 -25 -165 -75c-65.333 -55.333 -148.666 -156 -249.999 -302c-50 -71.333 -109 -160.666 -177 -267.999
l-171 -271l-81 -126c-26 -38.667 -42 -60 -48 -64c-14 -8 -33 -16.5 -57 -25.5s-41.333 -13.5 -52 -13.5c-11.333 0 -17 2.66699 -17 8s4.33301 9.66602 13 12.999c16 8 31 21.333 45 40l46 70l161 249c110.667 163.333 207.667 297.333 291 402
c88.667 110 158.667 190 210 240c100.667 98 185 147 253 147c65.333 0 94.333 -29.333 87 -88z" />
    <glyph glyph-name="agrave" unicode="&#xe0;" 
d="M575 211c-28.667 -34.667 -73.6709 -75.0049 -135.004 -121.005c-88 -65.333 -149 -95.666 -183 -90.999c-36 4.66699 -54 25.334 -54 62.001c0 8.66699 1.33301 17.667 4 27c-53.333 -61.333 -99.666 -91 -138.999 -89c-41.333 2 -62 27.333 -62 76
c0 45.333 21.333 95 64 149s93.334 98.667 152.001 134c54 31.333 99.667 47 137 47c16 0 28.667 -3.66699 38 -11s13 -18.666 11 -33.999c15.333 15.333 24.666 24.333 27.999 27s8 4.33398 14 5.00098c6.66699 1.33301 12 1.33301 16 0c4 -0.666992 5 -2.66699 3 -6
l-112 -165c-47.333 -73.333 -73 -125.666 -77 -156.999c-3.33301 -20 2.33398 -30 17.001 -30c25.333 0 72 27.667 140 83c60.667 48.667 101.334 86 122.001 112c2.66699 3.33301 6.33398 5 11.001 5c8 0 12 -3.33301 12 -10c0 -4 -2.33301 -8.33301 -7 -13z
M372.996 317.995c8 10 12.002 21.665 12.002 34.998c0 20 -9.66699 30 -29 30c-20.667 0 -47 -10.333 -79 -31c-34.667 -22 -68 -51.333 -100 -88c-72 -81.333 -108 -148.666 -108 -201.999c0 -22.667 7.66699 -34 23 -34c17.333 0 44.666 18 81.999 54
c31.333 30 59.666 62 84.999 96c32 42.667 70 89.334 114 140.001zM410.998 455.993c0 -4 -1.66797 -6 -5.00098 -6c-58 34 -97.333 58 -118 72c-8.66699 6 -12.667 14.667 -12 26c0.666992 16 8.33398 24 23.001 24c7.33301 0 14.333 -2.33301 21 -7
c23.333 -32.667 44 -59 62 -79c6 -4.66699 11.667 -9.66699 17 -15c8.66699 -7.33301 12.667 -12.333 12 -15z" />
    <glyph glyph-name="aacute" unicode="&#xe1;" 
d="M575 211c-28.667 -34.667 -73.6709 -75.0049 -135.004 -121.005c-88 -65.333 -149 -95.666 -183 -90.999c-36 4.66699 -54 25.334 -54 62.001c0 8.66699 1.33301 17.667 4 27c-53.333 -61.333 -99.666 -91 -138.999 -89c-41.333 2 -62 27.333 -62 76
c0 45.333 21.333 95 64 149s93.334 98.667 152.001 134c54 31.333 99.667 47 137 47c16 0 28.667 -3.66699 38 -11s13 -18.666 11 -33.999c15.333 15.333 24.666 24.333 27.999 27s8 4.33398 14 5.00098c6.66699 1.33301 12 1.33301 16 0c4 -0.666992 5 -2.66699 3 -6
l-112 -165c-47.333 -73.333 -73 -125.666 -77 -156.999c-3.33301 -20 2.33398 -30 17.001 -30c25.333 0 72 27.667 140 83c60.667 48.667 101.334 86 122.001 112c2.66699 3.33301 6.33398 5 11.001 5c8 0 12 -3.33301 12 -10c0 -4 -2.33301 -8.33301 -7 -13z
M372.996 317.995c8 10 12.002 21.665 12.002 34.998c0 20 -9.66699 30 -29 30c-20.667 0 -47 -10.333 -79 -31c-34.667 -22 -68 -51.333 -100 -88c-72 -81.333 -108 -148.666 -108 -201.999c0 -22.667 7.66699 -34 23 -34c17.333 0 44.666 18 81.999 54
c31.333 30 59.666 62 84.999 96c32 42.667 70 89.334 114 140.001zM525.998 532.993c-0.666992 -10.667 -6.33008 -18.668 -16.9971 -24.001c-21.333 -9.33301 -52.333 -23.666 -93 -42.999c-8 -5.33301 -19.667 -11.666 -35 -18.999
c-0.666992 -0.666992 -1.33398 -1 -2.00098 -1h-2c-3.33301 0 -5 2 -5 6c0 0.666992 1 2 3 4c27.333 25.333 63.666 56.666 108.999 93.999c6 4 12.667 6 20 6c15.333 0 22.666 -7.66699 21.999 -23z" />
    <glyph glyph-name="acircumflex" unicode="&#xe2;" 
d="M575 211c-28.667 -34.667 -73.6709 -75.0049 -135.004 -121.005c-88 -65.333 -149 -95.666 -183 -90.999c-36 4.66699 -54 25.334 -54 62.001c0 8.66699 1.33301 17.667 4 27c-53.333 -61.333 -99.666 -91 -138.999 -89c-41.333 2 -62 27.333 -62 76
c0 45.333 21.333 95 64 149s93.334 98.667 152.001 134c54 31.333 99.667 47 137 47c16 0 28.667 -3.66699 38 -11s13 -18.666 11 -33.999c15.333 15.333 24.666 24.333 27.999 27s8 4.33398 14 5.00098c6.66699 1.33301 12 1.33301 16 0c4 -0.666992 5 -2.66699 3 -6
l-112 -165c-47.333 -73.333 -73 -125.666 -77 -156.999c-3.33301 -20 2.33398 -30 17.001 -30c25.333 0 72 27.667 140 83c60.667 48.667 101.334 86 122.001 112c2.66699 3.33301 6.33398 5 11.001 5c8 0 12 -3.33301 12 -10c0 -4 -2.33301 -8.33301 -7 -13z
M372.996 317.995c8 10 12.002 21.665 12.002 34.998c0 20 -9.66699 30 -29 30c-20.667 0 -47 -10.333 -79 -31c-34.667 -22 -68 -51.333 -100 -88c-72 -81.333 -108 -148.666 -108 -201.999c0 -22.667 7.66699 -34 23 -34c17.333 0 44.666 18 81.999 54
c31.333 30 59.666 62 84.999 96c32 42.667 70 89.334 114 140.001zM481.998 451.993c-1.33301 -2 -2.66504 -2.99609 -3.99805 -2.99609h-29l-5 2c-12.667 19.333 -25.334 40.666 -38.001 63.999l-106 -71c-2.66699 0 -5.16699 1.66699 -7.5 5
s-2.83301 5.66602 -1.5 6.99902c3.33301 6 46.666 35.333 129.999 88c1.33301 1.33301 3 2 5 2c0.666992 0 2 -1 4 -3c4.66699 -6.66699 21.667 -35.334 51 -86.001c0.666992 -2.66699 1 -4.33398 1 -5.00098z" />
    <glyph glyph-name="atilde" unicode="&#xe3;" 
d="M575 211c-28.667 -34.667 -73.6709 -75.0049 -135.004 -121.005c-88 -65.333 -149 -95.666 -183 -90.999c-36 4.66699 -54 25.334 -54 62.001c0 8.66699 1.33301 17.667 4 27c-53.333 -61.333 -99.666 -91 -138.999 -89c-41.333 2 -62 27.333 -62 76
c0 45.333 21.333 95 64 149s93.334 98.667 152.001 134c54 31.333 99.667 47 137 47c16 0 28.667 -3.66699 38 -11s13 -18.666 11 -33.999c15.333 15.333 24.666 24.333 27.999 27s8 4.33398 14 5.00098c6.66699 1.33301 12 1.33301 16 0c4 -0.666992 5 -2.66699 3 -6
l-112 -165c-47.333 -73.333 -73 -125.666 -77 -156.999c-3.33301 -20 2.33398 -30 17.001 -30c25.333 0 72 27.667 140 83c60.667 48.667 101.334 86 122.001 112c2.66699 3.33301 6.33398 5 11.001 5c8 0 12 -3.33301 12 -10c0 -4 -2.33301 -8.33301 -7 -13z
M372.996 317.995c8 10 12.002 21.665 12.002 34.998c0 20 -9.66699 30 -29 30c-20.667 0 -47 -10.333 -79 -31c-34.667 -22 -68 -51.333 -100 -88c-72 -81.333 -108 -148.666 -108 -201.999c0 -22.667 7.66699 -34 23 -34c17.333 0 44.666 18 81.999 54
c31.333 30 59.666 62 84.999 96c32 42.667 70 89.334 114 140.001zM514.998 509.993c-0.666992 -13.333 -7.50391 -24.833 -20.5039 -34.5s-27.167 -14.5 -42.5 -14.5s-35.833 5.66699 -61.5 17s-45.834 17 -60.501 17c-9.33301 0 -19.166 -4.5 -29.499 -13.5
s-15.833 -13.5 -16.5 -13.5c-2.66699 0 -4 1.66699 -4 5c1.33301 13.333 9.33301 26 24 38s30 18 46 18c14.667 0 36.334 -6.83301 65.001 -20.5s47.334 -20.5 56.001 -20.5c10.667 0 19.334 4.5 26.001 13.5s10.334 13.5 11.001 13.5c4.66699 0 7 -1.66699 7 -5z" />
    <glyph glyph-name="adieresis" unicode="&#xe4;" 
d="M575 211c-28.667 -34.667 -73.6709 -75.0049 -135.004 -121.005c-88 -65.333 -149 -95.666 -183 -90.999c-36 4.66699 -54 25.334 -54 62.001c0 8.66699 1.33301 17.667 4 27c-53.333 -61.333 -99.666 -91 -138.999 -89c-41.333 2 -62 27.333 -62 76
c0 45.333 21.333 95 64 149s93.334 98.667 152.001 134c54 31.333 99.667 47 137 47c16 0 28.667 -3.66699 38 -11s13 -18.666 11 -33.999c15.333 15.333 24.666 24.333 27.999 27s8 4.33398 14 5.00098c6.66699 1.33301 12 1.33301 16 0c4 -0.666992 5 -2.66699 3 -6
l-112 -165c-47.333 -73.333 -73 -125.666 -77 -156.999c-3.33301 -20 2.33398 -30 17.001 -30c25.333 0 72 27.667 140 83c60.667 48.667 101.334 86 122.001 112c2.66699 3.33301 6.33398 5 11.001 5c8 0 12 -3.33301 12 -10c0 -4 -2.33301 -8.33301 -7 -13z
M372.996 317.995c8 10 12.002 21.665 12.002 34.998c0 20 -9.66699 30 -29 30c-20.667 0 -47 -10.333 -79 -31c-34.667 -22 -68 -51.333 -100 -88c-72 -81.333 -108 -148.666 -108 -201.999c0 -22.667 7.66699 -34 23 -34c17.333 0 44.666 18 81.999 54
c31.333 30 59.666 62 84.999 96c32 42.667 70 89.334 114 140.001zM493.998 481.993c-1.33301 -18 -11 -27 -29 -27s-26.667 9 -26 27c1.33301 18 11.333 27 30 27c18 0 26.333 -9 25 -27zM389.998 481.993c-1.33301 -18 -11 -27 -29 -27s-26.667 9 -26 27
c1.33301 18 11.333 27 30 27c18 0 26.333 -9 25 -27z" />
    <glyph glyph-name="aring" unicode="&#xe5;" 
d="M575 211c-28.667 -34.667 -73.6709 -75.0049 -135.004 -121.005c-88 -65.333 -149 -95.666 -183 -90.999c-36 4.66699 -54 25.334 -54 62.001c0 8.66699 1.33301 17.667 4 27c-53.333 -61.333 -99.666 -91 -138.999 -89c-41.333 2 -62 27.333 -62 76
c0 45.333 21.333 95 64 149s93.334 98.667 152.001 134c54 31.333 99.667 47 137 47c16 0 28.667 -3.66699 38 -11s13 -18.666 11 -33.999c15.333 15.333 24.666 24.333 27.999 27s8 4.33398 14 5.00098c6.66699 1.33301 12 1.33301 16 0c4 -0.666992 5 -2.66699 3 -6
l-112 -165c-47.333 -73.333 -73 -125.666 -77 -156.999c-3.33301 -20 2.33398 -30 17.001 -30c25.333 0 72 27.667 140 83c60.667 48.667 101.334 86 122.001 112c2.66699 3.33301 6.33398 5 11.001 5c8 0 12 -3.33301 12 -10c0 -4 -2.33301 -8.33301 -7 -13z
M372.996 317.995c8 10 12.002 21.665 12.002 34.998c0 20 -9.66699 30 -29 30c-20.667 0 -47 -10.333 -79 -31c-34.667 -22 -68 -51.333 -100 -88c-72 -81.333 -108 -148.666 -108 -201.999c0 -22.667 7.66699 -34 23 -34c17.333 0 44.666 18 81.999 54
c31.333 30 59.666 62 84.999 96c32 42.667 70 89.334 114 140.001zM486.998 521.993c-1.33301 -20.667 -9.66602 -38.667 -24.999 -54s-33 -23 -53 -23c-20.667 0 -37.834 7.5 -51.501 22.5s-19.834 33.167 -18.501 54.5c1.33301 20 9.83301 37.167 25.5 51.5
s33.834 21.5 54.501 21.5s37.5 -7 50.5 -21s18.833 -31.333 17.5 -52zM464.998 520.993c0.666992 14.667 -3.49902 26.833 -12.499 36.5s-20.5 14.5 -34.5 14.5c-14.667 0 -27.5 -5 -38.5 -15s-17.167 -22 -18.5 -36c-0.666992 -14 3.83301 -26.167 13.5 -36.5
s21.5 -15.5 35.5 -15.5c14.667 0 27.167 5.16699 37.5 15.5s16.166 22.5 17.499 36.5z" />
    <glyph glyph-name="ae" unicode="&#xe6;" horiz-adv-x="653" 
d="M748 233c6.66699 -5.33301 5.00195 -14.002 -4.99805 -26.002c-32 -38 -83 -81.667 -153 -131c-82 -58.667 -154.667 -88 -218 -88c-25.333 0 -47 5.33301 -65 16c-34.667 20.667 -52 53.334 -52 98.001c0 13.333 1.66699 27.333 5 42
c-31.333 -37.333 -63.666 -69.333 -96.999 -96c-42.667 -34 -77 -50.333 -103 -49c-41.333 2 -62 27.333 -62 76c0 45.333 21.333 95 64 149s93.667 98.667 153 134c53.333 31.333 99 47 137 47c15.333 0 27.666 -3.66699 36.999 -11s13 -18.666 11 -33.999
c15.333 15.333 24.666 24.333 27.999 27s8 4.33398 14 5.00098c6.66699 1.33301 12 1.33301 16 0c4.66699 -0.666992 5.66699 -2.66699 3 -6l-11 -16c44 22.667 81.333 34 112 34c28.667 0 43 -9.66699 43 -29c0 -18.667 -13.333 -44.334 -40 -77.001
c-23.333 -28.667 -48.333 -53.334 -75 -74.001c-48 -36.667 -99.667 -61 -155 -73c-4 -14.667 -6 -28.667 -6 -42c0 -32 11 -55 33 -69c15.333 -10 33.666 -15 54.999 -15c44 0 96.667 21.667 158 65c56.667 40.667 105.667 84.667 147 132
c11.333 12.667 20 16.334 26 11.001zM564.002 382.998c-18 0 -43 -10.001 -75 -30.001c-34 -21.333 -64.667 -47.666 -92 -78.999c-22.667 -26.667 -40.667 -59 -54 -97c44 12 87.333 34 130 66c26 20 50.667 43.167 74 69.5s35 45.5 35 57.5c0 8.66699 -6 13 -18 13z
M365.002 317.997c8 10 12.002 21.665 12.002 34.998c0 20 -9.66699 30 -29 30c-20 0 -46 -10.333 -78 -31c-35.333 -22 -69 -51.333 -101 -88c-72 -81.333 -108 -148.666 -108 -201.999c0 -22.667 7.66699 -34 23 -34c17.333 0 44.666 18 81.999 54
c31.333 30 59.666 62 84.999 96c32 42.667 70 89.334 114 140.001z" />
    <glyph glyph-name="ccedilla" unicode="&#xe7;" horiz-adv-x="395" 
d="M489 233c6.66699 -4.66699 6.33105 -11.666 -1.00195 -20.999c-28.667 -37.333 -81.334 -83.666 -158.001 -138.999c-39.333 -27.333 -71.333 -46.666 -96 -57.999c-37.333 -17.333 -74.333 -24.333 -111 -21l-24 -40c22.667 -7.33301 33.334 -21 32.001 -41
c-2 -24.667 -17.333 -43 -46 -55c-22 -8.66699 -47.333 -13 -76 -13c-8.66699 0 -12.667 2.33301 -12 7c0 4 4.33301 6 13 6c18.667 0 37.834 5.5 57.501 16.5s30.167 25.167 31.5 42.5c1.33301 12.667 -7.33398 23.667 -26.001 33l29 47c-56 11.333 -84 44 -84 98
c0 38 15.833 81.167 47.5 129.5s73.5 89.5 125.5 123.5c48.667 32.667 90.667 49 126 49s53 -16.333 53 -49c0 -23.333 -10.333 -50 -31 -80c-2 -3.33301 -5.66699 -5 -11 -5c-6 0.666992 -13.333 3.66699 -22 9s-13.667 9.66602 -15 12.999
c-2 4.66699 -0.166992 8.66699 5.5 12s12.834 10.666 21.501 21.999c10 14 15 25.667 15 35c0 13.333 -8.33301 20 -25 20c-20.667 0 -44.667 -10.667 -72 -32c-32 -23.333 -62 -56.333 -90 -99c-33.333 -50.667 -50 -97.334 -50 -140.001c0 -53.333 21.667 -80 65 -80
c44 0 98.667 24.667 164 74c62.667 48 110.334 91.333 143.001 130c7.33301 8.66699 14.333 10.667 21 6z" />
    <glyph glyph-name="egrave" unicode="&#xe8;" horiz-adv-x="408" 
d="M503 233c6.66699 -5.33301 4.99902 -13.999 -5.00098 -25.999c-32 -38 -83 -81.667 -153 -131c-84 -59.333 -159.667 -89 -227 -89c-25.333 0 -46.666 5.33301 -63.999 16c-27.333 17.333 -41 44 -41 80c0 59.333 31.667 121.666 95 186.999
c38.667 39.333 81.667 71.666 129 96.999s87 38 119 38c30 0 45 -9 45 -27s-15.333 -44 -46 -78c-27.333 -29.333 -56 -54.666 -86 -75.999c-51.333 -36.667 -105.666 -61 -162.999 -73c-6.66699 -20.667 -10 -39 -10 -55c0 -25.333 8.33301 -44 25 -56
c14.667 -10 32 -15 52 -15c44 0 96.333 21.667 157 65c58.667 42 108 86 148 132c11.333 12 19.666 15.667 24.999 11zM359.999 383.001c-18 0 -43.999 -10.002 -77.999 -30.002c-36 -21.333 -69.333 -47.666 -100 -78.999c-26 -26.667 -47.667 -59 -65 -97
c45.333 12 91 34 137 66c29.333 20.667 57.166 44.334 83.499 71.001s39.5 46 39.5 58c0 7.33301 -5.66699 11 -17 11zM351 441.999c0 -4 -1.66797 -6.00098 -5.00098 -6.00098c-58 34 -97.333 58 -118 72c-9.33301 6 -13.666 14.667 -12.999 26
c1.33301 16 9.33301 24 24 24c7.33301 0 14.333 -2.33301 21 -7c23.333 -33.333 44 -59.666 62 -78.999c5.33301 -5.33301 11 -10.333 17 -15c8 -8 12 -13 12 -15z" />
    <glyph glyph-name="eacute" unicode="&#xe9;" horiz-adv-x="408" 
d="M503 233c6.66699 -5.33301 4.99902 -13.999 -5.00098 -25.999c-32 -38 -83 -81.667 -153 -131c-84 -59.333 -159.667 -89 -227 -89c-25.333 0 -46.666 5.33301 -63.999 16c-27.333 17.333 -41 44 -41 80c0 59.333 31.667 121.666 95 186.999
c38.667 39.333 81.667 71.666 129 96.999s87 38 119 38c30 0 45 -9 45 -27s-15.333 -44 -46 -78c-27.333 -29.333 -56 -54.666 -86 -75.999c-51.333 -36.667 -105.666 -61 -162.999 -73c-6.66699 -20.667 -10 -39 -10 -55c0 -25.333 8.33301 -44 25 -56
c14.667 -10 32 -15 52 -15c44 0 96.333 21.667 157 65c58.667 42 108 86 148 132c11.333 12 19.666 15.667 24.999 11zM359.999 383.001c-18 0 -43.999 -10.002 -77.999 -30.002c-36 -21.333 -69.333 -47.666 -100 -78.999c-26 -26.667 -47.667 -59 -65 -97
c45.333 12 91 34 137 66c29.333 20.667 57.166 44.334 83.499 71.001s39.5 46 39.5 58c0 7.33301 -5.66699 11 -17 11zM479 529.999c-0.666992 -10.667 -5.99902 -18.668 -15.999 -24.001c-21.333 -9.33301 -52.333 -23.666 -93 -42.999
c-8 -5.33301 -20 -11.666 -36 -18.999c-0.666992 0 -1.33398 -0.333008 -2.00098 -1h-2c-3.33301 0 -4.66602 2 -3.99902 6c0 0.666992 1 2 3 4c27.333 25.333 63.666 56.666 108.999 93.999c5.33301 4 12 6 20 6c15.333 0 22.333 -7.66699 21 -23z" />
    <glyph glyph-name="ecircumflex" unicode="&#xea;" horiz-adv-x="408" 
d="M503 233c6.66699 -5.33301 4.99902 -13.999 -5.00098 -25.999c-32 -38 -83 -81.667 -153 -131c-84 -59.333 -159.667 -89 -227 -89c-25.333 0 -46.666 5.33301 -63.999 16c-27.333 17.333 -41 44 -41 80c0 59.333 31.667 121.666 95 186.999
c38.667 39.333 81.667 71.666 129 96.999s87 38 119 38c30 0 45 -9 45 -27s-15.333 -44 -46 -78c-27.333 -29.333 -56 -54.666 -86 -75.999c-51.333 -36.667 -105.666 -61 -162.999 -73c-6.66699 -20.667 -10 -39 -10 -55c0 -25.333 8.33301 -44 25 -56
c14.667 -10 32 -15 52 -15c44 0 96.333 21.667 157 65c58.667 42 108 86 148 132c11.333 12 19.666 15.667 24.999 11zM359.999 383.001c-18 0 -43.999 -10.002 -77.999 -30.002c-36 -21.333 -69.333 -47.666 -100 -78.999c-26 -26.667 -47.667 -59 -65 -97
c45.333 12 91 34 137 66c29.333 20.667 57.166 44.334 83.499 71.001s39.5 46 39.5 58c0 7.33301 -5.66699 11 -17 11zM445 443.999c-1.33301 -2 -2.99902 -2.99805 -4.99902 -2.99805h-29l-5 2l-38 64l-106 -71c-2.66699 0 -5 1.5 -7 4.5s-2.66699 5.5 -2 7.5
c3.33301 5.33301 46.666 34.666 129.999 87.999c1.33301 1.33301 3 2 5 2c0.666992 0 2 -1 4 -3c5.33301 -7.33301 22.333 -36 51 -86c1.33301 -2.66699 2 -4.33398 2 -5.00098z" />
    <glyph glyph-name="edieresis" unicode="&#xeb;" horiz-adv-x="408" 
d="M503 233c6.66699 -5.33301 4.99902 -13.999 -5.00098 -25.999c-32 -38 -83 -81.667 -153 -131c-84 -59.333 -159.667 -89 -227 -89c-25.333 0 -46.666 5.33301 -63.999 16c-27.333 17.333 -41 44 -41 80c0 59.333 31.667 121.666 95 186.999
c38.667 39.333 81.667 71.666 129 96.999s87 38 119 38c30 0 45 -9 45 -27s-15.333 -44 -46 -78c-27.333 -29.333 -56 -54.666 -86 -75.999c-51.333 -36.667 -105.666 -61 -162.999 -73c-6.66699 -20.667 -10 -39 -10 -55c0 -25.333 8.33301 -44 25 -56
c14.667 -10 32 -15 52 -15c44 0 96.333 21.667 157 65c58.667 42 108 86 148 132c11.333 12 19.666 15.667 24.999 11zM359.999 383.001c-18 0 -43.999 -10.002 -77.999 -30.002c-36 -21.333 -69.333 -47.666 -100 -78.999c-26 -26.667 -47.667 -59 -65 -97
c45.333 12 91 34 137 66c29.333 20.667 57.166 44.334 83.499 71.001s39.5 46 39.5 58c0 7.33301 -5.66699 11 -17 11zM446 477.999c-1.33301 -18 -10.999 -27 -28.999 -27c-18.667 0 -27.334 9 -26.001 27c1.33301 18.667 11.333 28 30 28c18 0 26.333 -9.33301 25 -28z
M342.001 477.999c-1.33301 -18 -10.999 -27 -28.999 -27c-18.667 0 -27.334 9 -26.001 27c1.33301 18.667 11.333 28 30 28c18 0 26.333 -9.33301 25 -28z" />
    <glyph glyph-name="igrave" unicode="&#xec;" horiz-adv-x="263" 
d="M355 211c-28.667 -34.667 -73.6699 -75.0049 -135.003 -121.005c-88 -65.333 -149 -95.666 -183 -90.999c-36 4.66699 -54 26.334 -54 65.001c0 6 0.666992 12 2 18c6 32.667 37.333 83.667 94 153c80.667 98.667 125.334 150.334 134.001 155.001
c5.33301 3.33301 11.666 5 18.999 5c8.66699 0.666992 13 -1.66602 13 -6.99902c0 -6 -12.333 -27 -37 -63c-39.333 -56 -63 -90.667 -71 -104c-47.333 -73.333 -73 -125.666 -77 -156.999c-3.33301 -20 2.33398 -30 17.001 -30c25.333 0 72 27.667 140 83
c60.667 48.667 101.334 86 122.001 112c2.66699 3.33301 6.33398 5 11.001 5c8 0 12 -3.33301 12 -10c0 -4 -2.33301 -8.33301 -7 -13zM251.997 446.995c-0.666992 -4 -2.66699 -6 -6 -6c-58 34.667 -97.333 58.667 -118 72c-8.66699 6 -12.667 14.667 -12 26
c1.33301 16 9.33301 24 24 24c6.66699 0 13.334 -2.33301 20.001 -7c23.333 -32.667 44.333 -59 63 -79c5.33301 -4.66699 10.666 -9.66699 15.999 -15c8.66699 -7.33301 13 -12.333 13 -15z" />
    <glyph glyph-name="iacute" unicode="&#xed;" horiz-adv-x="263" 
d="M355 211c-28.667 -34.667 -73.6699 -75.0049 -135.003 -121.005c-88 -65.333 -149 -95.666 -183 -90.999c-36 4.66699 -54 26.334 -54 65.001c0 6 0.666992 12 2 18c6 32.667 37.333 83.667 94 153c80.667 98.667 125.334 150.334 134.001 155.001
c5.33301 3.33301 11.666 5 18.999 5c8.66699 0.666992 13 -1.66602 13 -6.99902c0 -6 -12.333 -27 -37 -63c-39.333 -56 -63 -90.667 -71 -104c-47.333 -73.333 -73 -125.666 -77 -156.999c-3.33301 -20 2.33398 -30 17.001 -30c25.333 0 72 27.667 140 83
c60.667 48.667 101.334 86 122.001 112c2.66699 3.33301 6.33398 5 11.001 5c8 0 12 -3.33301 12 -10c0 -4 -2.33301 -8.33301 -7 -13zM397.997 534.995c-0.666992 -10 -5.99902 -18 -15.999 -24c-21.333 -9.33301 -52.333 -23.666 -93 -42.999c-8 -4.66699 -20 -11 -36 -19
h-2c-0.666992 -0.666992 -1.33398 -1 -2.00098 -1c-3.33301 0 -4.66602 2 -3.99902 6c0 0.666992 1 2 3 4c27.333 25.333 63.666 56.666 108.999 93.999c5.33301 4 12 6 20 6c15.333 0 22.333 -7.66699 21 -23z" />
    <glyph glyph-name="icircumflex" unicode="&#xee;" horiz-adv-x="263" 
d="M355 211c-28.667 -34.667 -73.6699 -75.0049 -135.003 -121.005c-88 -65.333 -149 -95.666 -183 -90.999c-36 4.66699 -54 26.334 -54 65.001c0 6 0.666992 12 2 18c6 32.667 37.333 83.667 94 153c80.667 98.667 125.334 150.334 134.001 155.001
c5.33301 3.33301 11.666 5 18.999 5c8.66699 0.666992 13 -1.66602 13 -6.99902c0 -6 -12.333 -27 -37 -63c-39.333 -56 -63 -90.667 -71 -104c-47.333 -73.333 -73 -125.666 -77 -156.999c-3.33301 -20 2.33398 -30 17.001 -30c25.333 0 72 27.667 140 83
c60.667 48.667 101.334 86 122.001 112c2.66699 3.33301 6.33398 5 11.001 5c8 0 12 -3.33301 12 -10c0 -4 -2.33301 -8.33301 -7 -13zM344.997 449.995c-1.33301 -2 -2.99902 -2.99707 -4.99902 -2.99707h-29l-4 2c-12.667 19.333 -25.667 40.666 -39 63.999l-106 -71
c-2.66699 0 -5 1.5 -7 4.5s-2.66699 5.5 -2 7.5c3.33301 5.33301 46.666 34.666 129.999 87.999c1.33301 1.33301 3 2 5 2c0.666992 0 2 -1 4 -3c5.33301 -7.33301 22.333 -36 51 -86c1.33301 -2.66699 2 -4.33398 2 -5.00098z" />
    <glyph glyph-name="idieresis" unicode="&#xef;" horiz-adv-x="263" 
d="M355 211c-28.667 -34.667 -73.6699 -75.0049 -135.003 -121.005c-88 -65.333 -149 -95.666 -183 -90.999c-36 4.66699 -54 26.334 -54 65.001c0 6 0.666992 12 2 18c6 32.667 37.333 83.667 94 153c80.667 98.667 125.334 150.334 134.001 155.001
c5.33301 3.33301 11.666 5 18.999 5c8.66699 0.666992 13 -1.66602 13 -6.99902c0 -6 -12.333 -27 -37 -63c-39.333 -56 -63 -90.667 -71 -104c-47.333 -73.333 -73 -125.666 -77 -156.999c-3.33301 -20 2.33398 -30 17.001 -30c25.333 0 72 27.667 140 83
c60.667 48.667 101.334 86 122.001 112c2.66699 3.33301 6.33398 5 11.001 5c8 0 12 -3.33301 12 -10c0 -4 -2.33301 -8.33301 -7 -13zM337.997 482.995c-1.33301 -18 -11 -27 -29 -27c-18.667 0 -27.334 9 -26.001 27c1.33301 18.667 11 28 29 28
c18.667 0 27.334 -9.33301 26.001 -28zM233.997 482.995c-1.33301 -18 -11 -27 -29 -27c-18.667 0 -27.334 9 -26.001 27c1.33301 18.667 11 28 29 28c18.667 0 27.334 -9.33301 26.001 -28z" />
    <glyph glyph-name="eth" unicode="&#xf0;" horiz-adv-x="482" 
d="M755 784c0 -38.667 -29.334 -101.334 -88.001 -188.001h43c13.333 0 20 -6.66699 20 -20c0 -14 -6.66699 -21 -20 -21h-72c-5.33301 -7.33301 -11 -14.666 -17 -21.999c-54.667 -72 -146.667 -176.667 -276 -314c-43.333 -78 -65 -131.667 -65 -161
c0 -16 5.66699 -24 17 -24c26 0 72.333 27.333 139 82c55.333 45.333 96.333 82.666 123 111.999c3.33301 3.33301 7 5 11 5c6.66699 0 10 -3.66699 10 -11c0 -4 -1.66699 -8 -5 -12c-34 -36.667 -78 -75.667 -132 -117c-82 -62.667 -142 -94 -180 -94
c-16 0 -29 4.33301 -39 13c-18 16 -24.333 38 -19 66c-60 -53.333 -105 -80 -135 -80c-14 0 -27.333 5 -40 15c-16.667 12.667 -25 33.334 -25 62.001c0 48 27.333 104.333 82 169c44.667 52.667 95.334 94 152.001 124c48 24.667 89 37 123 37c12.667 0 22 -2 28 -6l98 156
h-95c-13.333 0 -20 7 -20 21c0 13.333 6.66699 20 20 20h121l8 13c88 141.333 153.333 212 196 212c24.667 0 37 -12.333 37 -37zM714.999 786c-21.333 0 -69.667 -63.333 -145 -190h67c59.333 86.667 89 145 89 175c0 10 -3.66699 15 -11 15zM607.998 555l-62 -0.000976562
l-98 -167l-45 -72c94 102.667 162.333 182.334 205 239.001zM375.998 375.999c-6.66699 4.66699 -13.998 7 -21.998 7c-24.667 0 -57.834 -15.833 -99.501 -47.5s-78.834 -68.5 -111.501 -110.5c-50 -64.667 -75 -118.667 -75 -162c0 -24 8 -36 24 -36
c20.667 0 64.667 35 132 105l68 110z" />
    <glyph glyph-name="ntilde" unicode="&#xf1;" horiz-adv-x="434" 
d="M526 212c-26.667 -32.667 -67 -69.6689 -121 -111.002c-88 -67.333 -149 -101 -183 -101c-19.333 0 -36.333 5.33301 -51 16s-22.667 25.667 -24 45c-3.33301 40 24.334 84.667 83.001 134c94 78 141 131 141 159c0 13.333 -8.66699 20 -26 20c-20 0 -50 -13.333 -90 -40
c-66 -44 -115.667 -88.333 -149 -133c-47.333 -67.333 -97.333 -135 -150 -203c-6 -1.33301 -13.833 -0.333008 -23.5 3s-14.167 7 -13.5 11c1.33301 10.667 48.333 78.334 141 203.001c81.333 110.667 126 169.334 134 176.001c3.33301 2.66699 11.666 4 24.999 4
c13.333 0.666992 20.333 -0.666016 21 -3.99902c0.666992 -4 -13.333 -25.667 -42 -65c60 47.333 110.667 71 152 71c38 0 57 -16.333 57 -49c0 -31.333 -16 -65.333 -48 -102c-82 -93.333 -125.667 -157.333 -131 -192c-0.666992 -6 1 -10.833 5 -14.5
s10.667 -4.83398 20 -3.50098c25.333 3.33301 67 27.666 125 72.999c48 38 90.667 76.667 128 116c5.33301 6.66699 11 10 17 10c4.66699 0 7.66699 -2.33301 9 -7c1.33301 -5.33301 -0.666992 -10.666 -6 -15.999zM471 506.998
c-1.33301 -12.667 -8.5 -23.998 -21.5 -33.998s-27.167 -15 -42.5 -15c-14.667 0.666992 -34.834 6.5 -60.501 17.5s-45.834 16.5 -60.501 16.5c-9.33301 0 -19.166 -4.5 -29.499 -13.5s-15.833 -13.5 -16.5 -13.5c-2.66699 0 -4 1.66699 -4 5
c1.33301 13.333 9.16602 26.166 23.499 38.499s29.833 18.166 46.5 17.499c14.667 0 36.334 -6.83301 65.001 -20.5s47 -20.5 55 -20.5c11.333 0 20.333 4.5 27 13.5s10.334 13.5 11.001 13.5c4.66699 0 7 -1.66699 7 -5z" />
    </font>
</defs>
</svg>
